%FSLAX45Y45*%
G04 Gerber Fmt 4.5, Leading zero omitted, Abs format (unit mm)*
G04 Created by KiCad (PCBNEW (5.1.6)-1) date 2021-08-10 23:20:13*
%MOMM*%
%LPD*%
G01*
G04 APERTURE LIST*
%TA.AperFunction,Profile*%
%ADD10C,0.150000*%
%TD*%
%ADD11C,0.200000*%
%ADD12C,0.300000*%
G04 APERTURE END LIST*
D10*
X12350000Y-13930000D02*
X12350000Y-4087500D01*
X14550000Y-13930000D02*
X12350000Y-13930000D01*
X14550000Y-4087500D02*
X14550000Y-13930000D01*
X12350000Y-4087500D02*
X14550000Y-4087500D01*
D11*
X12455000Y-4480000D02*
X12495000Y-4520000D01*
X12495000Y-4480000D02*
X12455000Y-4520000D01*
X12455000Y-4930000D02*
X12495000Y-4970000D01*
X12495000Y-4930000D02*
X12455000Y-4970000D01*
X12480000Y-8805000D02*
X12520000Y-8845000D01*
X12520000Y-8805000D02*
X12480000Y-8845000D01*
X12480000Y-13755000D02*
X12520000Y-13795000D01*
X12520000Y-13755000D02*
X12480000Y-13795000D01*
X12555000Y-6830000D02*
X12595000Y-6870000D01*
X12595000Y-6830000D02*
X12555000Y-6870000D01*
X12580000Y-8230000D02*
X12620000Y-8270000D01*
X12620000Y-8230000D02*
X12580000Y-8270000D01*
X12580000Y-12880000D02*
X12620000Y-12920000D01*
X12620000Y-12880000D02*
X12580000Y-12920000D01*
X12630000Y-10005000D02*
X12670000Y-10045000D01*
X12670000Y-10005000D02*
X12630000Y-10045000D01*
X12680000Y-10855000D02*
X12720000Y-10895000D01*
X12720000Y-10855000D02*
X12680000Y-10895000D01*
X12705000Y-5605000D02*
X12745000Y-5645000D01*
X12745000Y-5605000D02*
X12705000Y-5645000D01*
X12705000Y-8605000D02*
X12745000Y-8645000D01*
X12745000Y-8605000D02*
X12705000Y-8645000D01*
X12830000Y-4930000D02*
X12870000Y-4970000D01*
X12870000Y-4930000D02*
X12830000Y-4970000D01*
X12830000Y-11380000D02*
X12870000Y-11420000D01*
X12870000Y-11380000D02*
X12830000Y-11420000D01*
X12955000Y-9005000D02*
X12995000Y-9045000D01*
X12995000Y-9005000D02*
X12955000Y-9045000D01*
X12955000Y-12355000D02*
X12995000Y-12395000D01*
X12995000Y-12355000D02*
X12955000Y-12395000D01*
X13005000Y-11380000D02*
X13045000Y-11420000D01*
X13045000Y-11380000D02*
X13005000Y-11420000D01*
X13105000Y-6080000D02*
X13145000Y-6120000D01*
X13145000Y-6080000D02*
X13105000Y-6120000D01*
X13180000Y-7780000D02*
X13220000Y-7820000D01*
X13220000Y-7780000D02*
X13180000Y-7820000D01*
X13180000Y-8105000D02*
X13220000Y-8145000D01*
X13220000Y-8105000D02*
X13180000Y-8145000D01*
X13180000Y-12855000D02*
X13220000Y-12895000D01*
X13220000Y-12855000D02*
X13180000Y-12895000D01*
X13205000Y-5605000D02*
X13245000Y-5645000D01*
X13245000Y-5605000D02*
X13205000Y-5645000D01*
X13205000Y-5905000D02*
X13245000Y-5945000D01*
X13245000Y-5905000D02*
X13205000Y-5945000D01*
X13205000Y-6205000D02*
X13245000Y-6245000D01*
X13245000Y-6205000D02*
X13205000Y-6245000D01*
X13255000Y-6705000D02*
X13295000Y-6745000D01*
X13295000Y-6705000D02*
X13255000Y-6745000D01*
X13255000Y-8580000D02*
X13295000Y-8620000D01*
X13295000Y-8580000D02*
X13255000Y-8620000D01*
X13280000Y-4630000D02*
X13320000Y-4670000D01*
X13320000Y-4630000D02*
X13280000Y-4670000D01*
X13330000Y-12705000D02*
X13370000Y-12745000D01*
X13370000Y-12705000D02*
X13330000Y-12745000D01*
X13355000Y-5330000D02*
X13395000Y-5370000D01*
X13395000Y-5330000D02*
X13355000Y-5370000D01*
X13355000Y-9755000D02*
X13395000Y-9795000D01*
X13395000Y-9755000D02*
X13355000Y-9795000D01*
X13430000Y-4180000D02*
X13470000Y-4220000D01*
X13470000Y-4180000D02*
X13430000Y-4220000D01*
X13430000Y-7755000D02*
X13470000Y-7795000D01*
X13470000Y-7755000D02*
X13430000Y-7795000D01*
X13455000Y-7005000D02*
X13495000Y-7045000D01*
X13495000Y-7005000D02*
X13455000Y-7045000D01*
X13503735Y-8928735D02*
X13543735Y-8968735D01*
X13543735Y-8928735D02*
X13503735Y-8968735D01*
X13505000Y-6430000D02*
X13545000Y-6470000D01*
X13545000Y-6430000D02*
X13505000Y-6470000D01*
X13505000Y-10655000D02*
X13545000Y-10695000D01*
X13545000Y-10655000D02*
X13505000Y-10695000D01*
X13530000Y-4680000D02*
X13570000Y-4720000D01*
X13570000Y-4680000D02*
X13530000Y-4720000D01*
X13555000Y-6555000D02*
X13595000Y-6595000D01*
X13595000Y-6555000D02*
X13555000Y-6595000D01*
X13555000Y-8330000D02*
X13595000Y-8370000D01*
X13595000Y-8330000D02*
X13555000Y-8370000D01*
X13655000Y-4180000D02*
X13695000Y-4220000D01*
X13695000Y-4180000D02*
X13655000Y-4220000D01*
X13655000Y-6705000D02*
X13695000Y-6745000D01*
X13695000Y-6705000D02*
X13655000Y-6745000D01*
X13680000Y-4680000D02*
X13720000Y-4720000D01*
X13720000Y-4680000D02*
X13680000Y-4720000D01*
X13680000Y-7855000D02*
X13720000Y-7895000D01*
X13720000Y-7855000D02*
X13680000Y-7895000D01*
X13680000Y-8105000D02*
X13720000Y-8145000D01*
X13720000Y-8105000D02*
X13680000Y-8145000D01*
X13680000Y-8730000D02*
X13720000Y-8770000D01*
X13720000Y-8730000D02*
X13680000Y-8770000D01*
X13680000Y-9805000D02*
X13720000Y-9845000D01*
X13720000Y-9805000D02*
X13680000Y-9845000D01*
X13705000Y-9180000D02*
X13745000Y-9220000D01*
X13745000Y-9180000D02*
X13705000Y-9220000D01*
X13705000Y-11230000D02*
X13745000Y-11270000D01*
X13745000Y-11230000D02*
X13705000Y-11270000D01*
X13705000Y-11455000D02*
X13745000Y-11495000D01*
X13745000Y-11455000D02*
X13705000Y-11495000D01*
X13730000Y-8905000D02*
X13770000Y-8945000D01*
X13770000Y-8905000D02*
X13730000Y-8945000D01*
X13730000Y-10880000D02*
X13770000Y-10920000D01*
X13770000Y-10880000D02*
X13730000Y-10920000D01*
X13805000Y-12080000D02*
X13845000Y-12120000D01*
X13845000Y-12080000D02*
X13805000Y-12120000D01*
X13830000Y-8755000D02*
X13870000Y-8795000D01*
X13870000Y-8755000D02*
X13830000Y-8795000D01*
X13880000Y-4180000D02*
X13920000Y-4220000D01*
X13920000Y-4180000D02*
X13880000Y-4220000D01*
X13955000Y-6530000D02*
X13995000Y-6570000D01*
X13995000Y-6530000D02*
X13955000Y-6570000D01*
X14005000Y-8305000D02*
X14045000Y-8345000D01*
X14045000Y-8305000D02*
X14005000Y-8345000D01*
X14055000Y-6755000D02*
X14095000Y-6795000D01*
X14095000Y-6755000D02*
X14055000Y-6795000D01*
X14080000Y-9805000D02*
X14120000Y-9845000D01*
X14120000Y-9805000D02*
X14080000Y-9845000D01*
X14080000Y-10530000D02*
X14120000Y-10570000D01*
X14120000Y-10530000D02*
X14080000Y-10570000D01*
X14080000Y-11230000D02*
X14120000Y-11270000D01*
X14120000Y-11230000D02*
X14080000Y-11270000D01*
X14080000Y-13255000D02*
X14120000Y-13295000D01*
X14120000Y-13255000D02*
X14080000Y-13295000D01*
X14130000Y-7180000D02*
X14170000Y-7220000D01*
X14170000Y-7180000D02*
X14130000Y-7220000D01*
X14130000Y-7355000D02*
X14170000Y-7395000D01*
X14170000Y-7355000D02*
X14130000Y-7395000D01*
X14130000Y-7530000D02*
X14170000Y-7570000D01*
X14170000Y-7530000D02*
X14130000Y-7570000D01*
X14130000Y-7705000D02*
X14170000Y-7745000D01*
X14170000Y-7705000D02*
X14130000Y-7745000D01*
X14180000Y-6355000D02*
X14220000Y-6395000D01*
X14220000Y-6355000D02*
X14180000Y-6395000D01*
X14180000Y-13105000D02*
X14220000Y-13145000D01*
X14220000Y-13105000D02*
X14180000Y-13145000D01*
X14205000Y-13680000D02*
X14245000Y-13720000D01*
X14245000Y-13680000D02*
X14205000Y-13720000D01*
X14255000Y-10305000D02*
X14295000Y-10345000D01*
X14295000Y-10305000D02*
X14255000Y-10345000D01*
X14330000Y-5105000D02*
X14370000Y-5145000D01*
X14370000Y-5105000D02*
X14330000Y-5145000D01*
X14380000Y-9330000D02*
X14420000Y-9370000D01*
X14420000Y-9330000D02*
X14380000Y-9370000D01*
X14405000Y-8980000D02*
X14445000Y-9020000D01*
X14445000Y-8980000D02*
X14405000Y-9020000D01*
X14430000Y-6880000D02*
X14470000Y-6920000D01*
X14470000Y-6880000D02*
X14430000Y-6920000D01*
X14430000Y-8705000D02*
X14470000Y-8745000D01*
X14470000Y-8705000D02*
X14430000Y-8745000D01*
X14430000Y-9180000D02*
X14470000Y-9220000D01*
X14470000Y-9180000D02*
X14430000Y-9220000D01*
X12519000Y-4280000D02*
G75*
G03*
X12519000Y-4280000I-22500J0D01*
G01*
X12509000Y-4320000D02*
X12509000Y-4240000D01*
X12484000Y-4320000D02*
X12484000Y-4240000D01*
X12509000Y-4240000D02*
G75*
G03*
X12484000Y-4240000I-12500J0D01*
G01*
X12484000Y-4320000D02*
G75*
G03*
X12509000Y-4320000I12500J0D01*
G01*
X13234000Y-4280000D02*
G75*
G03*
X13234000Y-4280000I-22500J0D01*
G01*
X13199000Y-4240000D02*
X13199000Y-4320000D01*
X13224000Y-4240000D02*
X13224000Y-4320000D01*
X13199000Y-4320000D02*
G75*
G03*
X13224000Y-4320000I12500J0D01*
G01*
X13224000Y-4240000D02*
G75*
G03*
X13199000Y-4240000I-12500J0D01*
G01*
X13450000Y-4865000D02*
X13450000Y-5035000D01*
X13365000Y-4950000D02*
X13535000Y-4950000D01*
X13450000Y-12155000D02*
X13450000Y-12325000D01*
X13365000Y-12240000D02*
X13535000Y-12240000D01*
D12*
X286429Y-465714D02*
X286429Y-165714D01*
X357857Y-165714D01*
X400714Y-180000D01*
X429286Y-208571D01*
X443571Y-237143D01*
X457857Y-294286D01*
X457857Y-337143D01*
X443571Y-394286D01*
X429286Y-422857D01*
X400714Y-451428D01*
X357857Y-465714D01*
X286429Y-465714D01*
X586429Y-465714D02*
X586429Y-265714D01*
X586429Y-322857D02*
X600714Y-294286D01*
X615000Y-280000D01*
X643571Y-265714D01*
X672143Y-265714D01*
X772143Y-465714D02*
X772143Y-265714D01*
X772143Y-165714D02*
X757857Y-180000D01*
X772143Y-194286D01*
X786428Y-180000D01*
X772143Y-165714D01*
X772143Y-194286D01*
X957857Y-465714D02*
X929286Y-451428D01*
X915000Y-422857D01*
X915000Y-165714D01*
X1115000Y-465714D02*
X1086429Y-451428D01*
X1072143Y-422857D01*
X1072143Y-165714D01*
X1457857Y-465714D02*
X1457857Y-165714D01*
X1557857Y-380000D01*
X1657857Y-165714D01*
X1657857Y-465714D01*
X1929286Y-465714D02*
X1929286Y-308571D01*
X1915000Y-280000D01*
X1886428Y-265714D01*
X1829286Y-265714D01*
X1800714Y-280000D01*
X1929286Y-451428D02*
X1900714Y-465714D01*
X1829286Y-465714D01*
X1800714Y-451428D01*
X1786428Y-422857D01*
X1786428Y-394286D01*
X1800714Y-365714D01*
X1829286Y-351428D01*
X1900714Y-351428D01*
X1929286Y-337143D01*
X2072143Y-265714D02*
X2072143Y-565714D01*
X2072143Y-280000D02*
X2100714Y-265714D01*
X2157857Y-265714D01*
X2186429Y-280000D01*
X2200714Y-294286D01*
X2215000Y-322857D01*
X2215000Y-408571D01*
X2200714Y-437143D01*
X2186429Y-451428D01*
X2157857Y-465714D01*
X2100714Y-465714D01*
X2072143Y-451428D01*
X2343571Y-437143D02*
X2357857Y-451428D01*
X2343571Y-465714D01*
X2329286Y-451428D01*
X2343571Y-437143D01*
X2343571Y-465714D01*
X2343571Y-280000D02*
X2357857Y-294286D01*
X2343571Y-308571D01*
X2329286Y-294286D01*
X2343571Y-280000D01*
X2343571Y-308571D01*
X-40000Y-940000D02*
X0Y-980000D01*
X0Y-940000D02*
X-40000Y-980000D01*
X343571Y-795714D02*
X372143Y-795714D01*
X400714Y-810000D01*
X415000Y-824286D01*
X429286Y-852857D01*
X443571Y-910000D01*
X443571Y-981428D01*
X429286Y-1038571D01*
X415000Y-1067143D01*
X400714Y-1081429D01*
X372143Y-1095714D01*
X343571Y-1095714D01*
X315000Y-1081429D01*
X300714Y-1067143D01*
X286429Y-1038571D01*
X272143Y-981428D01*
X272143Y-910000D01*
X286429Y-852857D01*
X300714Y-824286D01*
X315000Y-810000D01*
X343571Y-795714D01*
X572143Y-1067143D02*
X586429Y-1081429D01*
X572143Y-1095714D01*
X557857Y-1081429D01*
X572143Y-1067143D01*
X572143Y-1095714D01*
X843571Y-895714D02*
X843571Y-1095714D01*
X772143Y-781428D02*
X700714Y-995714D01*
X886428Y-995714D01*
X1057857Y-795714D02*
X1086429Y-795714D01*
X1115000Y-810000D01*
X1129286Y-824286D01*
X1143571Y-852857D01*
X1157857Y-910000D01*
X1157857Y-981428D01*
X1143571Y-1038571D01*
X1129286Y-1067143D01*
X1115000Y-1081429D01*
X1086429Y-1095714D01*
X1057857Y-1095714D01*
X1029286Y-1081429D01*
X1015000Y-1067143D01*
X1000714Y-1038571D01*
X986428Y-981428D01*
X986428Y-910000D01*
X1000714Y-852857D01*
X1015000Y-824286D01*
X1029286Y-810000D01*
X1057857Y-795714D01*
X1286429Y-1095714D02*
X1286429Y-895714D01*
X1286429Y-924286D02*
X1300714Y-910000D01*
X1329286Y-895714D01*
X1372143Y-895714D01*
X1400714Y-910000D01*
X1415000Y-938571D01*
X1415000Y-1095714D01*
X1415000Y-938571D02*
X1429286Y-910000D01*
X1457857Y-895714D01*
X1500714Y-895714D01*
X1529286Y-910000D01*
X1543571Y-938571D01*
X1543571Y-1095714D01*
X1686428Y-1095714D02*
X1686428Y-895714D01*
X1686428Y-924286D02*
X1700714Y-910000D01*
X1729286Y-895714D01*
X1772143Y-895714D01*
X1800714Y-910000D01*
X1815000Y-938571D01*
X1815000Y-1095714D01*
X1815000Y-938571D02*
X1829286Y-910000D01*
X1857857Y-895714D01*
X1900714Y-895714D01*
X1929286Y-910000D01*
X1943571Y-938571D01*
X1943571Y-1095714D01*
X2529286Y-781428D02*
X2272143Y-1167143D01*
X2915000Y-795714D02*
X2943571Y-795714D01*
X2972143Y-810000D01*
X2986428Y-824286D01*
X3000714Y-852857D01*
X3015000Y-910000D01*
X3015000Y-981428D01*
X3000714Y-1038571D01*
X2986428Y-1067143D01*
X2972143Y-1081429D01*
X2943571Y-1095714D01*
X2915000Y-1095714D01*
X2886428Y-1081429D01*
X2872143Y-1067143D01*
X2857857Y-1038571D01*
X2843571Y-981428D01*
X2843571Y-910000D01*
X2857857Y-852857D01*
X2872143Y-824286D01*
X2886428Y-810000D01*
X2915000Y-795714D01*
X3143571Y-1067143D02*
X3157857Y-1081429D01*
X3143571Y-1095714D01*
X3129286Y-1081429D01*
X3143571Y-1067143D01*
X3143571Y-1095714D01*
X3343571Y-795714D02*
X3372143Y-795714D01*
X3400714Y-810000D01*
X3415000Y-824286D01*
X3429286Y-852857D01*
X3443571Y-910000D01*
X3443571Y-981428D01*
X3429286Y-1038571D01*
X3415000Y-1067143D01*
X3400714Y-1081429D01*
X3372143Y-1095714D01*
X3343571Y-1095714D01*
X3315000Y-1081429D01*
X3300714Y-1067143D01*
X3286428Y-1038571D01*
X3272143Y-981428D01*
X3272143Y-910000D01*
X3286428Y-852857D01*
X3300714Y-824286D01*
X3315000Y-810000D01*
X3343571Y-795714D01*
X3729286Y-1095714D02*
X3557857Y-1095714D01*
X3643571Y-1095714D02*
X3643571Y-795714D01*
X3615000Y-838571D01*
X3586428Y-867143D01*
X3557857Y-881428D01*
X3986428Y-795714D02*
X3929286Y-795714D01*
X3900714Y-810000D01*
X3886428Y-824286D01*
X3857857Y-867143D01*
X3843571Y-924286D01*
X3843571Y-1038571D01*
X3857857Y-1067143D01*
X3872143Y-1081429D01*
X3900714Y-1095714D01*
X3957857Y-1095714D01*
X3986428Y-1081429D01*
X4000714Y-1067143D01*
X4015000Y-1038571D01*
X4015000Y-967143D01*
X4000714Y-938571D01*
X3986428Y-924286D01*
X3957857Y-910000D01*
X3900714Y-910000D01*
X3872143Y-924286D01*
X3857857Y-938571D01*
X3843571Y-967143D01*
X4129286Y-795714D02*
X4129286Y-852857D01*
X4243571Y-795714D02*
X4243571Y-852857D01*
X4686429Y-1210000D02*
X4672143Y-1195714D01*
X4643571Y-1152857D01*
X4629286Y-1124286D01*
X4615000Y-1081429D01*
X4600714Y-1010000D01*
X4600714Y-952857D01*
X4615000Y-881428D01*
X4629286Y-838571D01*
X4643571Y-810000D01*
X4672143Y-767143D01*
X4686429Y-752857D01*
X4772143Y-795714D02*
X4972143Y-795714D01*
X4843571Y-1095714D01*
X5215000Y-895714D02*
X5215000Y-1095714D01*
X5143571Y-781428D02*
X5072143Y-995714D01*
X5257857Y-995714D01*
X5600714Y-1095714D02*
X5600714Y-795714D01*
X5729286Y-1095714D02*
X5729286Y-938571D01*
X5715000Y-910000D01*
X5686428Y-895714D01*
X5643571Y-895714D01*
X5615000Y-910000D01*
X5600714Y-924286D01*
X5915000Y-1095714D02*
X5886428Y-1081429D01*
X5872143Y-1067143D01*
X5857857Y-1038571D01*
X5857857Y-952857D01*
X5872143Y-924286D01*
X5886428Y-910000D01*
X5915000Y-895714D01*
X5957857Y-895714D01*
X5986428Y-910000D01*
X6000714Y-924286D01*
X6015000Y-952857D01*
X6015000Y-1038571D01*
X6000714Y-1067143D01*
X5986428Y-1081429D01*
X5957857Y-1095714D01*
X5915000Y-1095714D01*
X6186428Y-1095714D02*
X6157857Y-1081429D01*
X6143571Y-1052857D01*
X6143571Y-795714D01*
X6415000Y-1081429D02*
X6386428Y-1095714D01*
X6329286Y-1095714D01*
X6300714Y-1081429D01*
X6286428Y-1052857D01*
X6286428Y-938571D01*
X6300714Y-910000D01*
X6329286Y-895714D01*
X6386428Y-895714D01*
X6415000Y-910000D01*
X6429286Y-938571D01*
X6429286Y-967143D01*
X6286428Y-995714D01*
X6543571Y-1081429D02*
X6572143Y-1095714D01*
X6629286Y-1095714D01*
X6657857Y-1081429D01*
X6672143Y-1052857D01*
X6672143Y-1038571D01*
X6657857Y-1010000D01*
X6629286Y-995714D01*
X6586428Y-995714D01*
X6557857Y-981428D01*
X6543571Y-952857D01*
X6543571Y-938571D01*
X6557857Y-910000D01*
X6586428Y-895714D01*
X6629286Y-895714D01*
X6657857Y-910000D01*
X6772143Y-1210000D02*
X6786428Y-1195714D01*
X6815000Y-1152857D01*
X6829286Y-1124286D01*
X6843571Y-1081429D01*
X6857857Y-1010000D01*
X6857857Y-952857D01*
X6843571Y-881428D01*
X6829286Y-838571D01*
X6815000Y-810000D01*
X6786428Y-767143D01*
X6772143Y-752857D01*
X0Y-1356000D02*
G75*
G03*
X0Y-1356000I-22500J0D01*
G01*
X343571Y-1191714D02*
X372143Y-1191714D01*
X400714Y-1206000D01*
X415000Y-1220286D01*
X429286Y-1248857D01*
X443571Y-1306000D01*
X443571Y-1377429D01*
X429286Y-1434571D01*
X415000Y-1463143D01*
X400714Y-1477428D01*
X372143Y-1491714D01*
X343571Y-1491714D01*
X315000Y-1477428D01*
X300714Y-1463143D01*
X286429Y-1434571D01*
X272143Y-1377429D01*
X272143Y-1306000D01*
X286429Y-1248857D01*
X300714Y-1220286D01*
X315000Y-1206000D01*
X343571Y-1191714D01*
X572143Y-1463143D02*
X586429Y-1477428D01*
X572143Y-1491714D01*
X557857Y-1477428D01*
X572143Y-1463143D01*
X572143Y-1491714D01*
X843571Y-1291714D02*
X843571Y-1491714D01*
X772143Y-1177429D02*
X700714Y-1391714D01*
X886428Y-1391714D01*
X1143571Y-1191714D02*
X1000714Y-1191714D01*
X986428Y-1334571D01*
X1000714Y-1320286D01*
X1029286Y-1306000D01*
X1100714Y-1306000D01*
X1129286Y-1320286D01*
X1143571Y-1334571D01*
X1157857Y-1363143D01*
X1157857Y-1434571D01*
X1143571Y-1463143D01*
X1129286Y-1477428D01*
X1100714Y-1491714D01*
X1029286Y-1491714D01*
X1000714Y-1477428D01*
X986428Y-1463143D01*
X1286429Y-1491714D02*
X1286429Y-1291714D01*
X1286429Y-1320286D02*
X1300714Y-1306000D01*
X1329286Y-1291714D01*
X1372143Y-1291714D01*
X1400714Y-1306000D01*
X1415000Y-1334571D01*
X1415000Y-1491714D01*
X1415000Y-1334571D02*
X1429286Y-1306000D01*
X1457857Y-1291714D01*
X1500714Y-1291714D01*
X1529286Y-1306000D01*
X1543571Y-1334571D01*
X1543571Y-1491714D01*
X1686428Y-1491714D02*
X1686428Y-1291714D01*
X1686428Y-1320286D02*
X1700714Y-1306000D01*
X1729286Y-1291714D01*
X1772143Y-1291714D01*
X1800714Y-1306000D01*
X1815000Y-1334571D01*
X1815000Y-1491714D01*
X1815000Y-1334571D02*
X1829286Y-1306000D01*
X1857857Y-1291714D01*
X1900714Y-1291714D01*
X1929286Y-1306000D01*
X1943571Y-1334571D01*
X1943571Y-1491714D01*
X2529286Y-1177429D02*
X2272143Y-1563143D01*
X2915000Y-1191714D02*
X2943571Y-1191714D01*
X2972143Y-1206000D01*
X2986428Y-1220286D01*
X3000714Y-1248857D01*
X3015000Y-1306000D01*
X3015000Y-1377429D01*
X3000714Y-1434571D01*
X2986428Y-1463143D01*
X2972143Y-1477428D01*
X2943571Y-1491714D01*
X2915000Y-1491714D01*
X2886428Y-1477428D01*
X2872143Y-1463143D01*
X2857857Y-1434571D01*
X2843571Y-1377429D01*
X2843571Y-1306000D01*
X2857857Y-1248857D01*
X2872143Y-1220286D01*
X2886428Y-1206000D01*
X2915000Y-1191714D01*
X3143571Y-1463143D02*
X3157857Y-1477428D01*
X3143571Y-1491714D01*
X3129286Y-1477428D01*
X3143571Y-1463143D01*
X3143571Y-1491714D01*
X3343571Y-1191714D02*
X3372143Y-1191714D01*
X3400714Y-1206000D01*
X3415000Y-1220286D01*
X3429286Y-1248857D01*
X3443571Y-1306000D01*
X3443571Y-1377429D01*
X3429286Y-1434571D01*
X3415000Y-1463143D01*
X3400714Y-1477428D01*
X3372143Y-1491714D01*
X3343571Y-1491714D01*
X3315000Y-1477428D01*
X3300714Y-1463143D01*
X3286428Y-1434571D01*
X3272143Y-1377429D01*
X3272143Y-1306000D01*
X3286428Y-1248857D01*
X3300714Y-1220286D01*
X3315000Y-1206000D01*
X3343571Y-1191714D01*
X3729286Y-1491714D02*
X3557857Y-1491714D01*
X3643571Y-1491714D02*
X3643571Y-1191714D01*
X3615000Y-1234571D01*
X3586428Y-1263143D01*
X3557857Y-1277429D01*
X3900714Y-1320286D02*
X3872143Y-1306000D01*
X3857857Y-1291714D01*
X3843571Y-1263143D01*
X3843571Y-1248857D01*
X3857857Y-1220286D01*
X3872143Y-1206000D01*
X3900714Y-1191714D01*
X3957857Y-1191714D01*
X3986428Y-1206000D01*
X4000714Y-1220286D01*
X4015000Y-1248857D01*
X4015000Y-1263143D01*
X4000714Y-1291714D01*
X3986428Y-1306000D01*
X3957857Y-1320286D01*
X3900714Y-1320286D01*
X3872143Y-1334571D01*
X3857857Y-1348857D01*
X3843571Y-1377429D01*
X3843571Y-1434571D01*
X3857857Y-1463143D01*
X3872143Y-1477428D01*
X3900714Y-1491714D01*
X3957857Y-1491714D01*
X3986428Y-1477428D01*
X4000714Y-1463143D01*
X4015000Y-1434571D01*
X4015000Y-1377429D01*
X4000714Y-1348857D01*
X3986428Y-1334571D01*
X3957857Y-1320286D01*
X4129286Y-1191714D02*
X4129286Y-1248857D01*
X4243571Y-1191714D02*
X4243571Y-1248857D01*
X4686429Y-1606000D02*
X4672143Y-1591714D01*
X4643571Y-1548857D01*
X4629286Y-1520286D01*
X4615000Y-1477428D01*
X4600714Y-1406000D01*
X4600714Y-1348857D01*
X4615000Y-1277429D01*
X4629286Y-1234571D01*
X4643571Y-1206000D01*
X4672143Y-1163143D01*
X4686429Y-1148857D01*
X4857857Y-1191714D02*
X4886429Y-1191714D01*
X4915000Y-1206000D01*
X4929286Y-1220286D01*
X4943571Y-1248857D01*
X4957857Y-1306000D01*
X4957857Y-1377429D01*
X4943571Y-1434571D01*
X4929286Y-1463143D01*
X4915000Y-1477428D01*
X4886429Y-1491714D01*
X4857857Y-1491714D01*
X4829286Y-1477428D01*
X4815000Y-1463143D01*
X4800714Y-1434571D01*
X4786429Y-1377429D01*
X4786429Y-1306000D01*
X4800714Y-1248857D01*
X4815000Y-1220286D01*
X4829286Y-1206000D01*
X4857857Y-1191714D01*
X5315000Y-1491714D02*
X5315000Y-1191714D01*
X5443571Y-1491714D02*
X5443571Y-1334571D01*
X5429286Y-1306000D01*
X5400714Y-1291714D01*
X5357857Y-1291714D01*
X5329286Y-1306000D01*
X5315000Y-1320286D01*
X5629286Y-1491714D02*
X5600714Y-1477428D01*
X5586429Y-1463143D01*
X5572143Y-1434571D01*
X5572143Y-1348857D01*
X5586429Y-1320286D01*
X5600714Y-1306000D01*
X5629286Y-1291714D01*
X5672143Y-1291714D01*
X5700714Y-1306000D01*
X5715000Y-1320286D01*
X5729286Y-1348857D01*
X5729286Y-1434571D01*
X5715000Y-1463143D01*
X5700714Y-1477428D01*
X5672143Y-1491714D01*
X5629286Y-1491714D01*
X5900714Y-1491714D02*
X5872143Y-1477428D01*
X5857857Y-1448857D01*
X5857857Y-1191714D01*
X6129286Y-1477428D02*
X6100714Y-1491714D01*
X6043571Y-1491714D01*
X6015000Y-1477428D01*
X6000714Y-1448857D01*
X6000714Y-1334571D01*
X6015000Y-1306000D01*
X6043571Y-1291714D01*
X6100714Y-1291714D01*
X6129286Y-1306000D01*
X6143571Y-1334571D01*
X6143571Y-1363143D01*
X6000714Y-1391714D01*
X6257857Y-1477428D02*
X6286428Y-1491714D01*
X6343571Y-1491714D01*
X6372143Y-1477428D01*
X6386428Y-1448857D01*
X6386428Y-1434571D01*
X6372143Y-1406000D01*
X6343571Y-1391714D01*
X6300714Y-1391714D01*
X6272143Y-1377429D01*
X6257857Y-1348857D01*
X6257857Y-1334571D01*
X6272143Y-1306000D01*
X6300714Y-1291714D01*
X6343571Y-1291714D01*
X6372143Y-1306000D01*
X6743571Y-1377429D02*
X6972143Y-1377429D01*
X6857857Y-1491714D02*
X6857857Y-1263143D01*
X7329286Y-1220286D02*
X7343571Y-1206000D01*
X7372143Y-1191714D01*
X7443571Y-1191714D01*
X7472143Y-1206000D01*
X7486428Y-1220286D01*
X7500714Y-1248857D01*
X7500714Y-1277429D01*
X7486428Y-1320286D01*
X7315000Y-1491714D01*
X7500714Y-1491714D01*
X7843571Y-1477428D02*
X7872143Y-1491714D01*
X7929286Y-1491714D01*
X7957857Y-1477428D01*
X7972143Y-1448857D01*
X7972143Y-1434571D01*
X7957857Y-1406000D01*
X7929286Y-1391714D01*
X7886428Y-1391714D01*
X7857857Y-1377429D01*
X7843571Y-1348857D01*
X7843571Y-1334571D01*
X7857857Y-1306000D01*
X7886428Y-1291714D01*
X7929286Y-1291714D01*
X7957857Y-1306000D01*
X8143571Y-1491714D02*
X8115000Y-1477428D01*
X8100714Y-1448857D01*
X8100714Y-1191714D01*
X8300714Y-1491714D02*
X8272143Y-1477428D01*
X8257857Y-1463143D01*
X8243571Y-1434571D01*
X8243571Y-1348857D01*
X8257857Y-1320286D01*
X8272143Y-1306000D01*
X8300714Y-1291714D01*
X8343571Y-1291714D01*
X8372143Y-1306000D01*
X8386428Y-1320286D01*
X8400714Y-1348857D01*
X8400714Y-1434571D01*
X8386428Y-1463143D01*
X8372143Y-1477428D01*
X8343571Y-1491714D01*
X8300714Y-1491714D01*
X8486429Y-1291714D02*
X8600714Y-1291714D01*
X8529286Y-1191714D02*
X8529286Y-1448857D01*
X8543571Y-1477428D01*
X8572143Y-1491714D01*
X8600714Y-1491714D01*
X8686429Y-1477428D02*
X8715000Y-1491714D01*
X8772143Y-1491714D01*
X8800714Y-1477428D01*
X8815000Y-1448857D01*
X8815000Y-1434571D01*
X8800714Y-1406000D01*
X8772143Y-1391714D01*
X8729286Y-1391714D01*
X8700714Y-1377429D01*
X8686429Y-1348857D01*
X8686429Y-1334571D01*
X8700714Y-1306000D01*
X8729286Y-1291714D01*
X8772143Y-1291714D01*
X8800714Y-1306000D01*
X8915000Y-1606000D02*
X8929286Y-1591714D01*
X8957857Y-1548857D01*
X8972143Y-1520286D01*
X8986429Y-1477428D01*
X9000714Y-1406000D01*
X9000714Y-1348857D01*
X8986429Y-1277429D01*
X8972143Y-1234571D01*
X8957857Y-1206000D01*
X8929286Y-1163143D01*
X8915000Y-1148857D01*
X-85000Y-1667000D02*
X-85000Y-1837000D01*
X-170000Y-1752000D02*
X0Y-1752000D01*
X443571Y-1887714D02*
X272143Y-1887714D01*
X357857Y-1887714D02*
X357857Y-1587714D01*
X329286Y-1630571D01*
X300714Y-1659143D01*
X272143Y-1673428D01*
X572143Y-1859143D02*
X586429Y-1873428D01*
X572143Y-1887714D01*
X557857Y-1873428D01*
X572143Y-1859143D01*
X572143Y-1887714D01*
X686429Y-1587714D02*
X886428Y-1587714D01*
X757857Y-1887714D01*
X1057857Y-1587714D02*
X1086429Y-1587714D01*
X1115000Y-1602000D01*
X1129286Y-1616286D01*
X1143571Y-1644857D01*
X1157857Y-1702000D01*
X1157857Y-1773428D01*
X1143571Y-1830571D01*
X1129286Y-1859143D01*
X1115000Y-1873428D01*
X1086429Y-1887714D01*
X1057857Y-1887714D01*
X1029286Y-1873428D01*
X1015000Y-1859143D01*
X1000714Y-1830571D01*
X986428Y-1773428D01*
X986428Y-1702000D01*
X1000714Y-1644857D01*
X1015000Y-1616286D01*
X1029286Y-1602000D01*
X1057857Y-1587714D01*
X1286429Y-1887714D02*
X1286429Y-1687714D01*
X1286429Y-1716286D02*
X1300714Y-1702000D01*
X1329286Y-1687714D01*
X1372143Y-1687714D01*
X1400714Y-1702000D01*
X1415000Y-1730571D01*
X1415000Y-1887714D01*
X1415000Y-1730571D02*
X1429286Y-1702000D01*
X1457857Y-1687714D01*
X1500714Y-1687714D01*
X1529286Y-1702000D01*
X1543571Y-1730571D01*
X1543571Y-1887714D01*
X1686428Y-1887714D02*
X1686428Y-1687714D01*
X1686428Y-1716286D02*
X1700714Y-1702000D01*
X1729286Y-1687714D01*
X1772143Y-1687714D01*
X1800714Y-1702000D01*
X1815000Y-1730571D01*
X1815000Y-1887714D01*
X1815000Y-1730571D02*
X1829286Y-1702000D01*
X1857857Y-1687714D01*
X1900714Y-1687714D01*
X1929286Y-1702000D01*
X1943571Y-1730571D01*
X1943571Y-1887714D01*
X2529286Y-1573428D02*
X2272143Y-1959143D01*
X2915000Y-1587714D02*
X2943571Y-1587714D01*
X2972143Y-1602000D01*
X2986428Y-1616286D01*
X3000714Y-1644857D01*
X3015000Y-1702000D01*
X3015000Y-1773428D01*
X3000714Y-1830571D01*
X2986428Y-1859143D01*
X2972143Y-1873428D01*
X2943571Y-1887714D01*
X2915000Y-1887714D01*
X2886428Y-1873428D01*
X2872143Y-1859143D01*
X2857857Y-1830571D01*
X2843571Y-1773428D01*
X2843571Y-1702000D01*
X2857857Y-1644857D01*
X2872143Y-1616286D01*
X2886428Y-1602000D01*
X2915000Y-1587714D01*
X3143571Y-1859143D02*
X3157857Y-1873428D01*
X3143571Y-1887714D01*
X3129286Y-1873428D01*
X3143571Y-1859143D01*
X3143571Y-1887714D01*
X3343571Y-1587714D02*
X3372143Y-1587714D01*
X3400714Y-1602000D01*
X3415000Y-1616286D01*
X3429286Y-1644857D01*
X3443571Y-1702000D01*
X3443571Y-1773428D01*
X3429286Y-1830571D01*
X3415000Y-1859143D01*
X3400714Y-1873428D01*
X3372143Y-1887714D01*
X3343571Y-1887714D01*
X3315000Y-1873428D01*
X3300714Y-1859143D01*
X3286428Y-1830571D01*
X3272143Y-1773428D01*
X3272143Y-1702000D01*
X3286428Y-1644857D01*
X3300714Y-1616286D01*
X3315000Y-1602000D01*
X3343571Y-1587714D01*
X3700714Y-1587714D02*
X3643571Y-1587714D01*
X3615000Y-1602000D01*
X3600714Y-1616286D01*
X3572143Y-1659143D01*
X3557857Y-1716286D01*
X3557857Y-1830571D01*
X3572143Y-1859143D01*
X3586428Y-1873428D01*
X3615000Y-1887714D01*
X3672143Y-1887714D01*
X3700714Y-1873428D01*
X3715000Y-1859143D01*
X3729286Y-1830571D01*
X3729286Y-1759143D01*
X3715000Y-1730571D01*
X3700714Y-1716286D01*
X3672143Y-1702000D01*
X3615000Y-1702000D01*
X3586428Y-1716286D01*
X3572143Y-1730571D01*
X3557857Y-1759143D01*
X3829286Y-1587714D02*
X4029286Y-1587714D01*
X3900714Y-1887714D01*
X4129286Y-1587714D02*
X4129286Y-1644857D01*
X4243571Y-1587714D02*
X4243571Y-1644857D01*
X4686429Y-2002000D02*
X4672143Y-1987714D01*
X4643571Y-1944857D01*
X4629286Y-1916286D01*
X4615000Y-1873428D01*
X4600714Y-1802000D01*
X4600714Y-1744857D01*
X4615000Y-1673428D01*
X4629286Y-1630571D01*
X4643571Y-1602000D01*
X4672143Y-1559143D01*
X4686429Y-1544857D01*
X4786429Y-1616286D02*
X4800714Y-1602000D01*
X4829286Y-1587714D01*
X4900714Y-1587714D01*
X4929286Y-1602000D01*
X4943571Y-1616286D01*
X4957857Y-1644857D01*
X4957857Y-1673428D01*
X4943571Y-1716286D01*
X4772143Y-1887714D01*
X4957857Y-1887714D01*
X5315000Y-1887714D02*
X5315000Y-1587714D01*
X5443571Y-1887714D02*
X5443571Y-1730571D01*
X5429286Y-1702000D01*
X5400714Y-1687714D01*
X5357857Y-1687714D01*
X5329286Y-1702000D01*
X5315000Y-1716286D01*
X5629286Y-1887714D02*
X5600714Y-1873428D01*
X5586429Y-1859143D01*
X5572143Y-1830571D01*
X5572143Y-1744857D01*
X5586429Y-1716286D01*
X5600714Y-1702000D01*
X5629286Y-1687714D01*
X5672143Y-1687714D01*
X5700714Y-1702000D01*
X5715000Y-1716286D01*
X5729286Y-1744857D01*
X5729286Y-1830571D01*
X5715000Y-1859143D01*
X5700714Y-1873428D01*
X5672143Y-1887714D01*
X5629286Y-1887714D01*
X5900714Y-1887714D02*
X5872143Y-1873428D01*
X5857857Y-1844857D01*
X5857857Y-1587714D01*
X6129286Y-1873428D02*
X6100714Y-1887714D01*
X6043571Y-1887714D01*
X6015000Y-1873428D01*
X6000714Y-1844857D01*
X6000714Y-1730571D01*
X6015000Y-1702000D01*
X6043571Y-1687714D01*
X6100714Y-1687714D01*
X6129286Y-1702000D01*
X6143571Y-1730571D01*
X6143571Y-1759143D01*
X6000714Y-1787714D01*
X6257857Y-1873428D02*
X6286428Y-1887714D01*
X6343571Y-1887714D01*
X6372143Y-1873428D01*
X6386428Y-1844857D01*
X6386428Y-1830571D01*
X6372143Y-1802000D01*
X6343571Y-1787714D01*
X6300714Y-1787714D01*
X6272143Y-1773428D01*
X6257857Y-1744857D01*
X6257857Y-1730571D01*
X6272143Y-1702000D01*
X6300714Y-1687714D01*
X6343571Y-1687714D01*
X6372143Y-1702000D01*
X6486428Y-2002000D02*
X6500714Y-1987714D01*
X6529286Y-1944857D01*
X6543571Y-1916286D01*
X6557857Y-1873428D01*
X6572143Y-1802000D01*
X6572143Y-1744857D01*
X6557857Y-1673428D01*
X6543571Y-1630571D01*
X6529286Y-1602000D01*
X6500714Y-1559143D01*
X6486428Y-1544857D01*
M02*
