M48
; DRILL file {KiCad (5.1.6)-1} date 08/10/21 23:20:09
; FORMAT={-:-/ absolute / metric / decimal}
; #@! TF.CreationDate,2021-08-10T23:20:09-03:00
; #@! TF.GenerationSoftware,Kicad,Pcbnew,(5.1.6)-1
; #@! TF.FileFunction,Plated,1,2,PTH
FMAT,2
METRIC
T1C0.400
T2C0.450
T3C1.700
%
G90
G05
T1
X124.75Y-45.0
X124.75Y-49.5
X125.0Y-88.25
X125.0Y-137.75
X125.75Y-68.5
X126.0Y-82.5
X126.0Y-129.0
X126.5Y-100.25
X127.0Y-108.75
X127.25Y-56.25
X127.25Y-86.25
X128.5Y-49.5
X128.5Y-114.0
X129.75Y-90.25
X129.75Y-123.75
X130.25Y-114.0
X131.25Y-61.0
X132.0Y-78.0
X132.0Y-81.25
X132.0Y-128.75
X132.25Y-56.25
X132.25Y-59.25
X132.25Y-62.25
X132.75Y-67.25
X132.75Y-86.0
X133.0Y-46.5
X133.5Y-127.25
X133.75Y-53.5
X133.75Y-97.75
X134.5Y-42.0
X134.5Y-77.75
X134.75Y-70.25
X135.237Y-89.487
X135.25Y-64.5
X135.25Y-106.75
X135.5Y-47.0
X135.75Y-65.75
X135.75Y-83.5
X136.75Y-42.0
X136.75Y-67.25
X137.0Y-47.0
X137.0Y-78.75
X137.0Y-81.25
X137.0Y-87.5
X137.0Y-98.25
X137.25Y-92.0
X137.25Y-112.5
X137.25Y-114.75
X137.5Y-89.25
X137.5Y-109.0
X138.25Y-121.0
X138.5Y-87.75
X139.0Y-42.0
X139.75Y-65.5
X140.25Y-83.25
X140.75Y-67.75
X141.0Y-98.25
X141.0Y-105.5
X141.0Y-112.5
X141.0Y-132.75
X141.5Y-72.0
X141.5Y-73.75
X141.5Y-75.5
X141.5Y-77.25
X142.0Y-63.75
X142.0Y-131.25
X142.25Y-137.0
X142.75Y-103.25
X143.5Y-51.25
X144.0Y-93.5
X144.25Y-90.0
X144.5Y-69.0
X144.5Y-87.25
X144.5Y-92.0
T3
X134.5Y-49.5
X134.5Y-122.4
T2
G00X124.965Y-43.2
M15
G01X124.965Y-42.4
M16
G05
G00X132.115Y-42.4
M15
G01X132.115Y-43.2
M16
G05
T0
M30
