G04 #@! TF.GenerationSoftware,KiCad,Pcbnew,(5.1.6)-1*
G04 #@! TF.CreationDate,2021-08-10T23:40:34-03:00*
G04 #@! TF.ProjectId,TPH_Logger,5450485f-4c6f-4676-9765-722e6b696361,rev?*
G04 #@! TF.SameCoordinates,Original*
G04 #@! TF.FileFunction,Copper,L2,Bot*
G04 #@! TF.FilePolarity,Positive*
%FSLAX46Y46*%
G04 Gerber Fmt 4.6, Leading zero omitted, Abs format (unit mm)*
G04 Created by KiCad (PCBNEW (5.1.6)-1) date 2021-08-10 23:40:34*
%MOMM*%
%LPD*%
G01*
G04 APERTURE LIST*
G04 #@! TA.AperFunction,SMDPad,CuDef*
%ADD10R,1.150000X1.450000*%
G04 #@! TD*
G04 #@! TA.AperFunction,ComponentPad*
%ADD11O,1.050000X1.900000*%
G04 #@! TD*
G04 #@! TA.AperFunction,SMDPad,CuDef*
%ADD12R,1.750000X1.900000*%
G04 #@! TD*
G04 #@! TA.AperFunction,SMDPad,CuDef*
%ADD13R,0.400000X1.400000*%
G04 #@! TD*
G04 #@! TA.AperFunction,SMDPad,CuDef*
%ADD14R,1.700000X4.300000*%
G04 #@! TD*
G04 #@! TA.AperFunction,ComponentPad*
%ADD15C,3.000000*%
G04 #@! TD*
G04 #@! TA.AperFunction,ComponentPad*
%ADD16R,3.000000X3.000000*%
G04 #@! TD*
G04 #@! TA.AperFunction,ViaPad*
%ADD17C,0.800000*%
G04 #@! TD*
G04 #@! TA.AperFunction,Conductor*
%ADD18C,0.250000*%
G04 #@! TD*
G04 #@! TA.AperFunction,Conductor*
%ADD19C,1.000000*%
G04 #@! TD*
G04 #@! TA.AperFunction,Conductor*
%ADD20C,0.500000*%
G04 #@! TD*
G04 #@! TA.AperFunction,Conductor*
%ADD21C,0.254000*%
G04 #@! TD*
G04 APERTURE END LIST*
G04 #@! TA.AperFunction,SMDPad,CuDef*
G36*
G01*
X137200001Y-43775000D02*
X136299999Y-43775000D01*
G75*
G02*
X136050000Y-43525001I0J249999D01*
G01*
X136050000Y-42874999D01*
G75*
G02*
X136299999Y-42625000I249999J0D01*
G01*
X137200001Y-42625000D01*
G75*
G02*
X137450000Y-42874999I0J-249999D01*
G01*
X137450000Y-43525001D01*
G75*
G02*
X137200001Y-43775000I-249999J0D01*
G01*
G37*
G04 #@! TD.AperFunction*
G04 #@! TA.AperFunction,SMDPad,CuDef*
G36*
G01*
X137200001Y-45825000D02*
X136299999Y-45825000D01*
G75*
G02*
X136050000Y-45575001I0J249999D01*
G01*
X136050000Y-44924999D01*
G75*
G02*
X136299999Y-44675000I249999J0D01*
G01*
X137200001Y-44675000D01*
G75*
G02*
X137450000Y-44924999I0J-249999D01*
G01*
X137450000Y-45575001D01*
G75*
G02*
X137200001Y-45825000I-249999J0D01*
G01*
G37*
G04 #@! TD.AperFunction*
G04 #@! TA.AperFunction,SMDPad,CuDef*
G36*
G01*
X134950001Y-45850000D02*
X134049999Y-45850000D01*
G75*
G02*
X133800000Y-45600001I0J249999D01*
G01*
X133800000Y-44949999D01*
G75*
G02*
X134049999Y-44700000I249999J0D01*
G01*
X134950001Y-44700000D01*
G75*
G02*
X135200000Y-44949999I0J-249999D01*
G01*
X135200000Y-45600001D01*
G75*
G02*
X134950001Y-45850000I-249999J0D01*
G01*
G37*
G04 #@! TD.AperFunction*
G04 #@! TA.AperFunction,SMDPad,CuDef*
G36*
G01*
X134950001Y-43800000D02*
X134049999Y-43800000D01*
G75*
G02*
X133800000Y-43550001I0J249999D01*
G01*
X133800000Y-42899999D01*
G75*
G02*
X134049999Y-42650000I249999J0D01*
G01*
X134950001Y-42650000D01*
G75*
G02*
X135200000Y-42899999I0J-249999D01*
G01*
X135200000Y-43550001D01*
G75*
G02*
X134950001Y-43800000I-249999J0D01*
G01*
G37*
G04 #@! TD.AperFunction*
G04 #@! TA.AperFunction,SMDPad,CuDef*
G36*
G01*
X125525000Y-126049999D02*
X125525000Y-126950001D01*
G75*
G02*
X125275001Y-127200000I-249999J0D01*
G01*
X124624999Y-127200000D01*
G75*
G02*
X124375000Y-126950001I0J249999D01*
G01*
X124375000Y-126049999D01*
G75*
G02*
X124624999Y-125800000I249999J0D01*
G01*
X125275001Y-125800000D01*
G75*
G02*
X125525000Y-126049999I0J-249999D01*
G01*
G37*
G04 #@! TD.AperFunction*
G04 #@! TA.AperFunction,SMDPad,CuDef*
G36*
G01*
X127575000Y-126049999D02*
X127575000Y-126950001D01*
G75*
G02*
X127325001Y-127200000I-249999J0D01*
G01*
X126674999Y-127200000D01*
G75*
G02*
X126425000Y-126950001I0J249999D01*
G01*
X126425000Y-126049999D01*
G75*
G02*
X126674999Y-125800000I249999J0D01*
G01*
X127325001Y-125800000D01*
G75*
G02*
X127575000Y-126049999I0J-249999D01*
G01*
G37*
G04 #@! TD.AperFunction*
D10*
X126220000Y-45030000D03*
X130860000Y-45030000D03*
D11*
X132115000Y-42800000D03*
X124965000Y-42800000D03*
D12*
X127415000Y-42800000D03*
D13*
X128540000Y-45450000D03*
X129190000Y-45450000D03*
X129840000Y-45450000D03*
X127240000Y-45450000D03*
X127890000Y-45450000D03*
D12*
X129665000Y-42800000D03*
D14*
X133670000Y-135500000D03*
X131130000Y-135500000D03*
X136210000Y-135500000D03*
X138750000Y-135500000D03*
D15*
X134500000Y-49500000D03*
D16*
X134500000Y-122400000D03*
G04 #@! TA.AperFunction,SMDPad,CuDef*
G36*
G01*
X139450001Y-45825000D02*
X138549999Y-45825000D01*
G75*
G02*
X138300000Y-45575001I0J249999D01*
G01*
X138300000Y-44924999D01*
G75*
G02*
X138549999Y-44675000I249999J0D01*
G01*
X139450001Y-44675000D01*
G75*
G02*
X139700000Y-44924999I0J-249999D01*
G01*
X139700000Y-45575001D01*
G75*
G02*
X139450001Y-45825000I-249999J0D01*
G01*
G37*
G04 #@! TD.AperFunction*
G04 #@! TA.AperFunction,SMDPad,CuDef*
G36*
G01*
X139450001Y-43775000D02*
X138549999Y-43775000D01*
G75*
G02*
X138300000Y-43525001I0J249999D01*
G01*
X138300000Y-42874999D01*
G75*
G02*
X138549999Y-42625000I249999J0D01*
G01*
X139450001Y-42625000D01*
G75*
G02*
X139700000Y-42874999I0J-249999D01*
G01*
X139700000Y-43525001D01*
G75*
G02*
X139450001Y-43775000I-249999J0D01*
G01*
G37*
G04 #@! TD.AperFunction*
D17*
X125750000Y-68500000D03*
X126000000Y-82500000D03*
X137000000Y-81250000D03*
X137000000Y-78750000D03*
X141500000Y-73750000D03*
X132250000Y-56250000D03*
X144250000Y-90000000D03*
X141500000Y-72000000D03*
X132250000Y-59250000D03*
X144500000Y-87250000D03*
X140750000Y-67750000D03*
X139750000Y-65500000D03*
X141500000Y-75500000D03*
X131250000Y-61000000D03*
X144500000Y-92000000D03*
X141500000Y-77250000D03*
X132250000Y-62250000D03*
X144000000Y-93500000D03*
X137250000Y-92000000D03*
X137000000Y-98250000D03*
X132000000Y-78000000D03*
X132000000Y-81250000D03*
X142750000Y-103250000D03*
X137000000Y-87500000D03*
X141000000Y-105500000D03*
X138500000Y-87750000D03*
X135250000Y-106750000D03*
X135237347Y-89487347D03*
X124750000Y-45000000D03*
X128500000Y-114000000D03*
X127250000Y-56250000D03*
X133000000Y-46500000D03*
X133500000Y-127250000D03*
X137250000Y-114750000D03*
X127250000Y-86250000D03*
X134750000Y-70250000D03*
X129750000Y-90250000D03*
X134500000Y-42000000D03*
X135250000Y-64500000D03*
X135500000Y-47000000D03*
X142000000Y-131250000D03*
X135750000Y-65750000D03*
X137000000Y-47000000D03*
X141000000Y-132750000D03*
X136750000Y-42000000D03*
X124750000Y-49500000D03*
X125000000Y-137750000D03*
X132750000Y-86000000D03*
X135750000Y-83500000D03*
X144500000Y-69000000D03*
X128500000Y-49500000D03*
X141000000Y-98250000D03*
X126500000Y-100250000D03*
X142250000Y-137000000D03*
X138250000Y-121000000D03*
X132000000Y-128750000D03*
X125000000Y-88250000D03*
X137500000Y-89250000D03*
X137500000Y-109000000D03*
X133750000Y-97750000D03*
X142000000Y-63750000D03*
X132750000Y-67250000D03*
X143500000Y-51250000D03*
X133750000Y-53500000D03*
X134500000Y-77750000D03*
X126000000Y-129000000D03*
X127000000Y-108750000D03*
X139000000Y-42000000D03*
X140250000Y-83250000D03*
X136750000Y-67250000D03*
X129750000Y-123750000D03*
X130250000Y-114000000D03*
X141000000Y-112500000D03*
X137250000Y-112500000D03*
D18*
X125750000Y-82250000D02*
X126000000Y-82500000D01*
X125750000Y-68500000D02*
X125750000Y-82250000D01*
X137000000Y-81250000D02*
X137000000Y-78750000D01*
X139050000Y-136460000D02*
X138750000Y-136760000D01*
X143699980Y-96372800D02*
X143699980Y-124550020D01*
X139050000Y-129200000D02*
X139050000Y-136460000D01*
X141099982Y-93772802D02*
X143699980Y-96372800D01*
X137000000Y-81500000D02*
X141099980Y-85599980D01*
X143699980Y-124550020D02*
X139050000Y-129200000D01*
X137000000Y-81250000D02*
X137000000Y-81500000D01*
X141099980Y-85599980D02*
X141099980Y-93699980D01*
X141099982Y-93699982D02*
X141099982Y-93772802D01*
X141099980Y-93699980D02*
X141099982Y-93699982D01*
X140500000Y-65500000D02*
X140500000Y-65176998D01*
X140500000Y-65500000D02*
X140500000Y-66500000D01*
X140500000Y-66500000D02*
X140500000Y-65176998D01*
X140500000Y-65000000D02*
X140500000Y-65176998D01*
X132250000Y-56250000D02*
X132250000Y-56750000D01*
X132250000Y-56750000D02*
X140500000Y-65000000D01*
X143450010Y-89200010D02*
X144250000Y-90000000D01*
X143450010Y-75700010D02*
X143450010Y-89200010D01*
X140000000Y-72250000D02*
X143450010Y-75700010D01*
X140000000Y-67000000D02*
X140000000Y-72250000D01*
X140500000Y-66500000D02*
X140000000Y-67000000D01*
X133500000Y-59250000D02*
X133000000Y-59250000D01*
X139750000Y-65500000D02*
X133500000Y-59250000D01*
X141250000Y-71750000D02*
X141500000Y-72000000D01*
X141000000Y-71500000D02*
X141500000Y-72000000D01*
X141000000Y-71500000D02*
X140750000Y-71250000D01*
X140750000Y-67750000D02*
X140750000Y-71250000D01*
X143950009Y-74450009D02*
X143750000Y-74250000D01*
X144500000Y-87250000D02*
X143950009Y-86700009D01*
X143750000Y-74250000D02*
X141500000Y-72000000D01*
X143950009Y-86700009D02*
X143950009Y-74450009D01*
X133000000Y-59250000D02*
X132250000Y-59250000D01*
X143000000Y-90500000D02*
X143000000Y-80000000D01*
X144500000Y-92000000D02*
X143000000Y-90500000D01*
X141500000Y-75500000D02*
X143000000Y-77000000D01*
X143000000Y-80000000D02*
X143000000Y-77000000D01*
X139625000Y-73625000D02*
X141750000Y-75750000D01*
X139500000Y-73500000D02*
X139625000Y-73625000D01*
X139500000Y-66323002D02*
X139500000Y-73500000D01*
X134176998Y-61000000D02*
X139500000Y-66323002D01*
X131500000Y-61000000D02*
X134176998Y-61000000D01*
X144000000Y-93500000D02*
X142549990Y-92049990D01*
X142549990Y-78299990D02*
X141500000Y-77250000D01*
X142549990Y-81799990D02*
X142549990Y-78299990D01*
X139049990Y-74799990D02*
X139250000Y-75000000D01*
X139250000Y-75000000D02*
X141500000Y-77250000D01*
X139049990Y-66509402D02*
X139049990Y-74799990D01*
X134790588Y-62250000D02*
X139049990Y-66509402D01*
X132250000Y-62250000D02*
X134790588Y-62250000D01*
X142549990Y-92049990D02*
X142549990Y-81799990D01*
X134250000Y-92000000D02*
X137250000Y-92000000D01*
X137000000Y-92250000D02*
X137250000Y-92000000D01*
X137000000Y-98250000D02*
X137000000Y-96250000D01*
X137000000Y-96750000D02*
X137000000Y-96250000D01*
X137000000Y-96250000D02*
X137000000Y-92250000D01*
X132000000Y-78000000D02*
X132000000Y-81250000D01*
X132000000Y-81250000D02*
X132000000Y-85000000D01*
X131500000Y-85500000D02*
X131500000Y-89250000D01*
X132000000Y-85000000D02*
X131500000Y-85500000D01*
X131500000Y-89250000D02*
X134250000Y-92000000D01*
X133670000Y-133943590D02*
X143249970Y-124363620D01*
X142750000Y-103250000D02*
X143249970Y-103749970D01*
X143249970Y-124363620D02*
X143249970Y-104749970D01*
X143249970Y-103749970D02*
X143249970Y-104749970D01*
X143249970Y-96559200D02*
X143249970Y-102750030D01*
X137750000Y-86750000D02*
X139000000Y-86750000D01*
X137000000Y-87500000D02*
X137750000Y-86750000D01*
X139000000Y-86750000D02*
X140649970Y-88399970D01*
X140649970Y-93959200D02*
X143249970Y-96559200D01*
X143249970Y-102750030D02*
X142750000Y-103250000D01*
X140649970Y-88399970D02*
X140649970Y-93959200D01*
X133670000Y-135500000D02*
X133670000Y-133943590D01*
X131130000Y-133033590D02*
X131130000Y-136760000D01*
X142799960Y-124177220D02*
X134727180Y-132250000D01*
X134727180Y-132250000D02*
X131913590Y-132250000D01*
X131913590Y-132250000D02*
X131130000Y-133033590D01*
X141000000Y-105500000D02*
X142799960Y-107299960D01*
X142799960Y-107450040D02*
X142799960Y-107700040D01*
X142799960Y-107299960D02*
X142799960Y-107700040D01*
X142799960Y-107700040D02*
X142799960Y-124177220D01*
X141500000Y-102750000D02*
X141500000Y-105000000D01*
X139363590Y-87750000D02*
X140199960Y-88586370D01*
X141500000Y-105000000D02*
X141000000Y-105500000D01*
X140199960Y-88586370D02*
X140199961Y-94199961D01*
X142750000Y-96750000D02*
X142750000Y-101500000D01*
X138500000Y-87750000D02*
X139363590Y-87750000D01*
X140199961Y-94199961D02*
X142750000Y-96750000D01*
X142750000Y-101500000D02*
X141500000Y-102750000D01*
X136500000Y-90750000D02*
X135237347Y-89487347D01*
X137750000Y-90750000D02*
X136500000Y-90750000D01*
X135250000Y-106750000D02*
X135250000Y-102500000D01*
X135250000Y-102500000D02*
X138125000Y-99625000D01*
X138500000Y-91500000D02*
X137750000Y-90750000D01*
X138125000Y-99625000D02*
X138125000Y-92875000D01*
X138125000Y-92875000D02*
X138500000Y-92500000D01*
X138500000Y-92500000D02*
X138500000Y-91500000D01*
D19*
X126220000Y-43945000D02*
X127415000Y-42750000D01*
X126220000Y-45210000D02*
X126220000Y-44175000D01*
X130860000Y-44000000D02*
X129665000Y-42805000D01*
D18*
X130860000Y-45210000D02*
X130860000Y-44175000D01*
X126220000Y-44235000D02*
X126220000Y-45210000D01*
D19*
X124965000Y-42745000D02*
X126220000Y-44000000D01*
X130860000Y-44235000D02*
X130860000Y-45210000D01*
X132115000Y-42750000D02*
X130860000Y-44005000D01*
D18*
X125930000Y-45500000D02*
X126220000Y-45210000D01*
X126180000Y-45250000D02*
X126220000Y-45210000D01*
D20*
X124750000Y-45000000D02*
X126180000Y-45000000D01*
D19*
X129665000Y-42750000D02*
X127415000Y-42750000D01*
X126220000Y-44970000D02*
X126220000Y-42750000D01*
X127415000Y-42750000D02*
X126230000Y-42750000D01*
X126230000Y-42750000D02*
X124965000Y-42750000D01*
X130860000Y-44860000D02*
X130860000Y-42750000D01*
X132115000Y-42750000D02*
X130980000Y-42750000D01*
X130980000Y-42750000D02*
X129665000Y-42750000D01*
D18*
X127250000Y-86250000D02*
X127500000Y-86000000D01*
X138250000Y-127250000D02*
X133500000Y-127250000D01*
X141750000Y-115500000D02*
X141750000Y-123750000D01*
X141750000Y-123750000D02*
X138250000Y-127250000D01*
X141250000Y-115000000D02*
X141750000Y-115500000D01*
X137250000Y-115000000D02*
X141250000Y-115000000D01*
X127250000Y-92250000D02*
X128500000Y-93500000D01*
X127250000Y-86250000D02*
X127250000Y-92250000D01*
X128500000Y-114000000D02*
X128500000Y-93500000D01*
X131875000Y-48375000D02*
X131875000Y-47625000D01*
X131875000Y-47625000D02*
X133000000Y-46500000D01*
X127250000Y-56250000D02*
X127250000Y-53000000D01*
X127500000Y-52750000D02*
X127750000Y-52500000D01*
X127250000Y-53000000D02*
X127750000Y-52500000D01*
X127750000Y-52500000D02*
X131875000Y-48375000D01*
X127250000Y-67500000D02*
X127500000Y-67750000D01*
X127250000Y-56250000D02*
X127250000Y-67500000D01*
X127500000Y-86000000D02*
X127500000Y-67750000D01*
X129750000Y-75250000D02*
X134750000Y-70250000D01*
X129750000Y-90250000D02*
X129750000Y-89500000D01*
X129750000Y-89750000D02*
X129750000Y-89500000D01*
X129750000Y-89500000D02*
X129750000Y-75250000D01*
X134500000Y-42000000D02*
X134500000Y-43225000D01*
X134500000Y-45275000D02*
X134525000Y-45275000D01*
X134500000Y-45750000D02*
X134500000Y-45275000D01*
X135500000Y-47000000D02*
X135250000Y-47000000D01*
X134500000Y-46250000D02*
X134500000Y-45275000D01*
X135250000Y-47000000D02*
X134500000Y-46250000D01*
X138599980Y-66849980D02*
X136250000Y-64500000D01*
X138599980Y-75849980D02*
X138599980Y-66849980D01*
X136250000Y-64500000D02*
X135250000Y-64500000D01*
X144600000Y-96000000D02*
X142000000Y-93400000D01*
X142000000Y-79250000D02*
X138599980Y-75849980D01*
X144600000Y-122200000D02*
X144600000Y-96000000D01*
X142000000Y-93400000D02*
X142000000Y-79250000D01*
X142000000Y-127750000D02*
X144600000Y-125150000D01*
X142000000Y-131250000D02*
X142000000Y-127750000D01*
X144600000Y-125150000D02*
X144600000Y-122200000D01*
X136750000Y-46750000D02*
X137000000Y-47000000D01*
X136750000Y-45250000D02*
X136750000Y-46750000D01*
X138149970Y-67149970D02*
X136750000Y-65750000D01*
X136750000Y-65750000D02*
X135750000Y-65750000D01*
X144149990Y-96186400D02*
X141549991Y-93586401D01*
X141549990Y-79549990D02*
X138149970Y-76149970D01*
X141549991Y-93586401D02*
X141549990Y-79549990D01*
X141000000Y-132750000D02*
X141000000Y-132000000D01*
X138149970Y-76149970D02*
X138149970Y-67149970D01*
X141000000Y-132000000D02*
X140750000Y-131750000D01*
X140750000Y-131750000D02*
X140750000Y-128250000D01*
X140750000Y-128250000D02*
X144149990Y-124850010D01*
X144149990Y-124850010D02*
X144149990Y-96186400D01*
X136750000Y-42000000D02*
X136750000Y-43200000D01*
X127240000Y-45990000D02*
X127250000Y-46000000D01*
X127240000Y-45630000D02*
X127240000Y-45990000D01*
X127240000Y-45450000D02*
X127240000Y-46240000D01*
X124750000Y-48730000D02*
X124750000Y-49500000D01*
X127240000Y-46240000D02*
X124750000Y-48730000D01*
X124950000Y-126500000D02*
X124950000Y-126550000D01*
X124950000Y-126550000D02*
X124500000Y-127000000D01*
X124500000Y-127000000D02*
X124500000Y-136000000D01*
X124500000Y-136000000D02*
X124500000Y-137250000D01*
X124500000Y-137250000D02*
X125000000Y-137750000D01*
X132750000Y-86000000D02*
X135250000Y-83500000D01*
X135250000Y-83500000D02*
X135750000Y-83500000D01*
X128500000Y-47920000D02*
X128500000Y-48000000D01*
X129840000Y-45450000D02*
X129840000Y-47160000D01*
X139000000Y-42000000D02*
X139000000Y-43200000D01*
X141000000Y-82500000D02*
X140250000Y-83250000D01*
X141099980Y-82400020D02*
X141000000Y-82500000D01*
X137000000Y-67250000D02*
X137699960Y-67949960D01*
X136750000Y-67250000D02*
X137000000Y-67250000D01*
X137699960Y-67949960D02*
X137699961Y-76336371D01*
X137699961Y-76336371D02*
X141099980Y-79736390D01*
X141099980Y-79736390D02*
X141099980Y-82400020D01*
X135000000Y-48750000D02*
X134500000Y-49250000D01*
X129750000Y-123750000D02*
X129750000Y-115000000D01*
X130250000Y-114500000D02*
X130250000Y-114000000D01*
X129750000Y-115000000D02*
X130250000Y-114500000D01*
X141000000Y-112500000D02*
X137250000Y-112500000D01*
X130250000Y-113250000D02*
X130250000Y-114000000D01*
X129750000Y-112750000D02*
X130250000Y-113250000D01*
X134500000Y-49500000D02*
X132500000Y-49500000D01*
X128500000Y-91500000D02*
X129750000Y-92750000D01*
X132500000Y-49500000D02*
X128500000Y-53500000D01*
X128500000Y-53500000D02*
X128500000Y-91500000D01*
X129750000Y-92750000D02*
X129750000Y-112750000D01*
D21*
G36*
X144790000Y-86252407D02*
G01*
X144710009Y-86236496D01*
X144710009Y-74487331D01*
X144713685Y-74450008D01*
X144710009Y-74412685D01*
X144710009Y-74412676D01*
X144699012Y-74301023D01*
X144655555Y-74157762D01*
X144584983Y-74025733D01*
X144490010Y-73910008D01*
X144461011Y-73886209D01*
X144313799Y-73738997D01*
X142535000Y-71960199D01*
X142535000Y-71898061D01*
X142495226Y-71698102D01*
X142417205Y-71509744D01*
X142303937Y-71340226D01*
X142159774Y-71196063D01*
X141990256Y-71082795D01*
X141801898Y-71004774D01*
X141601939Y-70965000D01*
X141539802Y-70965000D01*
X141510000Y-70935198D01*
X141510000Y-68453711D01*
X141553937Y-68409774D01*
X141667205Y-68240256D01*
X141745226Y-68051898D01*
X141785000Y-67851939D01*
X141785000Y-67648061D01*
X141745226Y-67448102D01*
X141667205Y-67259744D01*
X141553937Y-67090226D01*
X141409774Y-66946063D01*
X141240256Y-66832795D01*
X141194093Y-66813674D01*
X141205546Y-66792247D01*
X141249003Y-66648986D01*
X141260000Y-66537333D01*
X141260000Y-66537325D01*
X141263676Y-66500000D01*
X141260000Y-66462675D01*
X141260000Y-65037323D01*
X141263676Y-65000000D01*
X141260000Y-64962677D01*
X141260000Y-64962667D01*
X141249003Y-64851014D01*
X141205546Y-64707753D01*
X141134974Y-64575723D01*
X141063799Y-64488997D01*
X141040001Y-64459999D01*
X141011004Y-64436202D01*
X133210510Y-56635709D01*
X133245226Y-56551898D01*
X133285000Y-56351939D01*
X133285000Y-56148061D01*
X133245226Y-55948102D01*
X133167205Y-55759744D01*
X133053937Y-55590226D01*
X132909774Y-55446063D01*
X132740256Y-55332795D01*
X132551898Y-55254774D01*
X132351939Y-55215000D01*
X132148061Y-55215000D01*
X131948102Y-55254774D01*
X131759744Y-55332795D01*
X131590226Y-55446063D01*
X131446063Y-55590226D01*
X131332795Y-55759744D01*
X131254774Y-55948102D01*
X131215000Y-56148061D01*
X131215000Y-56351939D01*
X131254774Y-56551898D01*
X131332795Y-56740256D01*
X131446063Y-56909774D01*
X131529614Y-56993325D01*
X131544454Y-57042247D01*
X131615026Y-57174276D01*
X131710000Y-57290001D01*
X131738998Y-57313799D01*
X132793712Y-58368513D01*
X132740256Y-58332795D01*
X132551898Y-58254774D01*
X132351939Y-58215000D01*
X132148061Y-58215000D01*
X131948102Y-58254774D01*
X131759744Y-58332795D01*
X131590226Y-58446063D01*
X131446063Y-58590226D01*
X131332795Y-58759744D01*
X131254774Y-58948102D01*
X131215000Y-59148061D01*
X131215000Y-59351939D01*
X131254774Y-59551898D01*
X131332795Y-59740256D01*
X131446063Y-59909774D01*
X131538373Y-60002084D01*
X131351939Y-59965000D01*
X131148061Y-59965000D01*
X130948102Y-60004774D01*
X130759744Y-60082795D01*
X130590226Y-60196063D01*
X130446063Y-60340226D01*
X130332795Y-60509744D01*
X130254774Y-60698102D01*
X130215000Y-60898061D01*
X130215000Y-61101939D01*
X130254774Y-61301898D01*
X130332795Y-61490256D01*
X130446063Y-61659774D01*
X130590226Y-61803937D01*
X130759744Y-61917205D01*
X130948102Y-61995226D01*
X131148061Y-62035000D01*
X131237489Y-62035000D01*
X131215000Y-62148061D01*
X131215000Y-62351939D01*
X131254774Y-62551898D01*
X131332795Y-62740256D01*
X131446063Y-62909774D01*
X131590226Y-63053937D01*
X131759744Y-63167205D01*
X131948102Y-63245226D01*
X132148061Y-63285000D01*
X132351939Y-63285000D01*
X132551898Y-63245226D01*
X132740256Y-63167205D01*
X132909774Y-63053937D01*
X132953711Y-63010000D01*
X134475787Y-63010000D01*
X134966835Y-63501048D01*
X134948102Y-63504774D01*
X134759744Y-63582795D01*
X134590226Y-63696063D01*
X134446063Y-63840226D01*
X134332795Y-64009744D01*
X134254774Y-64198102D01*
X134215000Y-64398061D01*
X134215000Y-64601939D01*
X134254774Y-64801898D01*
X134332795Y-64990256D01*
X134446063Y-65159774D01*
X134590226Y-65303937D01*
X134759744Y-65417205D01*
X134766426Y-65419973D01*
X134754774Y-65448102D01*
X134715000Y-65648061D01*
X134715000Y-65851939D01*
X134754774Y-66051898D01*
X134832795Y-66240256D01*
X134946063Y-66409774D01*
X135090226Y-66553937D01*
X135259744Y-66667205D01*
X135448102Y-66745226D01*
X135648061Y-66785000D01*
X135822334Y-66785000D01*
X135754774Y-66948102D01*
X135715000Y-67148061D01*
X135715000Y-67351939D01*
X135754774Y-67551898D01*
X135832795Y-67740256D01*
X135946063Y-67909774D01*
X136090226Y-68053937D01*
X136259744Y-68167205D01*
X136448102Y-68245226D01*
X136648061Y-68285000D01*
X136851939Y-68285000D01*
X136939960Y-68267492D01*
X136939962Y-76299039D01*
X136936285Y-76336371D01*
X136939962Y-76373703D01*
X136939962Y-76373704D01*
X136950959Y-76485357D01*
X136952063Y-76488997D01*
X136994415Y-76628617D01*
X137064987Y-76760647D01*
X137118395Y-76825724D01*
X137159961Y-76876372D01*
X137188959Y-76900170D01*
X140339980Y-80051192D01*
X140339981Y-82085217D01*
X140210198Y-82215000D01*
X140148061Y-82215000D01*
X139948102Y-82254774D01*
X139759744Y-82332795D01*
X139590226Y-82446063D01*
X139446063Y-82590226D01*
X139333496Y-82758695D01*
X138017039Y-81442238D01*
X138035000Y-81351939D01*
X138035000Y-81148061D01*
X137995226Y-80948102D01*
X137917205Y-80759744D01*
X137803937Y-80590226D01*
X137760000Y-80546289D01*
X137760000Y-79453711D01*
X137803937Y-79409774D01*
X137917205Y-79240256D01*
X137995226Y-79051898D01*
X138035000Y-78851939D01*
X138035000Y-78648061D01*
X137995226Y-78448102D01*
X137917205Y-78259744D01*
X137803937Y-78090226D01*
X137659774Y-77946063D01*
X137490256Y-77832795D01*
X137301898Y-77754774D01*
X137101939Y-77715000D01*
X136898061Y-77715000D01*
X136698102Y-77754774D01*
X136509744Y-77832795D01*
X136340226Y-77946063D01*
X136196063Y-78090226D01*
X136082795Y-78259744D01*
X136004774Y-78448102D01*
X135965000Y-78648061D01*
X135965000Y-78851939D01*
X136004774Y-79051898D01*
X136082795Y-79240256D01*
X136196063Y-79409774D01*
X136240001Y-79453712D01*
X136240000Y-80546289D01*
X136196063Y-80590226D01*
X136082795Y-80759744D01*
X136004774Y-80948102D01*
X135965000Y-81148061D01*
X135965000Y-81351939D01*
X136004774Y-81551898D01*
X136082795Y-81740256D01*
X136196063Y-81909774D01*
X136340226Y-82053937D01*
X136509744Y-82167205D01*
X136650854Y-82225655D01*
X140339980Y-85914782D01*
X140339980Y-87015179D01*
X139563804Y-86239003D01*
X139540001Y-86209999D01*
X139424276Y-86115026D01*
X139292247Y-86044454D01*
X139148986Y-86000997D01*
X139037333Y-85990000D01*
X139037322Y-85990000D01*
X139000000Y-85986324D01*
X138962678Y-85990000D01*
X137787322Y-85990000D01*
X137749999Y-85986324D01*
X137712676Y-85990000D01*
X137712667Y-85990000D01*
X137601014Y-86000997D01*
X137457753Y-86044454D01*
X137325724Y-86115026D01*
X137209999Y-86209999D01*
X137186201Y-86238998D01*
X136960198Y-86465000D01*
X136898061Y-86465000D01*
X136698102Y-86504774D01*
X136509744Y-86582795D01*
X136340226Y-86696063D01*
X136196063Y-86840226D01*
X136082795Y-87009744D01*
X136004774Y-87198102D01*
X135965000Y-87398061D01*
X135965000Y-87601939D01*
X136004774Y-87801898D01*
X136082795Y-87990256D01*
X136196063Y-88159774D01*
X136340226Y-88303937D01*
X136509744Y-88417205D01*
X136698102Y-88495226D01*
X136898061Y-88535000D01*
X137101939Y-88535000D01*
X137301898Y-88495226D01*
X137490256Y-88417205D01*
X137635972Y-88319841D01*
X137696063Y-88409774D01*
X137840226Y-88553937D01*
X138009744Y-88667205D01*
X138198102Y-88745226D01*
X138398061Y-88785000D01*
X138601939Y-88785000D01*
X138801898Y-88745226D01*
X138990256Y-88667205D01*
X139119581Y-88580793D01*
X139439960Y-88901172D01*
X139439962Y-94162629D01*
X139436285Y-94199961D01*
X139450959Y-94348946D01*
X139494415Y-94492207D01*
X139564987Y-94624237D01*
X139633897Y-94708203D01*
X139659961Y-94739962D01*
X139688959Y-94763760D01*
X141990000Y-97064802D01*
X141990001Y-101185197D01*
X140989003Y-102186196D01*
X140959999Y-102209999D01*
X140915947Y-102263677D01*
X140865026Y-102325724D01*
X140851508Y-102351015D01*
X140794454Y-102457754D01*
X140750997Y-102601015D01*
X140740000Y-102712668D01*
X140740000Y-102712678D01*
X140736324Y-102750000D01*
X140740000Y-102787323D01*
X140740001Y-104496440D01*
X140698102Y-104504774D01*
X140509744Y-104582795D01*
X140340226Y-104696063D01*
X140196063Y-104840226D01*
X140082795Y-105009744D01*
X140004774Y-105198102D01*
X139965000Y-105398061D01*
X139965000Y-105601939D01*
X140004774Y-105801898D01*
X140082795Y-105990256D01*
X140196063Y-106159774D01*
X140340226Y-106303937D01*
X140509744Y-106417205D01*
X140698102Y-106495226D01*
X140898061Y-106535000D01*
X140960199Y-106535000D01*
X142039960Y-107614762D01*
X142039960Y-114715159D01*
X141813804Y-114489003D01*
X141790001Y-114459999D01*
X141674276Y-114365026D01*
X141542247Y-114294454D01*
X141398986Y-114250997D01*
X141287333Y-114240000D01*
X141287322Y-114240000D01*
X141250000Y-114236324D01*
X141212678Y-114240000D01*
X138154013Y-114240000D01*
X138053937Y-114090226D01*
X137909774Y-113946063D01*
X137740256Y-113832795D01*
X137551898Y-113754774D01*
X137351939Y-113715000D01*
X137148061Y-113715000D01*
X136948102Y-113754774D01*
X136759744Y-113832795D01*
X136590226Y-113946063D01*
X136446063Y-114090226D01*
X136332795Y-114259744D01*
X136254774Y-114448102D01*
X136215000Y-114648061D01*
X136215000Y-114851939D01*
X136254774Y-115051898D01*
X136332795Y-115240256D01*
X136446063Y-115409774D01*
X136590226Y-115553937D01*
X136759744Y-115667205D01*
X136948102Y-115745226D01*
X137148061Y-115785000D01*
X137351939Y-115785000D01*
X137477623Y-115760000D01*
X140935199Y-115760000D01*
X140990000Y-115814801D01*
X140990001Y-123435196D01*
X137935199Y-126490000D01*
X134203711Y-126490000D01*
X134159774Y-126446063D01*
X133990256Y-126332795D01*
X133801898Y-126254774D01*
X133601939Y-126215000D01*
X133398061Y-126215000D01*
X133198102Y-126254774D01*
X133009744Y-126332795D01*
X132840226Y-126446063D01*
X132696063Y-126590226D01*
X132582795Y-126759744D01*
X132504774Y-126948102D01*
X132465000Y-127148061D01*
X132465000Y-127351939D01*
X132504774Y-127551898D01*
X132582795Y-127740256D01*
X132696063Y-127909774D01*
X132840226Y-128053937D01*
X133009744Y-128167205D01*
X133198102Y-128245226D01*
X133398061Y-128285000D01*
X133601939Y-128285000D01*
X133801898Y-128245226D01*
X133990256Y-128167205D01*
X134159774Y-128053937D01*
X134203711Y-128010000D01*
X137892379Y-128010000D01*
X134412379Y-131490000D01*
X131950923Y-131490000D01*
X131913590Y-131486323D01*
X131876257Y-131490000D01*
X131764604Y-131500997D01*
X131621343Y-131544454D01*
X131489314Y-131615026D01*
X131373589Y-131709999D01*
X131349791Y-131738998D01*
X130619002Y-132469787D01*
X130589999Y-132493589D01*
X130551911Y-132540000D01*
X130495026Y-132609314D01*
X130460303Y-132674276D01*
X130440177Y-132711928D01*
X130280000Y-132711928D01*
X130155518Y-132724188D01*
X130035820Y-132760498D01*
X129925506Y-132819463D01*
X129828815Y-132898815D01*
X129749463Y-132995506D01*
X129690498Y-133105820D01*
X129654188Y-133225518D01*
X129641928Y-133350000D01*
X129641928Y-137650000D01*
X129654188Y-137774482D01*
X129690498Y-137894180D01*
X129749463Y-138004494D01*
X129828815Y-138101185D01*
X129925506Y-138180537D01*
X130035820Y-138239502D01*
X130155518Y-138275812D01*
X130280000Y-138288072D01*
X131980000Y-138288072D01*
X132104482Y-138275812D01*
X132224180Y-138239502D01*
X132334494Y-138180537D01*
X132400000Y-138126778D01*
X132465506Y-138180537D01*
X132575820Y-138239502D01*
X132695518Y-138275812D01*
X132820000Y-138288072D01*
X134520000Y-138288072D01*
X134644482Y-138275812D01*
X134764180Y-138239502D01*
X134874494Y-138180537D01*
X134940000Y-138126778D01*
X135005506Y-138180537D01*
X135115820Y-138239502D01*
X135235518Y-138275812D01*
X135360000Y-138288072D01*
X135924250Y-138285000D01*
X136083000Y-138126250D01*
X136083000Y-135627000D01*
X136063000Y-135627000D01*
X136063000Y-135373000D01*
X136083000Y-135373000D01*
X136083000Y-132873750D01*
X135948821Y-132739571D01*
X138290000Y-130398391D01*
X138290000Y-132711928D01*
X137900000Y-132711928D01*
X137775518Y-132724188D01*
X137655820Y-132760498D01*
X137545506Y-132819463D01*
X137480000Y-132873222D01*
X137414494Y-132819463D01*
X137304180Y-132760498D01*
X137184482Y-132724188D01*
X137060000Y-132711928D01*
X136495750Y-132715000D01*
X136337000Y-132873750D01*
X136337000Y-135373000D01*
X136357000Y-135373000D01*
X136357000Y-135627000D01*
X136337000Y-135627000D01*
X136337000Y-138126250D01*
X136495750Y-138285000D01*
X137060000Y-138288072D01*
X137184482Y-138275812D01*
X137304180Y-138239502D01*
X137414494Y-138180537D01*
X137480000Y-138126778D01*
X137545506Y-138180537D01*
X137655820Y-138239502D01*
X137775518Y-138275812D01*
X137900000Y-138288072D01*
X139600000Y-138288072D01*
X139724482Y-138275812D01*
X139844180Y-138239502D01*
X139954494Y-138180537D01*
X140051185Y-138101185D01*
X140130537Y-138004494D01*
X140189502Y-137894180D01*
X140225812Y-137774482D01*
X140238072Y-137650000D01*
X140238072Y-133451783D01*
X140340226Y-133553937D01*
X140509744Y-133667205D01*
X140698102Y-133745226D01*
X140898061Y-133785000D01*
X141101939Y-133785000D01*
X141301898Y-133745226D01*
X141490256Y-133667205D01*
X141659774Y-133553937D01*
X141803937Y-133409774D01*
X141917205Y-133240256D01*
X141995226Y-133051898D01*
X142035000Y-132851939D01*
X142035000Y-132648061D01*
X141995226Y-132448102D01*
X141927666Y-132285000D01*
X142101939Y-132285000D01*
X142301898Y-132245226D01*
X142490256Y-132167205D01*
X142659774Y-132053937D01*
X142803937Y-131909774D01*
X142917205Y-131740256D01*
X142995226Y-131551898D01*
X143035000Y-131351939D01*
X143035000Y-131148061D01*
X142995226Y-130948102D01*
X142917205Y-130759744D01*
X142803937Y-130590226D01*
X142760000Y-130546289D01*
X142760000Y-128064801D01*
X144790001Y-126034801D01*
X144790001Y-138590000D01*
X125605802Y-138590000D01*
X125659774Y-138553937D01*
X125803937Y-138409774D01*
X125917205Y-138240256D01*
X125995226Y-138051898D01*
X126035000Y-137851939D01*
X126035000Y-137648061D01*
X125995226Y-137448102D01*
X125917205Y-137259744D01*
X125803937Y-137090226D01*
X125659774Y-136946063D01*
X125490256Y-136832795D01*
X125301898Y-136754774D01*
X125260000Y-136746440D01*
X125260000Y-127838072D01*
X125275001Y-127838072D01*
X125448255Y-127821008D01*
X125614851Y-127770472D01*
X125768387Y-127688405D01*
X125902962Y-127577962D01*
X125908342Y-127571406D01*
X125973815Y-127651185D01*
X126070506Y-127730537D01*
X126180820Y-127789502D01*
X126300518Y-127825812D01*
X126425000Y-127838072D01*
X126714250Y-127835000D01*
X126873000Y-127676250D01*
X126873000Y-126627000D01*
X127127000Y-126627000D01*
X127127000Y-127676250D01*
X127285750Y-127835000D01*
X127575000Y-127838072D01*
X127699482Y-127825812D01*
X127819180Y-127789502D01*
X127929494Y-127730537D01*
X128026185Y-127651185D01*
X128105537Y-127554494D01*
X128164502Y-127444180D01*
X128200812Y-127324482D01*
X128213072Y-127200000D01*
X128210000Y-126785750D01*
X128051250Y-126627000D01*
X127127000Y-126627000D01*
X126873000Y-126627000D01*
X126853000Y-126627000D01*
X126853000Y-126373000D01*
X126873000Y-126373000D01*
X126873000Y-125323750D01*
X127127000Y-125323750D01*
X127127000Y-126373000D01*
X128051250Y-126373000D01*
X128210000Y-126214250D01*
X128213072Y-125800000D01*
X128200812Y-125675518D01*
X128164502Y-125555820D01*
X128105537Y-125445506D01*
X128026185Y-125348815D01*
X127929494Y-125269463D01*
X127819180Y-125210498D01*
X127699482Y-125174188D01*
X127575000Y-125161928D01*
X127285750Y-125165000D01*
X127127000Y-125323750D01*
X126873000Y-125323750D01*
X126714250Y-125165000D01*
X126425000Y-125161928D01*
X126300518Y-125174188D01*
X126180820Y-125210498D01*
X126070506Y-125269463D01*
X125973815Y-125348815D01*
X125908342Y-125428594D01*
X125902962Y-125422038D01*
X125768387Y-125311595D01*
X125614851Y-125229528D01*
X125448255Y-125178992D01*
X125275001Y-125161928D01*
X124624999Y-125161928D01*
X124451745Y-125178992D01*
X124285149Y-125229528D01*
X124210000Y-125269696D01*
X124210000Y-50383967D01*
X124259744Y-50417205D01*
X124448102Y-50495226D01*
X124648061Y-50535000D01*
X124851939Y-50535000D01*
X125051898Y-50495226D01*
X125240256Y-50417205D01*
X125409774Y-50303937D01*
X125553937Y-50159774D01*
X125667205Y-49990256D01*
X125745226Y-49801898D01*
X125785000Y-49601939D01*
X125785000Y-49398061D01*
X125745226Y-49198102D01*
X125667205Y-49009744D01*
X125618280Y-48936522D01*
X127751003Y-46803799D01*
X127770166Y-46788072D01*
X128090000Y-46788072D01*
X128214482Y-46775812D01*
X128215000Y-46775655D01*
X128215518Y-46775812D01*
X128340000Y-46788072D01*
X128740000Y-46788072D01*
X128864482Y-46775812D01*
X128865000Y-46775655D01*
X128865518Y-46775812D01*
X128990000Y-46788072D01*
X129390000Y-46788072D01*
X129514482Y-46775812D01*
X129517064Y-46775029D01*
X129608250Y-46785000D01*
X129676218Y-46717032D01*
X129744494Y-46680537D01*
X129841185Y-46601185D01*
X129913000Y-46513678D01*
X129913000Y-46626250D01*
X130071750Y-46785000D01*
X130174229Y-46773794D01*
X130293346Y-46735621D01*
X130402727Y-46674943D01*
X130498169Y-46594092D01*
X130576003Y-46496174D01*
X130629061Y-46393072D01*
X131435000Y-46393072D01*
X131559482Y-46380812D01*
X131679180Y-46344502D01*
X131789494Y-46285537D01*
X131886185Y-46206185D01*
X131965537Y-46109494D01*
X132024502Y-45999180D01*
X132060812Y-45879482D01*
X132073072Y-45755000D01*
X132073072Y-44397059D01*
X132082701Y-44387431D01*
X132115000Y-44390612D01*
X132342400Y-44368215D01*
X132561060Y-44301885D01*
X132762579Y-44194171D01*
X132939212Y-44049212D01*
X133084171Y-43872579D01*
X133176657Y-43699549D01*
X133178992Y-43723255D01*
X133229528Y-43889851D01*
X133311595Y-44043387D01*
X133422038Y-44177962D01*
X133509816Y-44250000D01*
X133422038Y-44322038D01*
X133311595Y-44456613D01*
X133229528Y-44610149D01*
X133178992Y-44776745D01*
X133161928Y-44949999D01*
X133161928Y-45476932D01*
X133101939Y-45465000D01*
X132898061Y-45465000D01*
X132698102Y-45504774D01*
X132509744Y-45582795D01*
X132340226Y-45696063D01*
X132196063Y-45840226D01*
X132082795Y-46009744D01*
X132004774Y-46198102D01*
X131965000Y-46398061D01*
X131965000Y-46460198D01*
X131363998Y-47061201D01*
X131335000Y-47084999D01*
X131311202Y-47113997D01*
X131311201Y-47113998D01*
X131240026Y-47200724D01*
X131169454Y-47332754D01*
X131162141Y-47356863D01*
X131125997Y-47476014D01*
X131115000Y-47587667D01*
X131115000Y-47587678D01*
X131111324Y-47625000D01*
X131115000Y-47662322D01*
X131115000Y-48060198D01*
X127239003Y-51936196D01*
X127238997Y-51936201D01*
X126967445Y-52207754D01*
X126738998Y-52436201D01*
X126710000Y-52459999D01*
X126686202Y-52488997D01*
X126686201Y-52488998D01*
X126615026Y-52575724D01*
X126544454Y-52707754D01*
X126500998Y-52851015D01*
X126486324Y-53000000D01*
X126490001Y-53037332D01*
X126490000Y-55546289D01*
X126446063Y-55590226D01*
X126332795Y-55759744D01*
X126254774Y-55948102D01*
X126215000Y-56148061D01*
X126215000Y-56351939D01*
X126254774Y-56551898D01*
X126332795Y-56740256D01*
X126446063Y-56909774D01*
X126490000Y-56953711D01*
X126490001Y-67462668D01*
X126486324Y-67500000D01*
X126490001Y-67537333D01*
X126500998Y-67648986D01*
X126503646Y-67657714D01*
X126544454Y-67792246D01*
X126615026Y-67924276D01*
X126676354Y-67999003D01*
X126710000Y-68040001D01*
X126738997Y-68063798D01*
X126740001Y-68064802D01*
X126740001Y-68185488D01*
X126667205Y-68009744D01*
X126553937Y-67840226D01*
X126409774Y-67696063D01*
X126240256Y-67582795D01*
X126051898Y-67504774D01*
X125851939Y-67465000D01*
X125648061Y-67465000D01*
X125448102Y-67504774D01*
X125259744Y-67582795D01*
X125090226Y-67696063D01*
X124946063Y-67840226D01*
X124832795Y-68009744D01*
X124754774Y-68198102D01*
X124715000Y-68398061D01*
X124715000Y-68601939D01*
X124754774Y-68801898D01*
X124832795Y-68990256D01*
X124946063Y-69159774D01*
X124990000Y-69203711D01*
X124990001Y-82212668D01*
X124986324Y-82250000D01*
X124989015Y-82277326D01*
X124965000Y-82398061D01*
X124965000Y-82601939D01*
X125004774Y-82801898D01*
X125082795Y-82990256D01*
X125196063Y-83159774D01*
X125340226Y-83303937D01*
X125509744Y-83417205D01*
X125698102Y-83495226D01*
X125898061Y-83535000D01*
X126101939Y-83535000D01*
X126301898Y-83495226D01*
X126490256Y-83417205D01*
X126659774Y-83303937D01*
X126740000Y-83223711D01*
X126740000Y-85345987D01*
X126590226Y-85446063D01*
X126446063Y-85590226D01*
X126332795Y-85759744D01*
X126254774Y-85948102D01*
X126215000Y-86148061D01*
X126215000Y-86351939D01*
X126254774Y-86551898D01*
X126332795Y-86740256D01*
X126446063Y-86909774D01*
X126490000Y-86953711D01*
X126490001Y-92212667D01*
X126486324Y-92250000D01*
X126500998Y-92398985D01*
X126544454Y-92542246D01*
X126615026Y-92674276D01*
X126676353Y-92749002D01*
X126710000Y-92790001D01*
X126738998Y-92813799D01*
X127740001Y-93814803D01*
X127740000Y-113296289D01*
X127696063Y-113340226D01*
X127582795Y-113509744D01*
X127504774Y-113698102D01*
X127465000Y-113898061D01*
X127465000Y-114101939D01*
X127504774Y-114301898D01*
X127582795Y-114490256D01*
X127696063Y-114659774D01*
X127840226Y-114803937D01*
X128009744Y-114917205D01*
X128198102Y-114995226D01*
X128398061Y-115035000D01*
X128601939Y-115035000D01*
X128801898Y-114995226D01*
X128990256Y-114917205D01*
X128994776Y-114914185D01*
X128986324Y-115000000D01*
X128990001Y-115037332D01*
X128990000Y-123046289D01*
X128946063Y-123090226D01*
X128832795Y-123259744D01*
X128754774Y-123448102D01*
X128715000Y-123648061D01*
X128715000Y-123851939D01*
X128754774Y-124051898D01*
X128832795Y-124240256D01*
X128946063Y-124409774D01*
X129090226Y-124553937D01*
X129259744Y-124667205D01*
X129448102Y-124745226D01*
X129648061Y-124785000D01*
X129851939Y-124785000D01*
X130051898Y-124745226D01*
X130240256Y-124667205D01*
X130409774Y-124553937D01*
X130553937Y-124409774D01*
X130667205Y-124240256D01*
X130745226Y-124051898D01*
X130785000Y-123851939D01*
X130785000Y-123648061D01*
X130745226Y-123448102D01*
X130667205Y-123259744D01*
X130553937Y-123090226D01*
X130510000Y-123046289D01*
X130510000Y-120900000D01*
X132361928Y-120900000D01*
X132361928Y-123900000D01*
X132374188Y-124024482D01*
X132410498Y-124144180D01*
X132469463Y-124254494D01*
X132548815Y-124351185D01*
X132645506Y-124430537D01*
X132755820Y-124489502D01*
X132875518Y-124525812D01*
X133000000Y-124538072D01*
X136000000Y-124538072D01*
X136124482Y-124525812D01*
X136244180Y-124489502D01*
X136354494Y-124430537D01*
X136451185Y-124351185D01*
X136530537Y-124254494D01*
X136589502Y-124144180D01*
X136625812Y-124024482D01*
X136638072Y-123900000D01*
X136638072Y-120900000D01*
X136625812Y-120775518D01*
X136589502Y-120655820D01*
X136530537Y-120545506D01*
X136451185Y-120448815D01*
X136354494Y-120369463D01*
X136244180Y-120310498D01*
X136124482Y-120274188D01*
X136000000Y-120261928D01*
X133000000Y-120261928D01*
X132875518Y-120274188D01*
X132755820Y-120310498D01*
X132645506Y-120369463D01*
X132548815Y-120448815D01*
X132469463Y-120545506D01*
X132410498Y-120655820D01*
X132374188Y-120775518D01*
X132361928Y-120900000D01*
X130510000Y-120900000D01*
X130510000Y-115314801D01*
X130760998Y-115063803D01*
X130790001Y-115040001D01*
X130884974Y-114924276D01*
X130955546Y-114792247D01*
X130970386Y-114743325D01*
X131053937Y-114659774D01*
X131167205Y-114490256D01*
X131245226Y-114301898D01*
X131285000Y-114101939D01*
X131285000Y-113898061D01*
X131245226Y-113698102D01*
X131167205Y-113509744D01*
X131053937Y-113340226D01*
X131010000Y-113296289D01*
X131010000Y-113287325D01*
X131013676Y-113250000D01*
X131010000Y-113212675D01*
X131010000Y-113212667D01*
X130999003Y-113101014D01*
X130955546Y-112957753D01*
X130884974Y-112825724D01*
X130790001Y-112709999D01*
X130760998Y-112686197D01*
X130510000Y-112435199D01*
X130510000Y-112398061D01*
X136215000Y-112398061D01*
X136215000Y-112601939D01*
X136254774Y-112801898D01*
X136332795Y-112990256D01*
X136446063Y-113159774D01*
X136590226Y-113303937D01*
X136759744Y-113417205D01*
X136948102Y-113495226D01*
X137148061Y-113535000D01*
X137351939Y-113535000D01*
X137551898Y-113495226D01*
X137740256Y-113417205D01*
X137909774Y-113303937D01*
X137953711Y-113260000D01*
X140296289Y-113260000D01*
X140340226Y-113303937D01*
X140509744Y-113417205D01*
X140698102Y-113495226D01*
X140898061Y-113535000D01*
X141101939Y-113535000D01*
X141301898Y-113495226D01*
X141490256Y-113417205D01*
X141659774Y-113303937D01*
X141803937Y-113159774D01*
X141917205Y-112990256D01*
X141995226Y-112801898D01*
X142035000Y-112601939D01*
X142035000Y-112398061D01*
X141995226Y-112198102D01*
X141917205Y-112009744D01*
X141803937Y-111840226D01*
X141659774Y-111696063D01*
X141490256Y-111582795D01*
X141301898Y-111504774D01*
X141101939Y-111465000D01*
X140898061Y-111465000D01*
X140698102Y-111504774D01*
X140509744Y-111582795D01*
X140340226Y-111696063D01*
X140296289Y-111740000D01*
X137953711Y-111740000D01*
X137909774Y-111696063D01*
X137740256Y-111582795D01*
X137551898Y-111504774D01*
X137351939Y-111465000D01*
X137148061Y-111465000D01*
X136948102Y-111504774D01*
X136759744Y-111582795D01*
X136590226Y-111696063D01*
X136446063Y-111840226D01*
X136332795Y-112009744D01*
X136254774Y-112198102D01*
X136215000Y-112398061D01*
X130510000Y-112398061D01*
X130510000Y-92787323D01*
X130513676Y-92750000D01*
X130510000Y-92712677D01*
X130510000Y-92712667D01*
X130499003Y-92601014D01*
X130455546Y-92457753D01*
X130437652Y-92424276D01*
X130384974Y-92325723D01*
X130316332Y-92242083D01*
X130290001Y-92209999D01*
X130261004Y-92186202D01*
X129260000Y-91185199D01*
X129260000Y-91167311D01*
X129448102Y-91245226D01*
X129648061Y-91285000D01*
X129851939Y-91285000D01*
X130051898Y-91245226D01*
X130240256Y-91167205D01*
X130409774Y-91053937D01*
X130553937Y-90909774D01*
X130667205Y-90740256D01*
X130745226Y-90551898D01*
X130785000Y-90351939D01*
X130785000Y-90148061D01*
X130745226Y-89948102D01*
X130667205Y-89759744D01*
X130553937Y-89590226D01*
X130510000Y-89546289D01*
X130510000Y-85500000D01*
X130736324Y-85500000D01*
X130740000Y-85537323D01*
X130740001Y-89212668D01*
X130736324Y-89250000D01*
X130750998Y-89398985D01*
X130794454Y-89542246D01*
X130865026Y-89674276D01*
X130895175Y-89711012D01*
X130960000Y-89790001D01*
X130988998Y-89813799D01*
X133686201Y-92511003D01*
X133709999Y-92540001D01*
X133825724Y-92634974D01*
X133957753Y-92705546D01*
X134101014Y-92749003D01*
X134212667Y-92760000D01*
X134212676Y-92760000D01*
X134249999Y-92763676D01*
X134287322Y-92760000D01*
X136240001Y-92760000D01*
X136240000Y-96212667D01*
X136240000Y-96787332D01*
X136240001Y-96787339D01*
X136240000Y-97546289D01*
X136196063Y-97590226D01*
X136082795Y-97759744D01*
X136004774Y-97948102D01*
X135965000Y-98148061D01*
X135965000Y-98351939D01*
X136004774Y-98551898D01*
X136082795Y-98740256D01*
X136196063Y-98909774D01*
X136340226Y-99053937D01*
X136509744Y-99167205D01*
X136698102Y-99245226D01*
X136898061Y-99285000D01*
X137101939Y-99285000D01*
X137301898Y-99245226D01*
X137365000Y-99219088D01*
X137365000Y-99310198D01*
X134738998Y-101936201D01*
X134710000Y-101959999D01*
X134686202Y-101988997D01*
X134686201Y-101988998D01*
X134615026Y-102075724D01*
X134544454Y-102207754D01*
X134500998Y-102351015D01*
X134486324Y-102500000D01*
X134490001Y-102537332D01*
X134490000Y-106046289D01*
X134446063Y-106090226D01*
X134332795Y-106259744D01*
X134254774Y-106448102D01*
X134215000Y-106648061D01*
X134215000Y-106851939D01*
X134254774Y-107051898D01*
X134332795Y-107240256D01*
X134446063Y-107409774D01*
X134590226Y-107553937D01*
X134759744Y-107667205D01*
X134948102Y-107745226D01*
X135148061Y-107785000D01*
X135351939Y-107785000D01*
X135551898Y-107745226D01*
X135740256Y-107667205D01*
X135909774Y-107553937D01*
X136053937Y-107409774D01*
X136167205Y-107240256D01*
X136245226Y-107051898D01*
X136285000Y-106851939D01*
X136285000Y-106648061D01*
X136245226Y-106448102D01*
X136167205Y-106259744D01*
X136053937Y-106090226D01*
X136010000Y-106046289D01*
X136010000Y-102814801D01*
X138636004Y-100188798D01*
X138665001Y-100165001D01*
X138691332Y-100132917D01*
X138759974Y-100049277D01*
X138830546Y-99917247D01*
X138830546Y-99917246D01*
X138874003Y-99773986D01*
X138885000Y-99662333D01*
X138885000Y-99662323D01*
X138888676Y-99625000D01*
X138885000Y-99587678D01*
X138885000Y-93189801D01*
X139010998Y-93063803D01*
X139040001Y-93040001D01*
X139134974Y-92924276D01*
X139205546Y-92792247D01*
X139249003Y-92648986D01*
X139260000Y-92537333D01*
X139260000Y-92537324D01*
X139263676Y-92500001D01*
X139260000Y-92462678D01*
X139260000Y-91537322D01*
X139263676Y-91499999D01*
X139260000Y-91462676D01*
X139260000Y-91462667D01*
X139249003Y-91351014D01*
X139205546Y-91207753D01*
X139134974Y-91075724D01*
X139040001Y-90959999D01*
X139011002Y-90936201D01*
X138313803Y-90239002D01*
X138290001Y-90209999D01*
X138174276Y-90115026D01*
X138042247Y-90044454D01*
X137898986Y-90000997D01*
X137787333Y-89990000D01*
X137787322Y-89990000D01*
X137750000Y-89986324D01*
X137712678Y-89990000D01*
X136814802Y-89990000D01*
X136272347Y-89447546D01*
X136272347Y-89385408D01*
X136232573Y-89185449D01*
X136154552Y-88997091D01*
X136041284Y-88827573D01*
X135897121Y-88683410D01*
X135727603Y-88570142D01*
X135539245Y-88492121D01*
X135339286Y-88452347D01*
X135135408Y-88452347D01*
X134935449Y-88492121D01*
X134747091Y-88570142D01*
X134577573Y-88683410D01*
X134433410Y-88827573D01*
X134320142Y-88997091D01*
X134242121Y-89185449D01*
X134202347Y-89385408D01*
X134202347Y-89589286D01*
X134242121Y-89789245D01*
X134320142Y-89977603D01*
X134433410Y-90147121D01*
X134577573Y-90291284D01*
X134747091Y-90404552D01*
X134935449Y-90482573D01*
X135135408Y-90522347D01*
X135197546Y-90522347D01*
X135915198Y-91240000D01*
X134564802Y-91240000D01*
X132260000Y-88935199D01*
X132260000Y-86917311D01*
X132448102Y-86995226D01*
X132648061Y-87035000D01*
X132851939Y-87035000D01*
X133051898Y-86995226D01*
X133240256Y-86917205D01*
X133409774Y-86803937D01*
X133553937Y-86659774D01*
X133667205Y-86490256D01*
X133745226Y-86301898D01*
X133785000Y-86101939D01*
X133785000Y-86039801D01*
X135364292Y-84460510D01*
X135448102Y-84495226D01*
X135648061Y-84535000D01*
X135851939Y-84535000D01*
X136051898Y-84495226D01*
X136240256Y-84417205D01*
X136409774Y-84303937D01*
X136553937Y-84159774D01*
X136667205Y-83990256D01*
X136745226Y-83801898D01*
X136785000Y-83601939D01*
X136785000Y-83398061D01*
X136745226Y-83198102D01*
X136667205Y-83009744D01*
X136553937Y-82840226D01*
X136409774Y-82696063D01*
X136240256Y-82582795D01*
X136051898Y-82504774D01*
X135851939Y-82465000D01*
X135648061Y-82465000D01*
X135448102Y-82504774D01*
X135259744Y-82582795D01*
X135090226Y-82696063D01*
X135006675Y-82779614D01*
X134972433Y-82790001D01*
X134957753Y-82794454D01*
X134825723Y-82865026D01*
X134753526Y-82924277D01*
X134709999Y-82959999D01*
X134686201Y-82988997D01*
X132760000Y-84915199D01*
X132760000Y-81953711D01*
X132803937Y-81909774D01*
X132917205Y-81740256D01*
X132995226Y-81551898D01*
X133035000Y-81351939D01*
X133035000Y-81148061D01*
X132995226Y-80948102D01*
X132917205Y-80759744D01*
X132803937Y-80590226D01*
X132760000Y-80546289D01*
X132760000Y-78703711D01*
X132803937Y-78659774D01*
X132917205Y-78490256D01*
X132995226Y-78301898D01*
X133035000Y-78101939D01*
X133035000Y-77898061D01*
X132995226Y-77698102D01*
X132917205Y-77509744D01*
X132803937Y-77340226D01*
X132659774Y-77196063D01*
X132490256Y-77082795D01*
X132301898Y-77004774D01*
X132101939Y-76965000D01*
X131898061Y-76965000D01*
X131698102Y-77004774D01*
X131509744Y-77082795D01*
X131340226Y-77196063D01*
X131196063Y-77340226D01*
X131082795Y-77509744D01*
X131004774Y-77698102D01*
X130965000Y-77898061D01*
X130965000Y-78101939D01*
X131004774Y-78301898D01*
X131082795Y-78490256D01*
X131196063Y-78659774D01*
X131240000Y-78703711D01*
X131240001Y-80546288D01*
X131196063Y-80590226D01*
X131082795Y-80759744D01*
X131004774Y-80948102D01*
X130965000Y-81148061D01*
X130965000Y-81351939D01*
X131004774Y-81551898D01*
X131082795Y-81740256D01*
X131196063Y-81909774D01*
X131240000Y-81953711D01*
X131240001Y-84685198D01*
X130989003Y-84936196D01*
X130959999Y-84959999D01*
X130904871Y-85027174D01*
X130865026Y-85075724D01*
X130811586Y-85175703D01*
X130794454Y-85207754D01*
X130750997Y-85351015D01*
X130740000Y-85462668D01*
X130740000Y-85462678D01*
X130736324Y-85500000D01*
X130510000Y-85500000D01*
X130510000Y-75564801D01*
X134789802Y-71285000D01*
X134851939Y-71285000D01*
X135051898Y-71245226D01*
X135240256Y-71167205D01*
X135409774Y-71053937D01*
X135553937Y-70909774D01*
X135667205Y-70740256D01*
X135745226Y-70551898D01*
X135785000Y-70351939D01*
X135785000Y-70148061D01*
X135745226Y-69948102D01*
X135667205Y-69759744D01*
X135553937Y-69590226D01*
X135409774Y-69446063D01*
X135240256Y-69332795D01*
X135051898Y-69254774D01*
X134851939Y-69215000D01*
X134648061Y-69215000D01*
X134448102Y-69254774D01*
X134259744Y-69332795D01*
X134090226Y-69446063D01*
X133946063Y-69590226D01*
X133832795Y-69759744D01*
X133754774Y-69948102D01*
X133715000Y-70148061D01*
X133715000Y-70210198D01*
X129260000Y-74665199D01*
X129260000Y-53814801D01*
X132594958Y-50479844D01*
X132607988Y-50511302D01*
X132841637Y-50860983D01*
X133139017Y-51158363D01*
X133488698Y-51392012D01*
X133877244Y-51552953D01*
X134289721Y-51635000D01*
X134710279Y-51635000D01*
X135122756Y-51552953D01*
X135511302Y-51392012D01*
X135860983Y-51158363D01*
X136158363Y-50860983D01*
X136392012Y-50511302D01*
X136552953Y-50122756D01*
X136635000Y-49710279D01*
X136635000Y-49289721D01*
X136552953Y-48877244D01*
X136392012Y-48488698D01*
X136158363Y-48139017D01*
X135952281Y-47932935D01*
X135990256Y-47917205D01*
X136159774Y-47803937D01*
X136250000Y-47713711D01*
X136340226Y-47803937D01*
X136509744Y-47917205D01*
X136698102Y-47995226D01*
X136898061Y-48035000D01*
X137101939Y-48035000D01*
X137301898Y-47995226D01*
X137490256Y-47917205D01*
X137659774Y-47803937D01*
X137803937Y-47659774D01*
X137917205Y-47490256D01*
X137995226Y-47301898D01*
X138026805Y-47143137D01*
X142175000Y-47143137D01*
X142175000Y-47356863D01*
X142216696Y-47566483D01*
X142298485Y-47763940D01*
X142417225Y-47941647D01*
X142568353Y-48092775D01*
X142746060Y-48211515D01*
X142943517Y-48293304D01*
X143153137Y-48335000D01*
X143366863Y-48335000D01*
X143576483Y-48293304D01*
X143773940Y-48211515D01*
X143951647Y-48092775D01*
X144102775Y-47941647D01*
X144221515Y-47763940D01*
X144303304Y-47566483D01*
X144345000Y-47356863D01*
X144345000Y-47143137D01*
X144303304Y-46933517D01*
X144221515Y-46736060D01*
X144102775Y-46558353D01*
X143951647Y-46407225D01*
X143773940Y-46288485D01*
X143576483Y-46206696D01*
X143366863Y-46165000D01*
X143153137Y-46165000D01*
X142943517Y-46206696D01*
X142746060Y-46288485D01*
X142568353Y-46407225D01*
X142417225Y-46558353D01*
X142298485Y-46736060D01*
X142216696Y-46933517D01*
X142175000Y-47143137D01*
X138026805Y-47143137D01*
X138035000Y-47101939D01*
X138035000Y-46898061D01*
X137995226Y-46698102D01*
X137917205Y-46509744D01*
X137803937Y-46340226D01*
X137739375Y-46275664D01*
X137804515Y-46222205D01*
X137848815Y-46276185D01*
X137945506Y-46355537D01*
X138055820Y-46414502D01*
X138175518Y-46450812D01*
X138300000Y-46463072D01*
X138714250Y-46460000D01*
X138873000Y-46301250D01*
X138873000Y-45377000D01*
X139127000Y-45377000D01*
X139127000Y-46301250D01*
X139285750Y-46460000D01*
X139700000Y-46463072D01*
X139824482Y-46450812D01*
X139944180Y-46414502D01*
X140054494Y-46355537D01*
X140151185Y-46276185D01*
X140230537Y-46179494D01*
X140289502Y-46069180D01*
X140325812Y-45949482D01*
X140338072Y-45825000D01*
X140335000Y-45535750D01*
X140176250Y-45377000D01*
X139127000Y-45377000D01*
X138873000Y-45377000D01*
X138853000Y-45377000D01*
X138853000Y-45123000D01*
X138873000Y-45123000D01*
X138873000Y-45103000D01*
X139127000Y-45103000D01*
X139127000Y-45123000D01*
X140176250Y-45123000D01*
X140335000Y-44964250D01*
X140338072Y-44675000D01*
X140325812Y-44550518D01*
X140289502Y-44430820D01*
X140230537Y-44320506D01*
X140151185Y-44223815D01*
X140071406Y-44158342D01*
X140077962Y-44152962D01*
X140086025Y-44143137D01*
X142175000Y-44143137D01*
X142175000Y-44356863D01*
X142216696Y-44566483D01*
X142298485Y-44763940D01*
X142417225Y-44941647D01*
X142568353Y-45092775D01*
X142746060Y-45211515D01*
X142943517Y-45293304D01*
X143153137Y-45335000D01*
X143366863Y-45335000D01*
X143576483Y-45293304D01*
X143773940Y-45211515D01*
X143951647Y-45092775D01*
X144102775Y-44941647D01*
X144221515Y-44763940D01*
X144303304Y-44566483D01*
X144345000Y-44356863D01*
X144345000Y-44143137D01*
X144303304Y-43933517D01*
X144221515Y-43736060D01*
X144102775Y-43558353D01*
X143951647Y-43407225D01*
X143773940Y-43288485D01*
X143576483Y-43206696D01*
X143366863Y-43165000D01*
X143153137Y-43165000D01*
X142943517Y-43206696D01*
X142746060Y-43288485D01*
X142568353Y-43407225D01*
X142417225Y-43558353D01*
X142298485Y-43736060D01*
X142216696Y-43933517D01*
X142175000Y-44143137D01*
X140086025Y-44143137D01*
X140188405Y-44018387D01*
X140270472Y-43864851D01*
X140321008Y-43698255D01*
X140338072Y-43525001D01*
X140338072Y-42874999D01*
X140321008Y-42701745D01*
X140270472Y-42535149D01*
X140188405Y-42381613D01*
X140077962Y-42247038D01*
X140016218Y-42196366D01*
X140035000Y-42101939D01*
X140035000Y-41898061D01*
X139995226Y-41698102D01*
X139948377Y-41585000D01*
X144790000Y-41585000D01*
X144790000Y-86252407D01*
G37*
X144790000Y-86252407D02*
X144710009Y-86236496D01*
X144710009Y-74487331D01*
X144713685Y-74450008D01*
X144710009Y-74412685D01*
X144710009Y-74412676D01*
X144699012Y-74301023D01*
X144655555Y-74157762D01*
X144584983Y-74025733D01*
X144490010Y-73910008D01*
X144461011Y-73886209D01*
X144313799Y-73738997D01*
X142535000Y-71960199D01*
X142535000Y-71898061D01*
X142495226Y-71698102D01*
X142417205Y-71509744D01*
X142303937Y-71340226D01*
X142159774Y-71196063D01*
X141990256Y-71082795D01*
X141801898Y-71004774D01*
X141601939Y-70965000D01*
X141539802Y-70965000D01*
X141510000Y-70935198D01*
X141510000Y-68453711D01*
X141553937Y-68409774D01*
X141667205Y-68240256D01*
X141745226Y-68051898D01*
X141785000Y-67851939D01*
X141785000Y-67648061D01*
X141745226Y-67448102D01*
X141667205Y-67259744D01*
X141553937Y-67090226D01*
X141409774Y-66946063D01*
X141240256Y-66832795D01*
X141194093Y-66813674D01*
X141205546Y-66792247D01*
X141249003Y-66648986D01*
X141260000Y-66537333D01*
X141260000Y-66537325D01*
X141263676Y-66500000D01*
X141260000Y-66462675D01*
X141260000Y-65037323D01*
X141263676Y-65000000D01*
X141260000Y-64962677D01*
X141260000Y-64962667D01*
X141249003Y-64851014D01*
X141205546Y-64707753D01*
X141134974Y-64575723D01*
X141063799Y-64488997D01*
X141040001Y-64459999D01*
X141011004Y-64436202D01*
X133210510Y-56635709D01*
X133245226Y-56551898D01*
X133285000Y-56351939D01*
X133285000Y-56148061D01*
X133245226Y-55948102D01*
X133167205Y-55759744D01*
X133053937Y-55590226D01*
X132909774Y-55446063D01*
X132740256Y-55332795D01*
X132551898Y-55254774D01*
X132351939Y-55215000D01*
X132148061Y-55215000D01*
X131948102Y-55254774D01*
X131759744Y-55332795D01*
X131590226Y-55446063D01*
X131446063Y-55590226D01*
X131332795Y-55759744D01*
X131254774Y-55948102D01*
X131215000Y-56148061D01*
X131215000Y-56351939D01*
X131254774Y-56551898D01*
X131332795Y-56740256D01*
X131446063Y-56909774D01*
X131529614Y-56993325D01*
X131544454Y-57042247D01*
X131615026Y-57174276D01*
X131710000Y-57290001D01*
X131738998Y-57313799D01*
X132793712Y-58368513D01*
X132740256Y-58332795D01*
X132551898Y-58254774D01*
X132351939Y-58215000D01*
X132148061Y-58215000D01*
X131948102Y-58254774D01*
X131759744Y-58332795D01*
X131590226Y-58446063D01*
X131446063Y-58590226D01*
X131332795Y-58759744D01*
X131254774Y-58948102D01*
X131215000Y-59148061D01*
X131215000Y-59351939D01*
X131254774Y-59551898D01*
X131332795Y-59740256D01*
X131446063Y-59909774D01*
X131538373Y-60002084D01*
X131351939Y-59965000D01*
X131148061Y-59965000D01*
X130948102Y-60004774D01*
X130759744Y-60082795D01*
X130590226Y-60196063D01*
X130446063Y-60340226D01*
X130332795Y-60509744D01*
X130254774Y-60698102D01*
X130215000Y-60898061D01*
X130215000Y-61101939D01*
X130254774Y-61301898D01*
X130332795Y-61490256D01*
X130446063Y-61659774D01*
X130590226Y-61803937D01*
X130759744Y-61917205D01*
X130948102Y-61995226D01*
X131148061Y-62035000D01*
X131237489Y-62035000D01*
X131215000Y-62148061D01*
X131215000Y-62351939D01*
X131254774Y-62551898D01*
X131332795Y-62740256D01*
X131446063Y-62909774D01*
X131590226Y-63053937D01*
X131759744Y-63167205D01*
X131948102Y-63245226D01*
X132148061Y-63285000D01*
X132351939Y-63285000D01*
X132551898Y-63245226D01*
X132740256Y-63167205D01*
X132909774Y-63053937D01*
X132953711Y-63010000D01*
X134475787Y-63010000D01*
X134966835Y-63501048D01*
X134948102Y-63504774D01*
X134759744Y-63582795D01*
X134590226Y-63696063D01*
X134446063Y-63840226D01*
X134332795Y-64009744D01*
X134254774Y-64198102D01*
X134215000Y-64398061D01*
X134215000Y-64601939D01*
X134254774Y-64801898D01*
X134332795Y-64990256D01*
X134446063Y-65159774D01*
X134590226Y-65303937D01*
X134759744Y-65417205D01*
X134766426Y-65419973D01*
X134754774Y-65448102D01*
X134715000Y-65648061D01*
X134715000Y-65851939D01*
X134754774Y-66051898D01*
X134832795Y-66240256D01*
X134946063Y-66409774D01*
X135090226Y-66553937D01*
X135259744Y-66667205D01*
X135448102Y-66745226D01*
X135648061Y-66785000D01*
X135822334Y-66785000D01*
X135754774Y-66948102D01*
X135715000Y-67148061D01*
X135715000Y-67351939D01*
X135754774Y-67551898D01*
X135832795Y-67740256D01*
X135946063Y-67909774D01*
X136090226Y-68053937D01*
X136259744Y-68167205D01*
X136448102Y-68245226D01*
X136648061Y-68285000D01*
X136851939Y-68285000D01*
X136939960Y-68267492D01*
X136939962Y-76299039D01*
X136936285Y-76336371D01*
X136939962Y-76373703D01*
X136939962Y-76373704D01*
X136950959Y-76485357D01*
X136952063Y-76488997D01*
X136994415Y-76628617D01*
X137064987Y-76760647D01*
X137118395Y-76825724D01*
X137159961Y-76876372D01*
X137188959Y-76900170D01*
X140339980Y-80051192D01*
X140339981Y-82085217D01*
X140210198Y-82215000D01*
X140148061Y-82215000D01*
X139948102Y-82254774D01*
X139759744Y-82332795D01*
X139590226Y-82446063D01*
X139446063Y-82590226D01*
X139333496Y-82758695D01*
X138017039Y-81442238D01*
X138035000Y-81351939D01*
X138035000Y-81148061D01*
X137995226Y-80948102D01*
X137917205Y-80759744D01*
X137803937Y-80590226D01*
X137760000Y-80546289D01*
X137760000Y-79453711D01*
X137803937Y-79409774D01*
X137917205Y-79240256D01*
X137995226Y-79051898D01*
X138035000Y-78851939D01*
X138035000Y-78648061D01*
X137995226Y-78448102D01*
X137917205Y-78259744D01*
X137803937Y-78090226D01*
X137659774Y-77946063D01*
X137490256Y-77832795D01*
X137301898Y-77754774D01*
X137101939Y-77715000D01*
X136898061Y-77715000D01*
X136698102Y-77754774D01*
X136509744Y-77832795D01*
X136340226Y-77946063D01*
X136196063Y-78090226D01*
X136082795Y-78259744D01*
X136004774Y-78448102D01*
X135965000Y-78648061D01*
X135965000Y-78851939D01*
X136004774Y-79051898D01*
X136082795Y-79240256D01*
X136196063Y-79409774D01*
X136240001Y-79453712D01*
X136240000Y-80546289D01*
X136196063Y-80590226D01*
X136082795Y-80759744D01*
X136004774Y-80948102D01*
X135965000Y-81148061D01*
X135965000Y-81351939D01*
X136004774Y-81551898D01*
X136082795Y-81740256D01*
X136196063Y-81909774D01*
X136340226Y-82053937D01*
X136509744Y-82167205D01*
X136650854Y-82225655D01*
X140339980Y-85914782D01*
X140339980Y-87015179D01*
X139563804Y-86239003D01*
X139540001Y-86209999D01*
X139424276Y-86115026D01*
X139292247Y-86044454D01*
X139148986Y-86000997D01*
X139037333Y-85990000D01*
X139037322Y-85990000D01*
X139000000Y-85986324D01*
X138962678Y-85990000D01*
X137787322Y-85990000D01*
X137749999Y-85986324D01*
X137712676Y-85990000D01*
X137712667Y-85990000D01*
X137601014Y-86000997D01*
X137457753Y-86044454D01*
X137325724Y-86115026D01*
X137209999Y-86209999D01*
X137186201Y-86238998D01*
X136960198Y-86465000D01*
X136898061Y-86465000D01*
X136698102Y-86504774D01*
X136509744Y-86582795D01*
X136340226Y-86696063D01*
X136196063Y-86840226D01*
X136082795Y-87009744D01*
X136004774Y-87198102D01*
X135965000Y-87398061D01*
X135965000Y-87601939D01*
X136004774Y-87801898D01*
X136082795Y-87990256D01*
X136196063Y-88159774D01*
X136340226Y-88303937D01*
X136509744Y-88417205D01*
X136698102Y-88495226D01*
X136898061Y-88535000D01*
X137101939Y-88535000D01*
X137301898Y-88495226D01*
X137490256Y-88417205D01*
X137635972Y-88319841D01*
X137696063Y-88409774D01*
X137840226Y-88553937D01*
X138009744Y-88667205D01*
X138198102Y-88745226D01*
X138398061Y-88785000D01*
X138601939Y-88785000D01*
X138801898Y-88745226D01*
X138990256Y-88667205D01*
X139119581Y-88580793D01*
X139439960Y-88901172D01*
X139439962Y-94162629D01*
X139436285Y-94199961D01*
X139450959Y-94348946D01*
X139494415Y-94492207D01*
X139564987Y-94624237D01*
X139633897Y-94708203D01*
X139659961Y-94739962D01*
X139688959Y-94763760D01*
X141990000Y-97064802D01*
X141990001Y-101185197D01*
X140989003Y-102186196D01*
X140959999Y-102209999D01*
X140915947Y-102263677D01*
X140865026Y-102325724D01*
X140851508Y-102351015D01*
X140794454Y-102457754D01*
X140750997Y-102601015D01*
X140740000Y-102712668D01*
X140740000Y-102712678D01*
X140736324Y-102750000D01*
X140740000Y-102787323D01*
X140740001Y-104496440D01*
X140698102Y-104504774D01*
X140509744Y-104582795D01*
X140340226Y-104696063D01*
X140196063Y-104840226D01*
X140082795Y-105009744D01*
X140004774Y-105198102D01*
X139965000Y-105398061D01*
X139965000Y-105601939D01*
X140004774Y-105801898D01*
X140082795Y-105990256D01*
X140196063Y-106159774D01*
X140340226Y-106303937D01*
X140509744Y-106417205D01*
X140698102Y-106495226D01*
X140898061Y-106535000D01*
X140960199Y-106535000D01*
X142039960Y-107614762D01*
X142039960Y-114715159D01*
X141813804Y-114489003D01*
X141790001Y-114459999D01*
X141674276Y-114365026D01*
X141542247Y-114294454D01*
X141398986Y-114250997D01*
X141287333Y-114240000D01*
X141287322Y-114240000D01*
X141250000Y-114236324D01*
X141212678Y-114240000D01*
X138154013Y-114240000D01*
X138053937Y-114090226D01*
X137909774Y-113946063D01*
X137740256Y-113832795D01*
X137551898Y-113754774D01*
X137351939Y-113715000D01*
X137148061Y-113715000D01*
X136948102Y-113754774D01*
X136759744Y-113832795D01*
X136590226Y-113946063D01*
X136446063Y-114090226D01*
X136332795Y-114259744D01*
X136254774Y-114448102D01*
X136215000Y-114648061D01*
X136215000Y-114851939D01*
X136254774Y-115051898D01*
X136332795Y-115240256D01*
X136446063Y-115409774D01*
X136590226Y-115553937D01*
X136759744Y-115667205D01*
X136948102Y-115745226D01*
X137148061Y-115785000D01*
X137351939Y-115785000D01*
X137477623Y-115760000D01*
X140935199Y-115760000D01*
X140990000Y-115814801D01*
X140990001Y-123435196D01*
X137935199Y-126490000D01*
X134203711Y-126490000D01*
X134159774Y-126446063D01*
X133990256Y-126332795D01*
X133801898Y-126254774D01*
X133601939Y-126215000D01*
X133398061Y-126215000D01*
X133198102Y-126254774D01*
X133009744Y-126332795D01*
X132840226Y-126446063D01*
X132696063Y-126590226D01*
X132582795Y-126759744D01*
X132504774Y-126948102D01*
X132465000Y-127148061D01*
X132465000Y-127351939D01*
X132504774Y-127551898D01*
X132582795Y-127740256D01*
X132696063Y-127909774D01*
X132840226Y-128053937D01*
X133009744Y-128167205D01*
X133198102Y-128245226D01*
X133398061Y-128285000D01*
X133601939Y-128285000D01*
X133801898Y-128245226D01*
X133990256Y-128167205D01*
X134159774Y-128053937D01*
X134203711Y-128010000D01*
X137892379Y-128010000D01*
X134412379Y-131490000D01*
X131950923Y-131490000D01*
X131913590Y-131486323D01*
X131876257Y-131490000D01*
X131764604Y-131500997D01*
X131621343Y-131544454D01*
X131489314Y-131615026D01*
X131373589Y-131709999D01*
X131349791Y-131738998D01*
X130619002Y-132469787D01*
X130589999Y-132493589D01*
X130551911Y-132540000D01*
X130495026Y-132609314D01*
X130460303Y-132674276D01*
X130440177Y-132711928D01*
X130280000Y-132711928D01*
X130155518Y-132724188D01*
X130035820Y-132760498D01*
X129925506Y-132819463D01*
X129828815Y-132898815D01*
X129749463Y-132995506D01*
X129690498Y-133105820D01*
X129654188Y-133225518D01*
X129641928Y-133350000D01*
X129641928Y-137650000D01*
X129654188Y-137774482D01*
X129690498Y-137894180D01*
X129749463Y-138004494D01*
X129828815Y-138101185D01*
X129925506Y-138180537D01*
X130035820Y-138239502D01*
X130155518Y-138275812D01*
X130280000Y-138288072D01*
X131980000Y-138288072D01*
X132104482Y-138275812D01*
X132224180Y-138239502D01*
X132334494Y-138180537D01*
X132400000Y-138126778D01*
X132465506Y-138180537D01*
X132575820Y-138239502D01*
X132695518Y-138275812D01*
X132820000Y-138288072D01*
X134520000Y-138288072D01*
X134644482Y-138275812D01*
X134764180Y-138239502D01*
X134874494Y-138180537D01*
X134940000Y-138126778D01*
X135005506Y-138180537D01*
X135115820Y-138239502D01*
X135235518Y-138275812D01*
X135360000Y-138288072D01*
X135924250Y-138285000D01*
X136083000Y-138126250D01*
X136083000Y-135627000D01*
X136063000Y-135627000D01*
X136063000Y-135373000D01*
X136083000Y-135373000D01*
X136083000Y-132873750D01*
X135948821Y-132739571D01*
X138290000Y-130398391D01*
X138290000Y-132711928D01*
X137900000Y-132711928D01*
X137775518Y-132724188D01*
X137655820Y-132760498D01*
X137545506Y-132819463D01*
X137480000Y-132873222D01*
X137414494Y-132819463D01*
X137304180Y-132760498D01*
X137184482Y-132724188D01*
X137060000Y-132711928D01*
X136495750Y-132715000D01*
X136337000Y-132873750D01*
X136337000Y-135373000D01*
X136357000Y-135373000D01*
X136357000Y-135627000D01*
X136337000Y-135627000D01*
X136337000Y-138126250D01*
X136495750Y-138285000D01*
X137060000Y-138288072D01*
X137184482Y-138275812D01*
X137304180Y-138239502D01*
X137414494Y-138180537D01*
X137480000Y-138126778D01*
X137545506Y-138180537D01*
X137655820Y-138239502D01*
X137775518Y-138275812D01*
X137900000Y-138288072D01*
X139600000Y-138288072D01*
X139724482Y-138275812D01*
X139844180Y-138239502D01*
X139954494Y-138180537D01*
X140051185Y-138101185D01*
X140130537Y-138004494D01*
X140189502Y-137894180D01*
X140225812Y-137774482D01*
X140238072Y-137650000D01*
X140238072Y-133451783D01*
X140340226Y-133553937D01*
X140509744Y-133667205D01*
X140698102Y-133745226D01*
X140898061Y-133785000D01*
X141101939Y-133785000D01*
X141301898Y-133745226D01*
X141490256Y-133667205D01*
X141659774Y-133553937D01*
X141803937Y-133409774D01*
X141917205Y-133240256D01*
X141995226Y-133051898D01*
X142035000Y-132851939D01*
X142035000Y-132648061D01*
X141995226Y-132448102D01*
X141927666Y-132285000D01*
X142101939Y-132285000D01*
X142301898Y-132245226D01*
X142490256Y-132167205D01*
X142659774Y-132053937D01*
X142803937Y-131909774D01*
X142917205Y-131740256D01*
X142995226Y-131551898D01*
X143035000Y-131351939D01*
X143035000Y-131148061D01*
X142995226Y-130948102D01*
X142917205Y-130759744D01*
X142803937Y-130590226D01*
X142760000Y-130546289D01*
X142760000Y-128064801D01*
X144790001Y-126034801D01*
X144790001Y-138590000D01*
X125605802Y-138590000D01*
X125659774Y-138553937D01*
X125803937Y-138409774D01*
X125917205Y-138240256D01*
X125995226Y-138051898D01*
X126035000Y-137851939D01*
X126035000Y-137648061D01*
X125995226Y-137448102D01*
X125917205Y-137259744D01*
X125803937Y-137090226D01*
X125659774Y-136946063D01*
X125490256Y-136832795D01*
X125301898Y-136754774D01*
X125260000Y-136746440D01*
X125260000Y-127838072D01*
X125275001Y-127838072D01*
X125448255Y-127821008D01*
X125614851Y-127770472D01*
X125768387Y-127688405D01*
X125902962Y-127577962D01*
X125908342Y-127571406D01*
X125973815Y-127651185D01*
X126070506Y-127730537D01*
X126180820Y-127789502D01*
X126300518Y-127825812D01*
X126425000Y-127838072D01*
X126714250Y-127835000D01*
X126873000Y-127676250D01*
X126873000Y-126627000D01*
X127127000Y-126627000D01*
X127127000Y-127676250D01*
X127285750Y-127835000D01*
X127575000Y-127838072D01*
X127699482Y-127825812D01*
X127819180Y-127789502D01*
X127929494Y-127730537D01*
X128026185Y-127651185D01*
X128105537Y-127554494D01*
X128164502Y-127444180D01*
X128200812Y-127324482D01*
X128213072Y-127200000D01*
X128210000Y-126785750D01*
X128051250Y-126627000D01*
X127127000Y-126627000D01*
X126873000Y-126627000D01*
X126853000Y-126627000D01*
X126853000Y-126373000D01*
X126873000Y-126373000D01*
X126873000Y-125323750D01*
X127127000Y-125323750D01*
X127127000Y-126373000D01*
X128051250Y-126373000D01*
X128210000Y-126214250D01*
X128213072Y-125800000D01*
X128200812Y-125675518D01*
X128164502Y-125555820D01*
X128105537Y-125445506D01*
X128026185Y-125348815D01*
X127929494Y-125269463D01*
X127819180Y-125210498D01*
X127699482Y-125174188D01*
X127575000Y-125161928D01*
X127285750Y-125165000D01*
X127127000Y-125323750D01*
X126873000Y-125323750D01*
X126714250Y-125165000D01*
X126425000Y-125161928D01*
X126300518Y-125174188D01*
X126180820Y-125210498D01*
X126070506Y-125269463D01*
X125973815Y-125348815D01*
X125908342Y-125428594D01*
X125902962Y-125422038D01*
X125768387Y-125311595D01*
X125614851Y-125229528D01*
X125448255Y-125178992D01*
X125275001Y-125161928D01*
X124624999Y-125161928D01*
X124451745Y-125178992D01*
X124285149Y-125229528D01*
X124210000Y-125269696D01*
X124210000Y-50383967D01*
X124259744Y-50417205D01*
X124448102Y-50495226D01*
X124648061Y-50535000D01*
X124851939Y-50535000D01*
X125051898Y-50495226D01*
X125240256Y-50417205D01*
X125409774Y-50303937D01*
X125553937Y-50159774D01*
X125667205Y-49990256D01*
X125745226Y-49801898D01*
X125785000Y-49601939D01*
X125785000Y-49398061D01*
X125745226Y-49198102D01*
X125667205Y-49009744D01*
X125618280Y-48936522D01*
X127751003Y-46803799D01*
X127770166Y-46788072D01*
X128090000Y-46788072D01*
X128214482Y-46775812D01*
X128215000Y-46775655D01*
X128215518Y-46775812D01*
X128340000Y-46788072D01*
X128740000Y-46788072D01*
X128864482Y-46775812D01*
X128865000Y-46775655D01*
X128865518Y-46775812D01*
X128990000Y-46788072D01*
X129390000Y-46788072D01*
X129514482Y-46775812D01*
X129517064Y-46775029D01*
X129608250Y-46785000D01*
X129676218Y-46717032D01*
X129744494Y-46680537D01*
X129841185Y-46601185D01*
X129913000Y-46513678D01*
X129913000Y-46626250D01*
X130071750Y-46785000D01*
X130174229Y-46773794D01*
X130293346Y-46735621D01*
X130402727Y-46674943D01*
X130498169Y-46594092D01*
X130576003Y-46496174D01*
X130629061Y-46393072D01*
X131435000Y-46393072D01*
X131559482Y-46380812D01*
X131679180Y-46344502D01*
X131789494Y-46285537D01*
X131886185Y-46206185D01*
X131965537Y-46109494D01*
X132024502Y-45999180D01*
X132060812Y-45879482D01*
X132073072Y-45755000D01*
X132073072Y-44397059D01*
X132082701Y-44387431D01*
X132115000Y-44390612D01*
X132342400Y-44368215D01*
X132561060Y-44301885D01*
X132762579Y-44194171D01*
X132939212Y-44049212D01*
X133084171Y-43872579D01*
X133176657Y-43699549D01*
X133178992Y-43723255D01*
X133229528Y-43889851D01*
X133311595Y-44043387D01*
X133422038Y-44177962D01*
X133509816Y-44250000D01*
X133422038Y-44322038D01*
X133311595Y-44456613D01*
X133229528Y-44610149D01*
X133178992Y-44776745D01*
X133161928Y-44949999D01*
X133161928Y-45476932D01*
X133101939Y-45465000D01*
X132898061Y-45465000D01*
X132698102Y-45504774D01*
X132509744Y-45582795D01*
X132340226Y-45696063D01*
X132196063Y-45840226D01*
X132082795Y-46009744D01*
X132004774Y-46198102D01*
X131965000Y-46398061D01*
X131965000Y-46460198D01*
X131363998Y-47061201D01*
X131335000Y-47084999D01*
X131311202Y-47113997D01*
X131311201Y-47113998D01*
X131240026Y-47200724D01*
X131169454Y-47332754D01*
X131162141Y-47356863D01*
X131125997Y-47476014D01*
X131115000Y-47587667D01*
X131115000Y-47587678D01*
X131111324Y-47625000D01*
X131115000Y-47662322D01*
X131115000Y-48060198D01*
X127239003Y-51936196D01*
X127238997Y-51936201D01*
X126967445Y-52207754D01*
X126738998Y-52436201D01*
X126710000Y-52459999D01*
X126686202Y-52488997D01*
X126686201Y-52488998D01*
X126615026Y-52575724D01*
X126544454Y-52707754D01*
X126500998Y-52851015D01*
X126486324Y-53000000D01*
X126490001Y-53037332D01*
X126490000Y-55546289D01*
X126446063Y-55590226D01*
X126332795Y-55759744D01*
X126254774Y-55948102D01*
X126215000Y-56148061D01*
X126215000Y-56351939D01*
X126254774Y-56551898D01*
X126332795Y-56740256D01*
X126446063Y-56909774D01*
X126490000Y-56953711D01*
X126490001Y-67462668D01*
X126486324Y-67500000D01*
X126490001Y-67537333D01*
X126500998Y-67648986D01*
X126503646Y-67657714D01*
X126544454Y-67792246D01*
X126615026Y-67924276D01*
X126676354Y-67999003D01*
X126710000Y-68040001D01*
X126738997Y-68063798D01*
X126740001Y-68064802D01*
X126740001Y-68185488D01*
X126667205Y-68009744D01*
X126553937Y-67840226D01*
X126409774Y-67696063D01*
X126240256Y-67582795D01*
X126051898Y-67504774D01*
X125851939Y-67465000D01*
X125648061Y-67465000D01*
X125448102Y-67504774D01*
X125259744Y-67582795D01*
X125090226Y-67696063D01*
X124946063Y-67840226D01*
X124832795Y-68009744D01*
X124754774Y-68198102D01*
X124715000Y-68398061D01*
X124715000Y-68601939D01*
X124754774Y-68801898D01*
X124832795Y-68990256D01*
X124946063Y-69159774D01*
X124990000Y-69203711D01*
X124990001Y-82212668D01*
X124986324Y-82250000D01*
X124989015Y-82277326D01*
X124965000Y-82398061D01*
X124965000Y-82601939D01*
X125004774Y-82801898D01*
X125082795Y-82990256D01*
X125196063Y-83159774D01*
X125340226Y-83303937D01*
X125509744Y-83417205D01*
X125698102Y-83495226D01*
X125898061Y-83535000D01*
X126101939Y-83535000D01*
X126301898Y-83495226D01*
X126490256Y-83417205D01*
X126659774Y-83303937D01*
X126740000Y-83223711D01*
X126740000Y-85345987D01*
X126590226Y-85446063D01*
X126446063Y-85590226D01*
X126332795Y-85759744D01*
X126254774Y-85948102D01*
X126215000Y-86148061D01*
X126215000Y-86351939D01*
X126254774Y-86551898D01*
X126332795Y-86740256D01*
X126446063Y-86909774D01*
X126490000Y-86953711D01*
X126490001Y-92212667D01*
X126486324Y-92250000D01*
X126500998Y-92398985D01*
X126544454Y-92542246D01*
X126615026Y-92674276D01*
X126676353Y-92749002D01*
X126710000Y-92790001D01*
X126738998Y-92813799D01*
X127740001Y-93814803D01*
X127740000Y-113296289D01*
X127696063Y-113340226D01*
X127582795Y-113509744D01*
X127504774Y-113698102D01*
X127465000Y-113898061D01*
X127465000Y-114101939D01*
X127504774Y-114301898D01*
X127582795Y-114490256D01*
X127696063Y-114659774D01*
X127840226Y-114803937D01*
X128009744Y-114917205D01*
X128198102Y-114995226D01*
X128398061Y-115035000D01*
X128601939Y-115035000D01*
X128801898Y-114995226D01*
X128990256Y-114917205D01*
X128994776Y-114914185D01*
X128986324Y-115000000D01*
X128990001Y-115037332D01*
X128990000Y-123046289D01*
X128946063Y-123090226D01*
X128832795Y-123259744D01*
X128754774Y-123448102D01*
X128715000Y-123648061D01*
X128715000Y-123851939D01*
X128754774Y-124051898D01*
X128832795Y-124240256D01*
X128946063Y-124409774D01*
X129090226Y-124553937D01*
X129259744Y-124667205D01*
X129448102Y-124745226D01*
X129648061Y-124785000D01*
X129851939Y-124785000D01*
X130051898Y-124745226D01*
X130240256Y-124667205D01*
X130409774Y-124553937D01*
X130553937Y-124409774D01*
X130667205Y-124240256D01*
X130745226Y-124051898D01*
X130785000Y-123851939D01*
X130785000Y-123648061D01*
X130745226Y-123448102D01*
X130667205Y-123259744D01*
X130553937Y-123090226D01*
X130510000Y-123046289D01*
X130510000Y-120900000D01*
X132361928Y-120900000D01*
X132361928Y-123900000D01*
X132374188Y-124024482D01*
X132410498Y-124144180D01*
X132469463Y-124254494D01*
X132548815Y-124351185D01*
X132645506Y-124430537D01*
X132755820Y-124489502D01*
X132875518Y-124525812D01*
X133000000Y-124538072D01*
X136000000Y-124538072D01*
X136124482Y-124525812D01*
X136244180Y-124489502D01*
X136354494Y-124430537D01*
X136451185Y-124351185D01*
X136530537Y-124254494D01*
X136589502Y-124144180D01*
X136625812Y-124024482D01*
X136638072Y-123900000D01*
X136638072Y-120900000D01*
X136625812Y-120775518D01*
X136589502Y-120655820D01*
X136530537Y-120545506D01*
X136451185Y-120448815D01*
X136354494Y-120369463D01*
X136244180Y-120310498D01*
X136124482Y-120274188D01*
X136000000Y-120261928D01*
X133000000Y-120261928D01*
X132875518Y-120274188D01*
X132755820Y-120310498D01*
X132645506Y-120369463D01*
X132548815Y-120448815D01*
X132469463Y-120545506D01*
X132410498Y-120655820D01*
X132374188Y-120775518D01*
X132361928Y-120900000D01*
X130510000Y-120900000D01*
X130510000Y-115314801D01*
X130760998Y-115063803D01*
X130790001Y-115040001D01*
X130884974Y-114924276D01*
X130955546Y-114792247D01*
X130970386Y-114743325D01*
X131053937Y-114659774D01*
X131167205Y-114490256D01*
X131245226Y-114301898D01*
X131285000Y-114101939D01*
X131285000Y-113898061D01*
X131245226Y-113698102D01*
X131167205Y-113509744D01*
X131053937Y-113340226D01*
X131010000Y-113296289D01*
X131010000Y-113287325D01*
X131013676Y-113250000D01*
X131010000Y-113212675D01*
X131010000Y-113212667D01*
X130999003Y-113101014D01*
X130955546Y-112957753D01*
X130884974Y-112825724D01*
X130790001Y-112709999D01*
X130760998Y-112686197D01*
X130510000Y-112435199D01*
X130510000Y-112398061D01*
X136215000Y-112398061D01*
X136215000Y-112601939D01*
X136254774Y-112801898D01*
X136332795Y-112990256D01*
X136446063Y-113159774D01*
X136590226Y-113303937D01*
X136759744Y-113417205D01*
X136948102Y-113495226D01*
X137148061Y-113535000D01*
X137351939Y-113535000D01*
X137551898Y-113495226D01*
X137740256Y-113417205D01*
X137909774Y-113303937D01*
X137953711Y-113260000D01*
X140296289Y-113260000D01*
X140340226Y-113303937D01*
X140509744Y-113417205D01*
X140698102Y-113495226D01*
X140898061Y-113535000D01*
X141101939Y-113535000D01*
X141301898Y-113495226D01*
X141490256Y-113417205D01*
X141659774Y-113303937D01*
X141803937Y-113159774D01*
X141917205Y-112990256D01*
X141995226Y-112801898D01*
X142035000Y-112601939D01*
X142035000Y-112398061D01*
X141995226Y-112198102D01*
X141917205Y-112009744D01*
X141803937Y-111840226D01*
X141659774Y-111696063D01*
X141490256Y-111582795D01*
X141301898Y-111504774D01*
X141101939Y-111465000D01*
X140898061Y-111465000D01*
X140698102Y-111504774D01*
X140509744Y-111582795D01*
X140340226Y-111696063D01*
X140296289Y-111740000D01*
X137953711Y-111740000D01*
X137909774Y-111696063D01*
X137740256Y-111582795D01*
X137551898Y-111504774D01*
X137351939Y-111465000D01*
X137148061Y-111465000D01*
X136948102Y-111504774D01*
X136759744Y-111582795D01*
X136590226Y-111696063D01*
X136446063Y-111840226D01*
X136332795Y-112009744D01*
X136254774Y-112198102D01*
X136215000Y-112398061D01*
X130510000Y-112398061D01*
X130510000Y-92787323D01*
X130513676Y-92750000D01*
X130510000Y-92712677D01*
X130510000Y-92712667D01*
X130499003Y-92601014D01*
X130455546Y-92457753D01*
X130437652Y-92424276D01*
X130384974Y-92325723D01*
X130316332Y-92242083D01*
X130290001Y-92209999D01*
X130261004Y-92186202D01*
X129260000Y-91185199D01*
X129260000Y-91167311D01*
X129448102Y-91245226D01*
X129648061Y-91285000D01*
X129851939Y-91285000D01*
X130051898Y-91245226D01*
X130240256Y-91167205D01*
X130409774Y-91053937D01*
X130553937Y-90909774D01*
X130667205Y-90740256D01*
X130745226Y-90551898D01*
X130785000Y-90351939D01*
X130785000Y-90148061D01*
X130745226Y-89948102D01*
X130667205Y-89759744D01*
X130553937Y-89590226D01*
X130510000Y-89546289D01*
X130510000Y-85500000D01*
X130736324Y-85500000D01*
X130740000Y-85537323D01*
X130740001Y-89212668D01*
X130736324Y-89250000D01*
X130750998Y-89398985D01*
X130794454Y-89542246D01*
X130865026Y-89674276D01*
X130895175Y-89711012D01*
X130960000Y-89790001D01*
X130988998Y-89813799D01*
X133686201Y-92511003D01*
X133709999Y-92540001D01*
X133825724Y-92634974D01*
X133957753Y-92705546D01*
X134101014Y-92749003D01*
X134212667Y-92760000D01*
X134212676Y-92760000D01*
X134249999Y-92763676D01*
X134287322Y-92760000D01*
X136240001Y-92760000D01*
X136240000Y-96212667D01*
X136240000Y-96787332D01*
X136240001Y-96787339D01*
X136240000Y-97546289D01*
X136196063Y-97590226D01*
X136082795Y-97759744D01*
X136004774Y-97948102D01*
X135965000Y-98148061D01*
X135965000Y-98351939D01*
X136004774Y-98551898D01*
X136082795Y-98740256D01*
X136196063Y-98909774D01*
X136340226Y-99053937D01*
X136509744Y-99167205D01*
X136698102Y-99245226D01*
X136898061Y-99285000D01*
X137101939Y-99285000D01*
X137301898Y-99245226D01*
X137365000Y-99219088D01*
X137365000Y-99310198D01*
X134738998Y-101936201D01*
X134710000Y-101959999D01*
X134686202Y-101988997D01*
X134686201Y-101988998D01*
X134615026Y-102075724D01*
X134544454Y-102207754D01*
X134500998Y-102351015D01*
X134486324Y-102500000D01*
X134490001Y-102537332D01*
X134490000Y-106046289D01*
X134446063Y-106090226D01*
X134332795Y-106259744D01*
X134254774Y-106448102D01*
X134215000Y-106648061D01*
X134215000Y-106851939D01*
X134254774Y-107051898D01*
X134332795Y-107240256D01*
X134446063Y-107409774D01*
X134590226Y-107553937D01*
X134759744Y-107667205D01*
X134948102Y-107745226D01*
X135148061Y-107785000D01*
X135351939Y-107785000D01*
X135551898Y-107745226D01*
X135740256Y-107667205D01*
X135909774Y-107553937D01*
X136053937Y-107409774D01*
X136167205Y-107240256D01*
X136245226Y-107051898D01*
X136285000Y-106851939D01*
X136285000Y-106648061D01*
X136245226Y-106448102D01*
X136167205Y-106259744D01*
X136053937Y-106090226D01*
X136010000Y-106046289D01*
X136010000Y-102814801D01*
X138636004Y-100188798D01*
X138665001Y-100165001D01*
X138691332Y-100132917D01*
X138759974Y-100049277D01*
X138830546Y-99917247D01*
X138830546Y-99917246D01*
X138874003Y-99773986D01*
X138885000Y-99662333D01*
X138885000Y-99662323D01*
X138888676Y-99625000D01*
X138885000Y-99587678D01*
X138885000Y-93189801D01*
X139010998Y-93063803D01*
X139040001Y-93040001D01*
X139134974Y-92924276D01*
X139205546Y-92792247D01*
X139249003Y-92648986D01*
X139260000Y-92537333D01*
X139260000Y-92537324D01*
X139263676Y-92500001D01*
X139260000Y-92462678D01*
X139260000Y-91537322D01*
X139263676Y-91499999D01*
X139260000Y-91462676D01*
X139260000Y-91462667D01*
X139249003Y-91351014D01*
X139205546Y-91207753D01*
X139134974Y-91075724D01*
X139040001Y-90959999D01*
X139011002Y-90936201D01*
X138313803Y-90239002D01*
X138290001Y-90209999D01*
X138174276Y-90115026D01*
X138042247Y-90044454D01*
X137898986Y-90000997D01*
X137787333Y-89990000D01*
X137787322Y-89990000D01*
X137750000Y-89986324D01*
X137712678Y-89990000D01*
X136814802Y-89990000D01*
X136272347Y-89447546D01*
X136272347Y-89385408D01*
X136232573Y-89185449D01*
X136154552Y-88997091D01*
X136041284Y-88827573D01*
X135897121Y-88683410D01*
X135727603Y-88570142D01*
X135539245Y-88492121D01*
X135339286Y-88452347D01*
X135135408Y-88452347D01*
X134935449Y-88492121D01*
X134747091Y-88570142D01*
X134577573Y-88683410D01*
X134433410Y-88827573D01*
X134320142Y-88997091D01*
X134242121Y-89185449D01*
X134202347Y-89385408D01*
X134202347Y-89589286D01*
X134242121Y-89789245D01*
X134320142Y-89977603D01*
X134433410Y-90147121D01*
X134577573Y-90291284D01*
X134747091Y-90404552D01*
X134935449Y-90482573D01*
X135135408Y-90522347D01*
X135197546Y-90522347D01*
X135915198Y-91240000D01*
X134564802Y-91240000D01*
X132260000Y-88935199D01*
X132260000Y-86917311D01*
X132448102Y-86995226D01*
X132648061Y-87035000D01*
X132851939Y-87035000D01*
X133051898Y-86995226D01*
X133240256Y-86917205D01*
X133409774Y-86803937D01*
X133553937Y-86659774D01*
X133667205Y-86490256D01*
X133745226Y-86301898D01*
X133785000Y-86101939D01*
X133785000Y-86039801D01*
X135364292Y-84460510D01*
X135448102Y-84495226D01*
X135648061Y-84535000D01*
X135851939Y-84535000D01*
X136051898Y-84495226D01*
X136240256Y-84417205D01*
X136409774Y-84303937D01*
X136553937Y-84159774D01*
X136667205Y-83990256D01*
X136745226Y-83801898D01*
X136785000Y-83601939D01*
X136785000Y-83398061D01*
X136745226Y-83198102D01*
X136667205Y-83009744D01*
X136553937Y-82840226D01*
X136409774Y-82696063D01*
X136240256Y-82582795D01*
X136051898Y-82504774D01*
X135851939Y-82465000D01*
X135648061Y-82465000D01*
X135448102Y-82504774D01*
X135259744Y-82582795D01*
X135090226Y-82696063D01*
X135006675Y-82779614D01*
X134972433Y-82790001D01*
X134957753Y-82794454D01*
X134825723Y-82865026D01*
X134753526Y-82924277D01*
X134709999Y-82959999D01*
X134686201Y-82988997D01*
X132760000Y-84915199D01*
X132760000Y-81953711D01*
X132803937Y-81909774D01*
X132917205Y-81740256D01*
X132995226Y-81551898D01*
X133035000Y-81351939D01*
X133035000Y-81148061D01*
X132995226Y-80948102D01*
X132917205Y-80759744D01*
X132803937Y-80590226D01*
X132760000Y-80546289D01*
X132760000Y-78703711D01*
X132803937Y-78659774D01*
X132917205Y-78490256D01*
X132995226Y-78301898D01*
X133035000Y-78101939D01*
X133035000Y-77898061D01*
X132995226Y-77698102D01*
X132917205Y-77509744D01*
X132803937Y-77340226D01*
X132659774Y-77196063D01*
X132490256Y-77082795D01*
X132301898Y-77004774D01*
X132101939Y-76965000D01*
X131898061Y-76965000D01*
X131698102Y-77004774D01*
X131509744Y-77082795D01*
X131340226Y-77196063D01*
X131196063Y-77340226D01*
X131082795Y-77509744D01*
X131004774Y-77698102D01*
X130965000Y-77898061D01*
X130965000Y-78101939D01*
X131004774Y-78301898D01*
X131082795Y-78490256D01*
X131196063Y-78659774D01*
X131240000Y-78703711D01*
X131240001Y-80546288D01*
X131196063Y-80590226D01*
X131082795Y-80759744D01*
X131004774Y-80948102D01*
X130965000Y-81148061D01*
X130965000Y-81351939D01*
X131004774Y-81551898D01*
X131082795Y-81740256D01*
X131196063Y-81909774D01*
X131240000Y-81953711D01*
X131240001Y-84685198D01*
X130989003Y-84936196D01*
X130959999Y-84959999D01*
X130904871Y-85027174D01*
X130865026Y-85075724D01*
X130811586Y-85175703D01*
X130794454Y-85207754D01*
X130750997Y-85351015D01*
X130740000Y-85462668D01*
X130740000Y-85462678D01*
X130736324Y-85500000D01*
X130510000Y-85500000D01*
X130510000Y-75564801D01*
X134789802Y-71285000D01*
X134851939Y-71285000D01*
X135051898Y-71245226D01*
X135240256Y-71167205D01*
X135409774Y-71053937D01*
X135553937Y-70909774D01*
X135667205Y-70740256D01*
X135745226Y-70551898D01*
X135785000Y-70351939D01*
X135785000Y-70148061D01*
X135745226Y-69948102D01*
X135667205Y-69759744D01*
X135553937Y-69590226D01*
X135409774Y-69446063D01*
X135240256Y-69332795D01*
X135051898Y-69254774D01*
X134851939Y-69215000D01*
X134648061Y-69215000D01*
X134448102Y-69254774D01*
X134259744Y-69332795D01*
X134090226Y-69446063D01*
X133946063Y-69590226D01*
X133832795Y-69759744D01*
X133754774Y-69948102D01*
X133715000Y-70148061D01*
X133715000Y-70210198D01*
X129260000Y-74665199D01*
X129260000Y-53814801D01*
X132594958Y-50479844D01*
X132607988Y-50511302D01*
X132841637Y-50860983D01*
X133139017Y-51158363D01*
X133488698Y-51392012D01*
X133877244Y-51552953D01*
X134289721Y-51635000D01*
X134710279Y-51635000D01*
X135122756Y-51552953D01*
X135511302Y-51392012D01*
X135860983Y-51158363D01*
X136158363Y-50860983D01*
X136392012Y-50511302D01*
X136552953Y-50122756D01*
X136635000Y-49710279D01*
X136635000Y-49289721D01*
X136552953Y-48877244D01*
X136392012Y-48488698D01*
X136158363Y-48139017D01*
X135952281Y-47932935D01*
X135990256Y-47917205D01*
X136159774Y-47803937D01*
X136250000Y-47713711D01*
X136340226Y-47803937D01*
X136509744Y-47917205D01*
X136698102Y-47995226D01*
X136898061Y-48035000D01*
X137101939Y-48035000D01*
X137301898Y-47995226D01*
X137490256Y-47917205D01*
X137659774Y-47803937D01*
X137803937Y-47659774D01*
X137917205Y-47490256D01*
X137995226Y-47301898D01*
X138026805Y-47143137D01*
X142175000Y-47143137D01*
X142175000Y-47356863D01*
X142216696Y-47566483D01*
X142298485Y-47763940D01*
X142417225Y-47941647D01*
X142568353Y-48092775D01*
X142746060Y-48211515D01*
X142943517Y-48293304D01*
X143153137Y-48335000D01*
X143366863Y-48335000D01*
X143576483Y-48293304D01*
X143773940Y-48211515D01*
X143951647Y-48092775D01*
X144102775Y-47941647D01*
X144221515Y-47763940D01*
X144303304Y-47566483D01*
X144345000Y-47356863D01*
X144345000Y-47143137D01*
X144303304Y-46933517D01*
X144221515Y-46736060D01*
X144102775Y-46558353D01*
X143951647Y-46407225D01*
X143773940Y-46288485D01*
X143576483Y-46206696D01*
X143366863Y-46165000D01*
X143153137Y-46165000D01*
X142943517Y-46206696D01*
X142746060Y-46288485D01*
X142568353Y-46407225D01*
X142417225Y-46558353D01*
X142298485Y-46736060D01*
X142216696Y-46933517D01*
X142175000Y-47143137D01*
X138026805Y-47143137D01*
X138035000Y-47101939D01*
X138035000Y-46898061D01*
X137995226Y-46698102D01*
X137917205Y-46509744D01*
X137803937Y-46340226D01*
X137739375Y-46275664D01*
X137804515Y-46222205D01*
X137848815Y-46276185D01*
X137945506Y-46355537D01*
X138055820Y-46414502D01*
X138175518Y-46450812D01*
X138300000Y-46463072D01*
X138714250Y-46460000D01*
X138873000Y-46301250D01*
X138873000Y-45377000D01*
X139127000Y-45377000D01*
X139127000Y-46301250D01*
X139285750Y-46460000D01*
X139700000Y-46463072D01*
X139824482Y-46450812D01*
X139944180Y-46414502D01*
X140054494Y-46355537D01*
X140151185Y-46276185D01*
X140230537Y-46179494D01*
X140289502Y-46069180D01*
X140325812Y-45949482D01*
X140338072Y-45825000D01*
X140335000Y-45535750D01*
X140176250Y-45377000D01*
X139127000Y-45377000D01*
X138873000Y-45377000D01*
X138853000Y-45377000D01*
X138853000Y-45123000D01*
X138873000Y-45123000D01*
X138873000Y-45103000D01*
X139127000Y-45103000D01*
X139127000Y-45123000D01*
X140176250Y-45123000D01*
X140335000Y-44964250D01*
X140338072Y-44675000D01*
X140325812Y-44550518D01*
X140289502Y-44430820D01*
X140230537Y-44320506D01*
X140151185Y-44223815D01*
X140071406Y-44158342D01*
X140077962Y-44152962D01*
X140086025Y-44143137D01*
X142175000Y-44143137D01*
X142175000Y-44356863D01*
X142216696Y-44566483D01*
X142298485Y-44763940D01*
X142417225Y-44941647D01*
X142568353Y-45092775D01*
X142746060Y-45211515D01*
X142943517Y-45293304D01*
X143153137Y-45335000D01*
X143366863Y-45335000D01*
X143576483Y-45293304D01*
X143773940Y-45211515D01*
X143951647Y-45092775D01*
X144102775Y-44941647D01*
X144221515Y-44763940D01*
X144303304Y-44566483D01*
X144345000Y-44356863D01*
X144345000Y-44143137D01*
X144303304Y-43933517D01*
X144221515Y-43736060D01*
X144102775Y-43558353D01*
X143951647Y-43407225D01*
X143773940Y-43288485D01*
X143576483Y-43206696D01*
X143366863Y-43165000D01*
X143153137Y-43165000D01*
X142943517Y-43206696D01*
X142746060Y-43288485D01*
X142568353Y-43407225D01*
X142417225Y-43558353D01*
X142298485Y-43736060D01*
X142216696Y-43933517D01*
X142175000Y-44143137D01*
X140086025Y-44143137D01*
X140188405Y-44018387D01*
X140270472Y-43864851D01*
X140321008Y-43698255D01*
X140338072Y-43525001D01*
X140338072Y-42874999D01*
X140321008Y-42701745D01*
X140270472Y-42535149D01*
X140188405Y-42381613D01*
X140077962Y-42247038D01*
X140016218Y-42196366D01*
X140035000Y-42101939D01*
X140035000Y-41898061D01*
X139995226Y-41698102D01*
X139948377Y-41585000D01*
X144790000Y-41585000D01*
X144790000Y-86252407D01*
M02*
