G04 #@! TF.GenerationSoftware,KiCad,Pcbnew,(5.1.6)-1*
G04 #@! TF.CreationDate,2021-08-10T23:40:34-03:00*
G04 #@! TF.ProjectId,TPH_Logger,5450485f-4c6f-4676-9765-722e6b696361,rev?*
G04 #@! TF.SameCoordinates,Original*
G04 #@! TF.FileFunction,Paste,Bot*
G04 #@! TF.FilePolarity,Positive*
%FSLAX46Y46*%
G04 Gerber Fmt 4.6, Leading zero omitted, Abs format (unit mm)*
G04 Created by KiCad (PCBNEW (5.1.6)-1) date 2021-08-10 23:40:34*
%MOMM*%
%LPD*%
G01*
G04 APERTURE LIST*
%ADD10R,1.150000X1.450000*%
%ADD11R,1.750000X1.900000*%
%ADD12R,0.400000X1.400000*%
%ADD13R,1.700000X4.300000*%
G04 APERTURE END LIST*
G36*
G01*
X137200001Y-43775000D02*
X136299999Y-43775000D01*
G75*
G02*
X136050000Y-43525001I0J249999D01*
G01*
X136050000Y-42874999D01*
G75*
G02*
X136299999Y-42625000I249999J0D01*
G01*
X137200001Y-42625000D01*
G75*
G02*
X137450000Y-42874999I0J-249999D01*
G01*
X137450000Y-43525001D01*
G75*
G02*
X137200001Y-43775000I-249999J0D01*
G01*
G37*
G36*
G01*
X137200001Y-45825000D02*
X136299999Y-45825000D01*
G75*
G02*
X136050000Y-45575001I0J249999D01*
G01*
X136050000Y-44924999D01*
G75*
G02*
X136299999Y-44675000I249999J0D01*
G01*
X137200001Y-44675000D01*
G75*
G02*
X137450000Y-44924999I0J-249999D01*
G01*
X137450000Y-45575001D01*
G75*
G02*
X137200001Y-45825000I-249999J0D01*
G01*
G37*
G36*
G01*
X134950001Y-45850000D02*
X134049999Y-45850000D01*
G75*
G02*
X133800000Y-45600001I0J249999D01*
G01*
X133800000Y-44949999D01*
G75*
G02*
X134049999Y-44700000I249999J0D01*
G01*
X134950001Y-44700000D01*
G75*
G02*
X135200000Y-44949999I0J-249999D01*
G01*
X135200000Y-45600001D01*
G75*
G02*
X134950001Y-45850000I-249999J0D01*
G01*
G37*
G36*
G01*
X134950001Y-43800000D02*
X134049999Y-43800000D01*
G75*
G02*
X133800000Y-43550001I0J249999D01*
G01*
X133800000Y-42899999D01*
G75*
G02*
X134049999Y-42650000I249999J0D01*
G01*
X134950001Y-42650000D01*
G75*
G02*
X135200000Y-42899999I0J-249999D01*
G01*
X135200000Y-43550001D01*
G75*
G02*
X134950001Y-43800000I-249999J0D01*
G01*
G37*
G36*
G01*
X125525000Y-126049999D02*
X125525000Y-126950001D01*
G75*
G02*
X125275001Y-127200000I-249999J0D01*
G01*
X124624999Y-127200000D01*
G75*
G02*
X124375000Y-126950001I0J249999D01*
G01*
X124375000Y-126049999D01*
G75*
G02*
X124624999Y-125800000I249999J0D01*
G01*
X125275001Y-125800000D01*
G75*
G02*
X125525000Y-126049999I0J-249999D01*
G01*
G37*
G36*
G01*
X127575000Y-126049999D02*
X127575000Y-126950001D01*
G75*
G02*
X127325001Y-127200000I-249999J0D01*
G01*
X126674999Y-127200000D01*
G75*
G02*
X126425000Y-126950001I0J249999D01*
G01*
X126425000Y-126049999D01*
G75*
G02*
X126674999Y-125800000I249999J0D01*
G01*
X127325001Y-125800000D01*
G75*
G02*
X127575000Y-126049999I0J-249999D01*
G01*
G37*
D10*
X126220000Y-45030000D03*
X130860000Y-45030000D03*
D11*
X127415000Y-42800000D03*
D12*
X128540000Y-45450000D03*
X129190000Y-45450000D03*
X129840000Y-45450000D03*
X127240000Y-45450000D03*
X127890000Y-45450000D03*
D11*
X129665000Y-42800000D03*
D13*
X133670000Y-135500000D03*
X131130000Y-135500000D03*
X136210000Y-135500000D03*
X138750000Y-135500000D03*
G36*
G01*
X139450001Y-45825000D02*
X138549999Y-45825000D01*
G75*
G02*
X138300000Y-45575001I0J249999D01*
G01*
X138300000Y-44924999D01*
G75*
G02*
X138549999Y-44675000I249999J0D01*
G01*
X139450001Y-44675000D01*
G75*
G02*
X139700000Y-44924999I0J-249999D01*
G01*
X139700000Y-45575001D01*
G75*
G02*
X139450001Y-45825000I-249999J0D01*
G01*
G37*
G36*
G01*
X139450001Y-43775000D02*
X138549999Y-43775000D01*
G75*
G02*
X138300000Y-43525001I0J249999D01*
G01*
X138300000Y-42874999D01*
G75*
G02*
X138549999Y-42625000I249999J0D01*
G01*
X139450001Y-42625000D01*
G75*
G02*
X139700000Y-42874999I0J-249999D01*
G01*
X139700000Y-43525001D01*
G75*
G02*
X139450001Y-43775000I-249999J0D01*
G01*
G37*
M02*
