G04 #@! TF.GenerationSoftware,KiCad,Pcbnew,(5.1.6)-1*
G04 #@! TF.CreationDate,2021-08-10T23:40:34-03:00*
G04 #@! TF.ProjectId,TPH_Logger,5450485f-4c6f-4676-9765-722e6b696361,rev?*
G04 #@! TF.SameCoordinates,Original*
G04 #@! TF.FileFunction,Soldermask,Top*
G04 #@! TF.FilePolarity,Negative*
%FSLAX46Y46*%
G04 Gerber Fmt 4.6, Leading zero omitted, Abs format (unit mm)*
G04 Created by KiCad (PCBNEW (5.1.6)-1) date 2021-08-10 23:40:34*
%MOMM*%
%LPD*%
G01*
G04 APERTURE LIST*
%ADD10R,2.600000X2.400000*%
%ADD11C,1.000000*%
%ADD12R,1.600000X0.800000*%
%ADD13R,0.900000X1.100000*%
%ADD14R,0.900000X1.000000*%
%ADD15C,0.100000*%
%ADD16R,0.750000X1.660000*%
%ADD17R,2.500000X2.000000*%
%ADD18O,1.150000X2.000000*%
%ADD19C,3.100000*%
%ADD20R,3.100000X3.100000*%
%ADD21R,1.776400X0.912800*%
%ADD22R,1.497000X1.395400*%
%ADD23R,1.801800X1.598600*%
%ADD24R,1.598600X1.801800*%
%ADD25R,1.395400X1.395400*%
%ADD26R,1.598600X1.700200*%
%ADD27R,1.300000X1.000000*%
G04 APERTURE END LIST*
D10*
X129750000Y-47500000D03*
X125450000Y-47500000D03*
D11*
X143260000Y-47250000D03*
X143260000Y-44250000D03*
D12*
X141500000Y-48000000D03*
X141500000Y-45000000D03*
X141500000Y-43500000D03*
D13*
X144360000Y-49400000D03*
X144360000Y-42100000D03*
X142150000Y-42100000D03*
X142150000Y-49400000D03*
G36*
G01*
X143225000Y-75237500D02*
X143225000Y-75762500D01*
G75*
G02*
X142962500Y-76025000I-262500J0D01*
G01*
X142312500Y-76025000D01*
G75*
G02*
X142050000Y-75762500I0J262500D01*
G01*
X142050000Y-75237500D01*
G75*
G02*
X142312500Y-74975000I262500J0D01*
G01*
X142962500Y-74975000D01*
G75*
G02*
X143225000Y-75237500I0J-262500D01*
G01*
G37*
G36*
G01*
X144950000Y-75237500D02*
X144950000Y-75762500D01*
G75*
G02*
X144687500Y-76025000I-262500J0D01*
G01*
X144037500Y-76025000D01*
G75*
G02*
X143775000Y-75762500I0J262500D01*
G01*
X143775000Y-75237500D01*
G75*
G02*
X144037500Y-74975000I262500J0D01*
G01*
X144687500Y-74975000D01*
G75*
G02*
X144950000Y-75237500I0J-262500D01*
G01*
G37*
G36*
G01*
X143225000Y-73487500D02*
X143225000Y-74012500D01*
G75*
G02*
X142962500Y-74275000I-262500J0D01*
G01*
X142312500Y-74275000D01*
G75*
G02*
X142050000Y-74012500I0J262500D01*
G01*
X142050000Y-73487500D01*
G75*
G02*
X142312500Y-73225000I262500J0D01*
G01*
X142962500Y-73225000D01*
G75*
G02*
X143225000Y-73487500I0J-262500D01*
G01*
G37*
G36*
G01*
X144950000Y-73487500D02*
X144950000Y-74012500D01*
G75*
G02*
X144687500Y-74275000I-262500J0D01*
G01*
X144037500Y-74275000D01*
G75*
G02*
X143775000Y-74012500I0J262500D01*
G01*
X143775000Y-73487500D01*
G75*
G02*
X144037500Y-73225000I262500J0D01*
G01*
X144687500Y-73225000D01*
G75*
G02*
X144950000Y-73487500I0J-262500D01*
G01*
G37*
G36*
G01*
X144950000Y-71737500D02*
X144950000Y-72262500D01*
G75*
G02*
X144687500Y-72525000I-262500J0D01*
G01*
X144037500Y-72525000D01*
G75*
G02*
X143775000Y-72262500I0J262500D01*
G01*
X143775000Y-71737500D01*
G75*
G02*
X144037500Y-71475000I262500J0D01*
G01*
X144687500Y-71475000D01*
G75*
G02*
X144950000Y-71737500I0J-262500D01*
G01*
G37*
G36*
G01*
X143225000Y-71737500D02*
X143225000Y-72262500D01*
G75*
G02*
X142962500Y-72525000I-262500J0D01*
G01*
X142312500Y-72525000D01*
G75*
G02*
X142050000Y-72262500I0J262500D01*
G01*
X142050000Y-71737500D01*
G75*
G02*
X142312500Y-71475000I262500J0D01*
G01*
X142962500Y-71475000D01*
G75*
G02*
X143225000Y-71737500I0J-262500D01*
G01*
G37*
G36*
G01*
X144950000Y-76987500D02*
X144950000Y-77512500D01*
G75*
G02*
X144687500Y-77775000I-262500J0D01*
G01*
X144037500Y-77775000D01*
G75*
G02*
X143775000Y-77512500I0J262500D01*
G01*
X143775000Y-76987500D01*
G75*
G02*
X144037500Y-76725000I262500J0D01*
G01*
X144687500Y-76725000D01*
G75*
G02*
X144950000Y-76987500I0J-262500D01*
G01*
G37*
G36*
G01*
X143225000Y-76987500D02*
X143225000Y-77512500D01*
G75*
G02*
X142962500Y-77775000I-262500J0D01*
G01*
X142312500Y-77775000D01*
G75*
G02*
X142050000Y-77512500I0J262500D01*
G01*
X142050000Y-76987500D01*
G75*
G02*
X142312500Y-76725000I262500J0D01*
G01*
X142962500Y-76725000D01*
G75*
G02*
X143225000Y-76987500I0J-262500D01*
G01*
G37*
G36*
G01*
X139075000Y-76987500D02*
X139075000Y-77512500D01*
G75*
G02*
X138812500Y-77775000I-262500J0D01*
G01*
X138187500Y-77775000D01*
G75*
G02*
X137925000Y-77512500I0J262500D01*
G01*
X137925000Y-76987500D01*
G75*
G02*
X138187500Y-76725000I262500J0D01*
G01*
X138812500Y-76725000D01*
G75*
G02*
X139075000Y-76987500I0J-262500D01*
G01*
G37*
G36*
G01*
X140825000Y-76987500D02*
X140825000Y-77512500D01*
G75*
G02*
X140562500Y-77775000I-262500J0D01*
G01*
X139937500Y-77775000D01*
G75*
G02*
X139675000Y-77512500I0J262500D01*
G01*
X139675000Y-76987500D01*
G75*
G02*
X139937500Y-76725000I262500J0D01*
G01*
X140562500Y-76725000D01*
G75*
G02*
X140825000Y-76987500I0J-262500D01*
G01*
G37*
G36*
G01*
X139087500Y-73487500D02*
X139087500Y-74012500D01*
G75*
G02*
X138825000Y-74275000I-262500J0D01*
G01*
X138200000Y-74275000D01*
G75*
G02*
X137937500Y-74012500I0J262500D01*
G01*
X137937500Y-73487500D01*
G75*
G02*
X138200000Y-73225000I262500J0D01*
G01*
X138825000Y-73225000D01*
G75*
G02*
X139087500Y-73487500I0J-262500D01*
G01*
G37*
G36*
G01*
X140837500Y-73487500D02*
X140837500Y-74012500D01*
G75*
G02*
X140575000Y-74275000I-262500J0D01*
G01*
X139950000Y-74275000D01*
G75*
G02*
X139687500Y-74012500I0J262500D01*
G01*
X139687500Y-73487500D01*
G75*
G02*
X139950000Y-73225000I262500J0D01*
G01*
X140575000Y-73225000D01*
G75*
G02*
X140837500Y-73487500I0J-262500D01*
G01*
G37*
G36*
G01*
X139075000Y-75237500D02*
X139075000Y-75762500D01*
G75*
G02*
X138812500Y-76025000I-262500J0D01*
G01*
X138187500Y-76025000D01*
G75*
G02*
X137925000Y-75762500I0J262500D01*
G01*
X137925000Y-75237500D01*
G75*
G02*
X138187500Y-74975000I262500J0D01*
G01*
X138812500Y-74975000D01*
G75*
G02*
X139075000Y-75237500I0J-262500D01*
G01*
G37*
G36*
G01*
X140825000Y-75237500D02*
X140825000Y-75762500D01*
G75*
G02*
X140562500Y-76025000I-262500J0D01*
G01*
X139937500Y-76025000D01*
G75*
G02*
X139675000Y-75762500I0J262500D01*
G01*
X139675000Y-75237500D01*
G75*
G02*
X139937500Y-74975000I262500J0D01*
G01*
X140562500Y-74975000D01*
G75*
G02*
X140825000Y-75237500I0J-262500D01*
G01*
G37*
G36*
G01*
X140825000Y-71737500D02*
X140825000Y-72262500D01*
G75*
G02*
X140562500Y-72525000I-262500J0D01*
G01*
X139937500Y-72525000D01*
G75*
G02*
X139675000Y-72262500I0J262500D01*
G01*
X139675000Y-71737500D01*
G75*
G02*
X139937500Y-71475000I262500J0D01*
G01*
X140562500Y-71475000D01*
G75*
G02*
X140825000Y-71737500I0J-262500D01*
G01*
G37*
G36*
G01*
X139075000Y-71737500D02*
X139075000Y-72262500D01*
G75*
G02*
X138812500Y-72525000I-262500J0D01*
G01*
X138187500Y-72525000D01*
G75*
G02*
X137925000Y-72262500I0J262500D01*
G01*
X137925000Y-71737500D01*
G75*
G02*
X138187500Y-71475000I262500J0D01*
G01*
X138812500Y-71475000D01*
G75*
G02*
X139075000Y-71737500I0J-262500D01*
G01*
G37*
G36*
G01*
X132987500Y-75975000D02*
X132987500Y-76325000D01*
G75*
G02*
X132812500Y-76500000I-175000J0D01*
G01*
X131737500Y-76500000D01*
G75*
G02*
X131562500Y-76325000I0J175000D01*
G01*
X131562500Y-75975000D01*
G75*
G02*
X131737500Y-75800000I175000J0D01*
G01*
X132812500Y-75800000D01*
G75*
G02*
X132987500Y-75975000I0J-175000D01*
G01*
G37*
G36*
G01*
X132987500Y-75025000D02*
X132987500Y-75375000D01*
G75*
G02*
X132812500Y-75550000I-175000J0D01*
G01*
X131737500Y-75550000D01*
G75*
G02*
X131562500Y-75375000I0J175000D01*
G01*
X131562500Y-75025000D01*
G75*
G02*
X131737500Y-74850000I175000J0D01*
G01*
X132812500Y-74850000D01*
G75*
G02*
X132987500Y-75025000I0J-175000D01*
G01*
G37*
G36*
G01*
X132987500Y-74075000D02*
X132987500Y-74425000D01*
G75*
G02*
X132812500Y-74600000I-175000J0D01*
G01*
X131737500Y-74600000D01*
G75*
G02*
X131562500Y-74425000I0J175000D01*
G01*
X131562500Y-74075000D01*
G75*
G02*
X131737500Y-73900000I175000J0D01*
G01*
X132812500Y-73900000D01*
G75*
G02*
X132987500Y-74075000I0J-175000D01*
G01*
G37*
G36*
G01*
X130712500Y-74075000D02*
X130712500Y-74425000D01*
G75*
G02*
X130537500Y-74600000I-175000J0D01*
G01*
X129462500Y-74600000D01*
G75*
G02*
X129287500Y-74425000I0J175000D01*
G01*
X129287500Y-74075000D01*
G75*
G02*
X129462500Y-73900000I175000J0D01*
G01*
X130537500Y-73900000D01*
G75*
G02*
X130712500Y-74075000I0J-175000D01*
G01*
G37*
G36*
G01*
X130712500Y-75975000D02*
X130712500Y-76325000D01*
G75*
G02*
X130537500Y-76500000I-175000J0D01*
G01*
X129462500Y-76500000D01*
G75*
G02*
X129287500Y-76325000I0J175000D01*
G01*
X129287500Y-75975000D01*
G75*
G02*
X129462500Y-75800000I175000J0D01*
G01*
X130537500Y-75800000D01*
G75*
G02*
X130712500Y-75975000I0J-175000D01*
G01*
G37*
G36*
G01*
X135020000Y-128250000D02*
X134670000Y-128250000D01*
G75*
G02*
X134495000Y-128075000I0J175000D01*
G01*
X134495000Y-126675000D01*
G75*
G02*
X134670000Y-126500000I175000J0D01*
G01*
X135020000Y-126500000D01*
G75*
G02*
X135195000Y-126675000I0J-175000D01*
G01*
X135195000Y-128075000D01*
G75*
G02*
X135020000Y-128250000I-175000J0D01*
G01*
G37*
G36*
G01*
X136290000Y-128250000D02*
X135940000Y-128250000D01*
G75*
G02*
X135765000Y-128075000I0J175000D01*
G01*
X135765000Y-126675000D01*
G75*
G02*
X135940000Y-126500000I175000J0D01*
G01*
X136290000Y-126500000D01*
G75*
G02*
X136465000Y-126675000I0J-175000D01*
G01*
X136465000Y-128075000D01*
G75*
G02*
X136290000Y-128250000I-175000J0D01*
G01*
G37*
G36*
G01*
X137560000Y-128250000D02*
X137210000Y-128250000D01*
G75*
G02*
X137035000Y-128075000I0J175000D01*
G01*
X137035000Y-126675000D01*
G75*
G02*
X137210000Y-126500000I175000J0D01*
G01*
X137560000Y-126500000D01*
G75*
G02*
X137735000Y-126675000I0J-175000D01*
G01*
X137735000Y-128075000D01*
G75*
G02*
X137560000Y-128250000I-175000J0D01*
G01*
G37*
G36*
G01*
X138830000Y-128250000D02*
X138480000Y-128250000D01*
G75*
G02*
X138305000Y-128075000I0J175000D01*
G01*
X138305000Y-126675000D01*
G75*
G02*
X138480000Y-126500000I175000J0D01*
G01*
X138830000Y-126500000D01*
G75*
G02*
X139005000Y-126675000I0J-175000D01*
G01*
X139005000Y-128075000D01*
G75*
G02*
X138830000Y-128250000I-175000J0D01*
G01*
G37*
G36*
G01*
X138830000Y-133500000D02*
X138480000Y-133500000D01*
G75*
G02*
X138305000Y-133325000I0J175000D01*
G01*
X138305000Y-131925000D01*
G75*
G02*
X138480000Y-131750000I175000J0D01*
G01*
X138830000Y-131750000D01*
G75*
G02*
X139005000Y-131925000I0J-175000D01*
G01*
X139005000Y-133325000D01*
G75*
G02*
X138830000Y-133500000I-175000J0D01*
G01*
G37*
G36*
G01*
X137560000Y-133500000D02*
X137210000Y-133500000D01*
G75*
G02*
X137035000Y-133325000I0J175000D01*
G01*
X137035000Y-131925000D01*
G75*
G02*
X137210000Y-131750000I175000J0D01*
G01*
X137560000Y-131750000D01*
G75*
G02*
X137735000Y-131925000I0J-175000D01*
G01*
X137735000Y-133325000D01*
G75*
G02*
X137560000Y-133500000I-175000J0D01*
G01*
G37*
G36*
G01*
X136290000Y-133500000D02*
X135940000Y-133500000D01*
G75*
G02*
X135765000Y-133325000I0J175000D01*
G01*
X135765000Y-131925000D01*
G75*
G02*
X135940000Y-131750000I175000J0D01*
G01*
X136290000Y-131750000D01*
G75*
G02*
X136465000Y-131925000I0J-175000D01*
G01*
X136465000Y-133325000D01*
G75*
G02*
X136290000Y-133500000I-175000J0D01*
G01*
G37*
G36*
G01*
X135020000Y-133500000D02*
X134670000Y-133500000D01*
G75*
G02*
X134495000Y-133325000I0J175000D01*
G01*
X134495000Y-131925000D01*
G75*
G02*
X134670000Y-131750000I175000J0D01*
G01*
X135020000Y-131750000D01*
G75*
G02*
X135195000Y-131925000I0J-175000D01*
G01*
X135195000Y-133325000D01*
G75*
G02*
X135020000Y-133500000I-175000J0D01*
G01*
G37*
G36*
G01*
X137300000Y-99791667D02*
X137300000Y-101708333D01*
G75*
G02*
X137033333Y-101975000I-266667J0D01*
G01*
X135966667Y-101975000D01*
G75*
G02*
X135700000Y-101708333I0J266667D01*
G01*
X135700000Y-99791667D01*
G75*
G02*
X135966667Y-99525000I266667J0D01*
G01*
X137033333Y-99525000D01*
G75*
G02*
X137300000Y-99791667I0J-266667D01*
G01*
G37*
G36*
G01*
X134050000Y-99791667D02*
X134050000Y-101708333D01*
G75*
G02*
X133783333Y-101975000I-266667J0D01*
G01*
X132716667Y-101975000D01*
G75*
G02*
X132450000Y-101708333I0J266667D01*
G01*
X132450000Y-99791667D01*
G75*
G02*
X132716667Y-99525000I266667J0D01*
G01*
X133783333Y-99525000D01*
G75*
G02*
X134050000Y-99791667I0J-266667D01*
G01*
G37*
G36*
G01*
X127230769Y-53950000D02*
X124269231Y-53950000D01*
G75*
G02*
X124000000Y-53680769I0J269231D01*
G01*
X124000000Y-52819231D01*
G75*
G02*
X124269231Y-52550000I269231J0D01*
G01*
X127230769Y-52550000D01*
G75*
G02*
X127500000Y-52819231I0J-269231D01*
G01*
X127500000Y-53680769D01*
G75*
G02*
X127230769Y-53950000I-269231J0D01*
G01*
G37*
G36*
G01*
X127230769Y-58400000D02*
X124269231Y-58400000D01*
G75*
G02*
X124000000Y-58130769I0J269231D01*
G01*
X124000000Y-57269231D01*
G75*
G02*
X124269231Y-57000000I269231J0D01*
G01*
X127230769Y-57000000D01*
G75*
G02*
X127500000Y-57269231I0J-269231D01*
G01*
X127500000Y-58130769D01*
G75*
G02*
X127230769Y-58400000I-269231J0D01*
G01*
G37*
G36*
G01*
X126425000Y-51376191D02*
X126425000Y-50623809D01*
G75*
G02*
X126698809Y-50350000I273809J0D01*
G01*
X127301191Y-50350000D01*
G75*
G02*
X127575000Y-50623809I0J-273809D01*
G01*
X127575000Y-51376191D01*
G75*
G02*
X127301191Y-51650000I-273809J0D01*
G01*
X126698809Y-51650000D01*
G75*
G02*
X126425000Y-51376191I0J273809D01*
G01*
G37*
G36*
G01*
X124125000Y-51376191D02*
X124125000Y-50623809D01*
G75*
G02*
X124398809Y-50350000I273809J0D01*
G01*
X125001191Y-50350000D01*
G75*
G02*
X125275000Y-50623809I0J-273809D01*
G01*
X125275000Y-51376191D01*
G75*
G02*
X125001191Y-51650000I-273809J0D01*
G01*
X124398809Y-51650000D01*
G75*
G02*
X124125000Y-51376191I0J273809D01*
G01*
G37*
D14*
X126000000Y-76250000D03*
X126950000Y-78250000D03*
X125050000Y-78250000D03*
X126900000Y-117500000D03*
X125000000Y-117500000D03*
X125950000Y-119500000D03*
X125000000Y-72000000D03*
X126900000Y-72000000D03*
X125950000Y-70000000D03*
X127540000Y-130220000D03*
X125640000Y-130220000D03*
X126590000Y-132220000D03*
X126590000Y-133760000D03*
X127540000Y-135760000D03*
X125640000Y-135760000D03*
D15*
G36*
X132984656Y-91275572D02*
G01*
X132525037Y-90815953D01*
X133727118Y-89613872D01*
X134186737Y-90073491D01*
X132984656Y-91275572D01*
G37*
G36*
X133550342Y-91841257D02*
G01*
X133090723Y-91381638D01*
X134292804Y-90179557D01*
X134752423Y-90639176D01*
X133550342Y-91841257D01*
G37*
G36*
X134116027Y-92406943D02*
G01*
X133656408Y-91947324D01*
X134858489Y-90745243D01*
X135318108Y-91204862D01*
X134116027Y-92406943D01*
G37*
G36*
X134681712Y-92972628D02*
G01*
X134222093Y-92513009D01*
X135424174Y-91310928D01*
X135883793Y-91770547D01*
X134681712Y-92972628D01*
G37*
G36*
X135247398Y-93538314D02*
G01*
X134787779Y-93078695D01*
X135989860Y-91876614D01*
X136449479Y-92336233D01*
X135247398Y-93538314D01*
G37*
G36*
X135813083Y-94103999D02*
G01*
X135353464Y-93644380D01*
X136555545Y-92442299D01*
X137015164Y-92901918D01*
X135813083Y-94103999D01*
G37*
G36*
X136378769Y-94669684D02*
G01*
X135919150Y-94210065D01*
X137121231Y-93007984D01*
X137580850Y-93467603D01*
X136378769Y-94669684D01*
G37*
G36*
X136944454Y-95235370D02*
G01*
X136484835Y-94775751D01*
X137686916Y-93573670D01*
X138146535Y-94033289D01*
X136944454Y-95235370D01*
G37*
G36*
X140197145Y-94775751D02*
G01*
X139737526Y-95235370D01*
X138535445Y-94033289D01*
X138995064Y-93573670D01*
X140197145Y-94775751D01*
G37*
G36*
X140762830Y-94210065D02*
G01*
X140303211Y-94669684D01*
X139101130Y-93467603D01*
X139560749Y-93007984D01*
X140762830Y-94210065D01*
G37*
G36*
X141328516Y-93644380D02*
G01*
X140868897Y-94103999D01*
X139666816Y-92901918D01*
X140126435Y-92442299D01*
X141328516Y-93644380D01*
G37*
G36*
X141894201Y-93078695D02*
G01*
X141434582Y-93538314D01*
X140232501Y-92336233D01*
X140692120Y-91876614D01*
X141894201Y-93078695D01*
G37*
G36*
X142459887Y-92513009D02*
G01*
X142000268Y-92972628D01*
X140798187Y-91770547D01*
X141257806Y-91310928D01*
X142459887Y-92513009D01*
G37*
G36*
X143025572Y-91947324D02*
G01*
X142565953Y-92406943D01*
X141363872Y-91204862D01*
X141823491Y-90745243D01*
X143025572Y-91947324D01*
G37*
G36*
X143591257Y-91381638D02*
G01*
X143131638Y-91841257D01*
X141929557Y-90639176D01*
X142389176Y-90179557D01*
X143591257Y-91381638D01*
G37*
G36*
X144156943Y-90815953D02*
G01*
X143697324Y-91275572D01*
X142495243Y-90073491D01*
X142954862Y-89613872D01*
X144156943Y-90815953D01*
G37*
G36*
X142954862Y-89224962D02*
G01*
X142495243Y-88765343D01*
X143697324Y-87563262D01*
X144156943Y-88022881D01*
X142954862Y-89224962D01*
G37*
G36*
X142389176Y-88659277D02*
G01*
X141929557Y-88199658D01*
X143131638Y-86997577D01*
X143591257Y-87457196D01*
X142389176Y-88659277D01*
G37*
G36*
X141823491Y-88093591D02*
G01*
X141363872Y-87633972D01*
X142565953Y-86431891D01*
X143025572Y-86891510D01*
X141823491Y-88093591D01*
G37*
G36*
X141257806Y-87527906D02*
G01*
X140798187Y-87068287D01*
X142000268Y-85866206D01*
X142459887Y-86325825D01*
X141257806Y-87527906D01*
G37*
G36*
X140692120Y-86962220D02*
G01*
X140232501Y-86502601D01*
X141434582Y-85300520D01*
X141894201Y-85760139D01*
X140692120Y-86962220D01*
G37*
G36*
X140126435Y-86396535D02*
G01*
X139666816Y-85936916D01*
X140868897Y-84734835D01*
X141328516Y-85194454D01*
X140126435Y-86396535D01*
G37*
G36*
X139560749Y-85830850D02*
G01*
X139101130Y-85371231D01*
X140303211Y-84169150D01*
X140762830Y-84628769D01*
X139560749Y-85830850D01*
G37*
G36*
X138995064Y-85265164D02*
G01*
X138535445Y-84805545D01*
X139737526Y-83603464D01*
X140197145Y-84063083D01*
X138995064Y-85265164D01*
G37*
G36*
X138146535Y-84805545D02*
G01*
X137686916Y-85265164D01*
X136484835Y-84063083D01*
X136944454Y-83603464D01*
X138146535Y-84805545D01*
G37*
G36*
X137580850Y-85371231D02*
G01*
X137121231Y-85830850D01*
X135919150Y-84628769D01*
X136378769Y-84169150D01*
X137580850Y-85371231D01*
G37*
G36*
X137015164Y-85936916D02*
G01*
X136555545Y-86396535D01*
X135353464Y-85194454D01*
X135813083Y-84734835D01*
X137015164Y-85936916D01*
G37*
G36*
X136449479Y-86502601D02*
G01*
X135989860Y-86962220D01*
X134787779Y-85760139D01*
X135247398Y-85300520D01*
X136449479Y-86502601D01*
G37*
G36*
X135883793Y-87068287D02*
G01*
X135424174Y-87527906D01*
X134222093Y-86325825D01*
X134681712Y-85866206D01*
X135883793Y-87068287D01*
G37*
G36*
X135318108Y-87633972D02*
G01*
X134858489Y-88093591D01*
X133656408Y-86891510D01*
X134116027Y-86431891D01*
X135318108Y-87633972D01*
G37*
G36*
X134752423Y-88199658D02*
G01*
X134292804Y-88659277D01*
X133090723Y-87457196D01*
X133550342Y-86997577D01*
X134752423Y-88199658D01*
G37*
G36*
X134186737Y-88765343D02*
G01*
X133727118Y-89224962D01*
X132525037Y-88022881D01*
X132984656Y-87563262D01*
X134186737Y-88765343D01*
G37*
G36*
G01*
X132175000Y-104480000D02*
X132175000Y-104130000D01*
G75*
G02*
X132350000Y-103955000I175000J0D01*
G01*
X134150000Y-103955000D01*
G75*
G02*
X134325000Y-104130000I0J-175000D01*
G01*
X134325000Y-104480000D01*
G75*
G02*
X134150000Y-104655000I-175000J0D01*
G01*
X132350000Y-104655000D01*
G75*
G02*
X132175000Y-104480000I0J175000D01*
G01*
G37*
G36*
G01*
X132175000Y-105750000D02*
X132175000Y-105400000D01*
G75*
G02*
X132350000Y-105225000I175000J0D01*
G01*
X134150000Y-105225000D01*
G75*
G02*
X134325000Y-105400000I0J-175000D01*
G01*
X134325000Y-105750000D01*
G75*
G02*
X134150000Y-105925000I-175000J0D01*
G01*
X132350000Y-105925000D01*
G75*
G02*
X132175000Y-105750000I0J175000D01*
G01*
G37*
G36*
G01*
X132175000Y-107020000D02*
X132175000Y-106670000D01*
G75*
G02*
X132350000Y-106495000I175000J0D01*
G01*
X134150000Y-106495000D01*
G75*
G02*
X134325000Y-106670000I0J-175000D01*
G01*
X134325000Y-107020000D01*
G75*
G02*
X134150000Y-107195000I-175000J0D01*
G01*
X132350000Y-107195000D01*
G75*
G02*
X132175000Y-107020000I0J175000D01*
G01*
G37*
G36*
G01*
X132175000Y-108290000D02*
X132175000Y-107940000D01*
G75*
G02*
X132350000Y-107765000I175000J0D01*
G01*
X134150000Y-107765000D01*
G75*
G02*
X134325000Y-107940000I0J-175000D01*
G01*
X134325000Y-108290000D01*
G75*
G02*
X134150000Y-108465000I-175000J0D01*
G01*
X132350000Y-108465000D01*
G75*
G02*
X132175000Y-108290000I0J175000D01*
G01*
G37*
G36*
G01*
X132175000Y-109560000D02*
X132175000Y-109210000D01*
G75*
G02*
X132350000Y-109035000I175000J0D01*
G01*
X134150000Y-109035000D01*
G75*
G02*
X134325000Y-109210000I0J-175000D01*
G01*
X134325000Y-109560000D01*
G75*
G02*
X134150000Y-109735000I-175000J0D01*
G01*
X132350000Y-109735000D01*
G75*
G02*
X132175000Y-109560000I0J175000D01*
G01*
G37*
G36*
G01*
X132175000Y-110830000D02*
X132175000Y-110480000D01*
G75*
G02*
X132350000Y-110305000I175000J0D01*
G01*
X134150000Y-110305000D01*
G75*
G02*
X134325000Y-110480000I0J-175000D01*
G01*
X134325000Y-110830000D01*
G75*
G02*
X134150000Y-111005000I-175000J0D01*
G01*
X132350000Y-111005000D01*
G75*
G02*
X132175000Y-110830000I0J175000D01*
G01*
G37*
G36*
G01*
X132175000Y-112100000D02*
X132175000Y-111750000D01*
G75*
G02*
X132350000Y-111575000I175000J0D01*
G01*
X134150000Y-111575000D01*
G75*
G02*
X134325000Y-111750000I0J-175000D01*
G01*
X134325000Y-112100000D01*
G75*
G02*
X134150000Y-112275000I-175000J0D01*
G01*
X132350000Y-112275000D01*
G75*
G02*
X132175000Y-112100000I0J175000D01*
G01*
G37*
G36*
G01*
X132175000Y-113370000D02*
X132175000Y-113020000D01*
G75*
G02*
X132350000Y-112845000I175000J0D01*
G01*
X134150000Y-112845000D01*
G75*
G02*
X134325000Y-113020000I0J-175000D01*
G01*
X134325000Y-113370000D01*
G75*
G02*
X134150000Y-113545000I-175000J0D01*
G01*
X132350000Y-113545000D01*
G75*
G02*
X132175000Y-113370000I0J175000D01*
G01*
G37*
G36*
G01*
X141475000Y-113370000D02*
X141475000Y-113020000D01*
G75*
G02*
X141650000Y-112845000I175000J0D01*
G01*
X143450000Y-112845000D01*
G75*
G02*
X143625000Y-113020000I0J-175000D01*
G01*
X143625000Y-113370000D01*
G75*
G02*
X143450000Y-113545000I-175000J0D01*
G01*
X141650000Y-113545000D01*
G75*
G02*
X141475000Y-113370000I0J175000D01*
G01*
G37*
G36*
G01*
X141475000Y-112100000D02*
X141475000Y-111750000D01*
G75*
G02*
X141650000Y-111575000I175000J0D01*
G01*
X143450000Y-111575000D01*
G75*
G02*
X143625000Y-111750000I0J-175000D01*
G01*
X143625000Y-112100000D01*
G75*
G02*
X143450000Y-112275000I-175000J0D01*
G01*
X141650000Y-112275000D01*
G75*
G02*
X141475000Y-112100000I0J175000D01*
G01*
G37*
G36*
G01*
X141475000Y-110830000D02*
X141475000Y-110480000D01*
G75*
G02*
X141650000Y-110305000I175000J0D01*
G01*
X143450000Y-110305000D01*
G75*
G02*
X143625000Y-110480000I0J-175000D01*
G01*
X143625000Y-110830000D01*
G75*
G02*
X143450000Y-111005000I-175000J0D01*
G01*
X141650000Y-111005000D01*
G75*
G02*
X141475000Y-110830000I0J175000D01*
G01*
G37*
G36*
G01*
X141475000Y-109560000D02*
X141475000Y-109210000D01*
G75*
G02*
X141650000Y-109035000I175000J0D01*
G01*
X143450000Y-109035000D01*
G75*
G02*
X143625000Y-109210000I0J-175000D01*
G01*
X143625000Y-109560000D01*
G75*
G02*
X143450000Y-109735000I-175000J0D01*
G01*
X141650000Y-109735000D01*
G75*
G02*
X141475000Y-109560000I0J175000D01*
G01*
G37*
G36*
G01*
X141475000Y-108290000D02*
X141475000Y-107940000D01*
G75*
G02*
X141650000Y-107765000I175000J0D01*
G01*
X143450000Y-107765000D01*
G75*
G02*
X143625000Y-107940000I0J-175000D01*
G01*
X143625000Y-108290000D01*
G75*
G02*
X143450000Y-108465000I-175000J0D01*
G01*
X141650000Y-108465000D01*
G75*
G02*
X141475000Y-108290000I0J175000D01*
G01*
G37*
G36*
G01*
X141475000Y-107020000D02*
X141475000Y-106670000D01*
G75*
G02*
X141650000Y-106495000I175000J0D01*
G01*
X143450000Y-106495000D01*
G75*
G02*
X143625000Y-106670000I0J-175000D01*
G01*
X143625000Y-107020000D01*
G75*
G02*
X143450000Y-107195000I-175000J0D01*
G01*
X141650000Y-107195000D01*
G75*
G02*
X141475000Y-107020000I0J175000D01*
G01*
G37*
G36*
G01*
X141475000Y-105750000D02*
X141475000Y-105400000D01*
G75*
G02*
X141650000Y-105225000I175000J0D01*
G01*
X143450000Y-105225000D01*
G75*
G02*
X143625000Y-105400000I0J-175000D01*
G01*
X143625000Y-105750000D01*
G75*
G02*
X143450000Y-105925000I-175000J0D01*
G01*
X141650000Y-105925000D01*
G75*
G02*
X141475000Y-105750000I0J175000D01*
G01*
G37*
G36*
G01*
X141475000Y-104480000D02*
X141475000Y-104130000D01*
G75*
G02*
X141650000Y-103955000I175000J0D01*
G01*
X143450000Y-103955000D01*
G75*
G02*
X143625000Y-104130000I0J-175000D01*
G01*
X143625000Y-104480000D01*
G75*
G02*
X143450000Y-104655000I-175000J0D01*
G01*
X141650000Y-104655000D01*
G75*
G02*
X141475000Y-104480000I0J175000D01*
G01*
G37*
D16*
X125800000Y-122400000D03*
X124850000Y-122400000D03*
X126750000Y-122400000D03*
X126750000Y-125100000D03*
X125800000Y-125100000D03*
X124850000Y-125100000D03*
D17*
X130815800Y-96979229D03*
X130815800Y-92879229D03*
D18*
X132115000Y-42800000D03*
X124965000Y-42800000D03*
G36*
G01*
X143225000Y-69987500D02*
X143225000Y-70512500D01*
G75*
G02*
X142962500Y-70775000I-262500J0D01*
G01*
X142312500Y-70775000D01*
G75*
G02*
X142050000Y-70512500I0J262500D01*
G01*
X142050000Y-69987500D01*
G75*
G02*
X142312500Y-69725000I262500J0D01*
G01*
X142962500Y-69725000D01*
G75*
G02*
X143225000Y-69987500I0J-262500D01*
G01*
G37*
G36*
G01*
X144950000Y-69987500D02*
X144950000Y-70512500D01*
G75*
G02*
X144687500Y-70775000I-262500J0D01*
G01*
X144037500Y-70775000D01*
G75*
G02*
X143775000Y-70512500I0J262500D01*
G01*
X143775000Y-69987500D01*
G75*
G02*
X144037500Y-69725000I262500J0D01*
G01*
X144687500Y-69725000D01*
G75*
G02*
X144950000Y-69987500I0J-262500D01*
G01*
G37*
G36*
G01*
X143491161Y-83510050D02*
X143119930Y-83881281D01*
G75*
G02*
X142748698Y-83881281I-185616J185616D01*
G01*
X142289079Y-83421662D01*
G75*
G02*
X142289079Y-83050430I185616J185616D01*
G01*
X142660310Y-82679199D01*
G75*
G02*
X143031542Y-82679199I185616J-185616D01*
G01*
X143491161Y-83138818D01*
G75*
G02*
X143491161Y-83510050I-185616J-185616D01*
G01*
G37*
G36*
G01*
X144710921Y-84729810D02*
X144339690Y-85101041D01*
G75*
G02*
X143968458Y-85101041I-185616J185616D01*
G01*
X143508839Y-84641422D01*
G75*
G02*
X143508839Y-84270190I185616J185616D01*
G01*
X143880070Y-83898959D01*
G75*
G02*
X144251302Y-83898959I185616J-185616D01*
G01*
X144710921Y-84358578D01*
G75*
G02*
X144710921Y-84729810I-185616J-185616D01*
G01*
G37*
G36*
G01*
X139012500Y-102087500D02*
X138487500Y-102087500D01*
G75*
G02*
X138225000Y-101825000I0J262500D01*
G01*
X138225000Y-101175000D01*
G75*
G02*
X138487500Y-100912500I262500J0D01*
G01*
X139012500Y-100912500D01*
G75*
G02*
X139275000Y-101175000I0J-262500D01*
G01*
X139275000Y-101825000D01*
G75*
G02*
X139012500Y-102087500I-262500J0D01*
G01*
G37*
G36*
G01*
X139012500Y-100362500D02*
X138487500Y-100362500D01*
G75*
G02*
X138225000Y-100100000I0J262500D01*
G01*
X138225000Y-99450000D01*
G75*
G02*
X138487500Y-99187500I262500J0D01*
G01*
X139012500Y-99187500D01*
G75*
G02*
X139275000Y-99450000I0J-262500D01*
G01*
X139275000Y-100100000D01*
G75*
G02*
X139012500Y-100362500I-262500J0D01*
G01*
G37*
G36*
G01*
X129662500Y-111012500D02*
X129662500Y-110487500D01*
G75*
G02*
X129925000Y-110225000I262500J0D01*
G01*
X130575000Y-110225000D01*
G75*
G02*
X130837500Y-110487500I0J-262500D01*
G01*
X130837500Y-111012500D01*
G75*
G02*
X130575000Y-111275000I-262500J0D01*
G01*
X129925000Y-111275000D01*
G75*
G02*
X129662500Y-111012500I0J262500D01*
G01*
G37*
G36*
G01*
X127937500Y-111012500D02*
X127937500Y-110487500D01*
G75*
G02*
X128200000Y-110225000I262500J0D01*
G01*
X128850000Y-110225000D01*
G75*
G02*
X129112500Y-110487500I0J-262500D01*
G01*
X129112500Y-111012500D01*
G75*
G02*
X128850000Y-111275000I-262500J0D01*
G01*
X128200000Y-111275000D01*
G75*
G02*
X127937500Y-111012500I0J262500D01*
G01*
G37*
G36*
G01*
X127896319Y-94484623D02*
X127371319Y-94484623D01*
G75*
G02*
X127108819Y-94222123I0J262500D01*
G01*
X127108819Y-93572123D01*
G75*
G02*
X127371319Y-93309623I262500J0D01*
G01*
X127896319Y-93309623D01*
G75*
G02*
X128158819Y-93572123I0J-262500D01*
G01*
X128158819Y-94222123D01*
G75*
G02*
X127896319Y-94484623I-262500J0D01*
G01*
G37*
G36*
G01*
X127896319Y-92759623D02*
X127371319Y-92759623D01*
G75*
G02*
X127108819Y-92497123I0J262500D01*
G01*
X127108819Y-91847123D01*
G75*
G02*
X127371319Y-91584623I262500J0D01*
G01*
X127896319Y-91584623D01*
G75*
G02*
X128158819Y-91847123I0J-262500D01*
G01*
X128158819Y-92497123D01*
G75*
G02*
X127896319Y-92759623I-262500J0D01*
G01*
G37*
G36*
G01*
X127371319Y-95473710D02*
X127896319Y-95473710D01*
G75*
G02*
X128158819Y-95736210I0J-262500D01*
G01*
X128158819Y-96386210D01*
G75*
G02*
X127896319Y-96648710I-262500J0D01*
G01*
X127371319Y-96648710D01*
G75*
G02*
X127108819Y-96386210I0J262500D01*
G01*
X127108819Y-95736210D01*
G75*
G02*
X127371319Y-95473710I262500J0D01*
G01*
G37*
G36*
G01*
X127371319Y-97198710D02*
X127896319Y-97198710D01*
G75*
G02*
X128158819Y-97461210I0J-262500D01*
G01*
X128158819Y-98111210D01*
G75*
G02*
X127896319Y-98373710I-262500J0D01*
G01*
X127371319Y-98373710D01*
G75*
G02*
X127108819Y-98111210I0J262500D01*
G01*
X127108819Y-97461210D01*
G75*
G02*
X127371319Y-97198710I262500J0D01*
G01*
G37*
G36*
G01*
X143225000Y-78737500D02*
X143225000Y-79262500D01*
G75*
G02*
X142962500Y-79525000I-262500J0D01*
G01*
X142312500Y-79525000D01*
G75*
G02*
X142050000Y-79262500I0J262500D01*
G01*
X142050000Y-78737500D01*
G75*
G02*
X142312500Y-78475000I262500J0D01*
G01*
X142962500Y-78475000D01*
G75*
G02*
X143225000Y-78737500I0J-262500D01*
G01*
G37*
G36*
G01*
X144950000Y-78737500D02*
X144950000Y-79262500D01*
G75*
G02*
X144687500Y-79525000I-262500J0D01*
G01*
X144037500Y-79525000D01*
G75*
G02*
X143775000Y-79262500I0J262500D01*
G01*
X143775000Y-78737500D01*
G75*
G02*
X144037500Y-78475000I262500J0D01*
G01*
X144687500Y-78475000D01*
G75*
G02*
X144950000Y-78737500I0J-262500D01*
G01*
G37*
G36*
G01*
X142050000Y-81262500D02*
X142050000Y-80737500D01*
G75*
G02*
X142312500Y-80475000I262500J0D01*
G01*
X142962500Y-80475000D01*
G75*
G02*
X143225000Y-80737500I0J-262500D01*
G01*
X143225000Y-81262500D01*
G75*
G02*
X142962500Y-81525000I-262500J0D01*
G01*
X142312500Y-81525000D01*
G75*
G02*
X142050000Y-81262500I0J262500D01*
G01*
G37*
G36*
G01*
X143775000Y-81262500D02*
X143775000Y-80737500D01*
G75*
G02*
X144037500Y-80475000I262500J0D01*
G01*
X144687500Y-80475000D01*
G75*
G02*
X144950000Y-80737500I0J-262500D01*
G01*
X144950000Y-81262500D01*
G75*
G02*
X144687500Y-81525000I-262500J0D01*
G01*
X144037500Y-81525000D01*
G75*
G02*
X143775000Y-81262500I0J262500D01*
G01*
G37*
G36*
G01*
X127937500Y-109062500D02*
X127937500Y-108537500D01*
G75*
G02*
X128200000Y-108275000I262500J0D01*
G01*
X128850000Y-108275000D01*
G75*
G02*
X129112500Y-108537500I0J-262500D01*
G01*
X129112500Y-109062500D01*
G75*
G02*
X128850000Y-109325000I-262500J0D01*
G01*
X128200000Y-109325000D01*
G75*
G02*
X127937500Y-109062500I0J262500D01*
G01*
G37*
G36*
G01*
X129662500Y-109062500D02*
X129662500Y-108537500D01*
G75*
G02*
X129925000Y-108275000I262500J0D01*
G01*
X130575000Y-108275000D01*
G75*
G02*
X130837500Y-108537500I0J-262500D01*
G01*
X130837500Y-109062500D01*
G75*
G02*
X130575000Y-109325000I-262500J0D01*
G01*
X129925000Y-109325000D01*
G75*
G02*
X129662500Y-109062500I0J262500D01*
G01*
G37*
G36*
G01*
X129112500Y-102137500D02*
X129112500Y-102662500D01*
G75*
G02*
X128850000Y-102925000I-262500J0D01*
G01*
X128200000Y-102925000D01*
G75*
G02*
X127937500Y-102662500I0J262500D01*
G01*
X127937500Y-102137500D01*
G75*
G02*
X128200000Y-101875000I262500J0D01*
G01*
X128850000Y-101875000D01*
G75*
G02*
X129112500Y-102137500I0J-262500D01*
G01*
G37*
G36*
G01*
X130837500Y-102137500D02*
X130837500Y-102662500D01*
G75*
G02*
X130575000Y-102925000I-262500J0D01*
G01*
X129925000Y-102925000D01*
G75*
G02*
X129662500Y-102662500I0J262500D01*
G01*
X129662500Y-102137500D01*
G75*
G02*
X129925000Y-101875000I262500J0D01*
G01*
X130575000Y-101875000D01*
G75*
G02*
X130837500Y-102137500I0J-262500D01*
G01*
G37*
G36*
G01*
X128912500Y-42512500D02*
X128912500Y-41987500D01*
G75*
G02*
X129175000Y-41725000I262500J0D01*
G01*
X129825000Y-41725000D01*
G75*
G02*
X130087500Y-41987500I0J-262500D01*
G01*
X130087500Y-42512500D01*
G75*
G02*
X129825000Y-42775000I-262500J0D01*
G01*
X129175000Y-42775000D01*
G75*
G02*
X128912500Y-42512500I0J262500D01*
G01*
G37*
G36*
G01*
X127187500Y-42512500D02*
X127187500Y-41987500D01*
G75*
G02*
X127450000Y-41725000I262500J0D01*
G01*
X128100000Y-41725000D01*
G75*
G02*
X128362500Y-41987500I0J-262500D01*
G01*
X128362500Y-42512500D01*
G75*
G02*
X128100000Y-42775000I-262500J0D01*
G01*
X127450000Y-42775000D01*
G75*
G02*
X127187500Y-42512500I0J262500D01*
G01*
G37*
G36*
G01*
X139012500Y-137587500D02*
X138487500Y-137587500D01*
G75*
G02*
X138225000Y-137325000I0J262500D01*
G01*
X138225000Y-136675000D01*
G75*
G02*
X138487500Y-136412500I262500J0D01*
G01*
X139012500Y-136412500D01*
G75*
G02*
X139275000Y-136675000I0J-262500D01*
G01*
X139275000Y-137325000D01*
G75*
G02*
X139012500Y-137587500I-262500J0D01*
G01*
G37*
G36*
G01*
X139012500Y-135862500D02*
X138487500Y-135862500D01*
G75*
G02*
X138225000Y-135600000I0J262500D01*
G01*
X138225000Y-134950000D01*
G75*
G02*
X138487500Y-134687500I262500J0D01*
G01*
X139012500Y-134687500D01*
G75*
G02*
X139275000Y-134950000I0J-262500D01*
G01*
X139275000Y-135600000D01*
G75*
G02*
X139012500Y-135862500I-262500J0D01*
G01*
G37*
G36*
G01*
X137737500Y-124137500D02*
X138262500Y-124137500D01*
G75*
G02*
X138525000Y-124400000I0J-262500D01*
G01*
X138525000Y-125050000D01*
G75*
G02*
X138262500Y-125312500I-262500J0D01*
G01*
X137737500Y-125312500D01*
G75*
G02*
X137475000Y-125050000I0J262500D01*
G01*
X137475000Y-124400000D01*
G75*
G02*
X137737500Y-124137500I262500J0D01*
G01*
G37*
G36*
G01*
X137737500Y-122412500D02*
X138262500Y-122412500D01*
G75*
G02*
X138525000Y-122675000I0J-262500D01*
G01*
X138525000Y-123325000D01*
G75*
G02*
X138262500Y-123587500I-262500J0D01*
G01*
X137737500Y-123587500D01*
G75*
G02*
X137475000Y-123325000I0J262500D01*
G01*
X137475000Y-122675000D01*
G75*
G02*
X137737500Y-122412500I262500J0D01*
G01*
G37*
G36*
G01*
X131025000Y-72512500D02*
X131025000Y-71987500D01*
G75*
G02*
X131287500Y-71725000I262500J0D01*
G01*
X131937500Y-71725000D01*
G75*
G02*
X132200000Y-71987500I0J-262500D01*
G01*
X132200000Y-72512500D01*
G75*
G02*
X131937500Y-72775000I-262500J0D01*
G01*
X131287500Y-72775000D01*
G75*
G02*
X131025000Y-72512500I0J262500D01*
G01*
G37*
G36*
G01*
X129300000Y-72512500D02*
X129300000Y-71987500D01*
G75*
G02*
X129562500Y-71725000I262500J0D01*
G01*
X130212500Y-71725000D01*
G75*
G02*
X130475000Y-71987500I0J-262500D01*
G01*
X130475000Y-72512500D01*
G75*
G02*
X130212500Y-72775000I-262500J0D01*
G01*
X129562500Y-72775000D01*
G75*
G02*
X129300000Y-72512500I0J262500D01*
G01*
G37*
G36*
G01*
X129300000Y-70512500D02*
X129300000Y-69987500D01*
G75*
G02*
X129562500Y-69725000I262500J0D01*
G01*
X130212500Y-69725000D01*
G75*
G02*
X130475000Y-69987500I0J-262500D01*
G01*
X130475000Y-70512500D01*
G75*
G02*
X130212500Y-70775000I-262500J0D01*
G01*
X129562500Y-70775000D01*
G75*
G02*
X129300000Y-70512500I0J262500D01*
G01*
G37*
G36*
G01*
X131025000Y-70512500D02*
X131025000Y-69987500D01*
G75*
G02*
X131287500Y-69725000I262500J0D01*
G01*
X131937500Y-69725000D01*
G75*
G02*
X132200000Y-69987500I0J-262500D01*
G01*
X132200000Y-70512500D01*
G75*
G02*
X131937500Y-70775000I-262500J0D01*
G01*
X131287500Y-70775000D01*
G75*
G02*
X131025000Y-70512500I0J262500D01*
G01*
G37*
G36*
G01*
X140825000Y-69987500D02*
X140825000Y-70512500D01*
G75*
G02*
X140562500Y-70775000I-262500J0D01*
G01*
X139937500Y-70775000D01*
G75*
G02*
X139675000Y-70512500I0J262500D01*
G01*
X139675000Y-69987500D01*
G75*
G02*
X139937500Y-69725000I262500J0D01*
G01*
X140562500Y-69725000D01*
G75*
G02*
X140825000Y-69987500I0J-262500D01*
G01*
G37*
G36*
G01*
X139075000Y-69987500D02*
X139075000Y-70512500D01*
G75*
G02*
X138812500Y-70775000I-262500J0D01*
G01*
X138187500Y-70775000D01*
G75*
G02*
X137925000Y-70512500I0J262500D01*
G01*
X137925000Y-69987500D01*
G75*
G02*
X138187500Y-69725000I262500J0D01*
G01*
X138812500Y-69725000D01*
G75*
G02*
X139075000Y-69987500I0J-262500D01*
G01*
G37*
G36*
G01*
X125575000Y-80237500D02*
X125575000Y-80762500D01*
G75*
G02*
X125312500Y-81025000I-262500J0D01*
G01*
X124687500Y-81025000D01*
G75*
G02*
X124425000Y-80762500I0J262500D01*
G01*
X124425000Y-80237500D01*
G75*
G02*
X124687500Y-79975000I262500J0D01*
G01*
X125312500Y-79975000D01*
G75*
G02*
X125575000Y-80237500I0J-262500D01*
G01*
G37*
G36*
G01*
X127325000Y-80237500D02*
X127325000Y-80762500D01*
G75*
G02*
X127062500Y-81025000I-262500J0D01*
G01*
X126437500Y-81025000D01*
G75*
G02*
X126175000Y-80762500I0J262500D01*
G01*
X126175000Y-80237500D01*
G75*
G02*
X126437500Y-79975000I262500J0D01*
G01*
X127062500Y-79975000D01*
G75*
G02*
X127325000Y-80237500I0J-262500D01*
G01*
G37*
G36*
G01*
X130487500Y-81050000D02*
X131012500Y-81050000D01*
G75*
G02*
X131275000Y-81312500I0J-262500D01*
G01*
X131275000Y-81937500D01*
G75*
G02*
X131012500Y-82200000I-262500J0D01*
G01*
X130487500Y-82200000D01*
G75*
G02*
X130225000Y-81937500I0J262500D01*
G01*
X130225000Y-81312500D01*
G75*
G02*
X130487500Y-81050000I262500J0D01*
G01*
G37*
G36*
G01*
X130487500Y-82800000D02*
X131012500Y-82800000D01*
G75*
G02*
X131275000Y-83062500I0J-262500D01*
G01*
X131275000Y-83687500D01*
G75*
G02*
X131012500Y-83950000I-262500J0D01*
G01*
X130487500Y-83950000D01*
G75*
G02*
X130225000Y-83687500I0J262500D01*
G01*
X130225000Y-83062500D01*
G75*
G02*
X130487500Y-82800000I262500J0D01*
G01*
G37*
G36*
G01*
X137925000Y-79262500D02*
X137925000Y-78737500D01*
G75*
G02*
X138187500Y-78475000I262500J0D01*
G01*
X138812500Y-78475000D01*
G75*
G02*
X139075000Y-78737500I0J-262500D01*
G01*
X139075000Y-79262500D01*
G75*
G02*
X138812500Y-79525000I-262500J0D01*
G01*
X138187500Y-79525000D01*
G75*
G02*
X137925000Y-79262500I0J262500D01*
G01*
G37*
G36*
G01*
X139675000Y-79262500D02*
X139675000Y-78737500D01*
G75*
G02*
X139937500Y-78475000I262500J0D01*
G01*
X140562500Y-78475000D01*
G75*
G02*
X140825000Y-78737500I0J-262500D01*
G01*
X140825000Y-79262500D01*
G75*
G02*
X140562500Y-79525000I-262500J0D01*
G01*
X139937500Y-79525000D01*
G75*
G02*
X139675000Y-79262500I0J262500D01*
G01*
G37*
G36*
G01*
X137925000Y-81262500D02*
X137925000Y-80737500D01*
G75*
G02*
X138187500Y-80475000I262500J0D01*
G01*
X138812500Y-80475000D01*
G75*
G02*
X139075000Y-80737500I0J-262500D01*
G01*
X139075000Y-81262500D01*
G75*
G02*
X138812500Y-81525000I-262500J0D01*
G01*
X138187500Y-81525000D01*
G75*
G02*
X137925000Y-81262500I0J262500D01*
G01*
G37*
G36*
G01*
X139675000Y-81262500D02*
X139675000Y-80737500D01*
G75*
G02*
X139937500Y-80475000I262500J0D01*
G01*
X140562500Y-80475000D01*
G75*
G02*
X140825000Y-80737500I0J-262500D01*
G01*
X140825000Y-81262500D01*
G75*
G02*
X140562500Y-81525000I-262500J0D01*
G01*
X139937500Y-81525000D01*
G75*
G02*
X139675000Y-81262500I0J262500D01*
G01*
G37*
G36*
G01*
X130825000Y-106537500D02*
X130825000Y-107062500D01*
G75*
G02*
X130562500Y-107325000I-262500J0D01*
G01*
X129937500Y-107325000D01*
G75*
G02*
X129675000Y-107062500I0J262500D01*
G01*
X129675000Y-106537500D01*
G75*
G02*
X129937500Y-106275000I262500J0D01*
G01*
X130562500Y-106275000D01*
G75*
G02*
X130825000Y-106537500I0J-262500D01*
G01*
G37*
G36*
G01*
X129075000Y-106537500D02*
X129075000Y-107062500D01*
G75*
G02*
X128812500Y-107325000I-262500J0D01*
G01*
X128187500Y-107325000D01*
G75*
G02*
X127925000Y-107062500I0J262500D01*
G01*
X127925000Y-106537500D01*
G75*
G02*
X128187500Y-106275000I262500J0D01*
G01*
X128812500Y-106275000D01*
G75*
G02*
X129075000Y-106537500I0J-262500D01*
G01*
G37*
G36*
G01*
X127925000Y-104662500D02*
X127925000Y-104137500D01*
G75*
G02*
X128187500Y-103875000I262500J0D01*
G01*
X128812500Y-103875000D01*
G75*
G02*
X129075000Y-104137500I0J-262500D01*
G01*
X129075000Y-104662500D01*
G75*
G02*
X128812500Y-104925000I-262500J0D01*
G01*
X128187500Y-104925000D01*
G75*
G02*
X127925000Y-104662500I0J262500D01*
G01*
G37*
G36*
G01*
X129675000Y-104662500D02*
X129675000Y-104137500D01*
G75*
G02*
X129937500Y-103875000I262500J0D01*
G01*
X130562500Y-103875000D01*
G75*
G02*
X130825000Y-104137500I0J-262500D01*
G01*
X130825000Y-104662500D01*
G75*
G02*
X130562500Y-104925000I-262500J0D01*
G01*
X129937500Y-104925000D01*
G75*
G02*
X129675000Y-104662500I0J262500D01*
G01*
G37*
G36*
G01*
X134762500Y-45325000D02*
X134237500Y-45325000D01*
G75*
G02*
X133975000Y-45062500I0J262500D01*
G01*
X133975000Y-44437500D01*
G75*
G02*
X134237500Y-44175000I262500J0D01*
G01*
X134762500Y-44175000D01*
G75*
G02*
X135025000Y-44437500I0J-262500D01*
G01*
X135025000Y-45062500D01*
G75*
G02*
X134762500Y-45325000I-262500J0D01*
G01*
G37*
G36*
G01*
X134762500Y-43575000D02*
X134237500Y-43575000D01*
G75*
G02*
X133975000Y-43312500I0J262500D01*
G01*
X133975000Y-42687500D01*
G75*
G02*
X134237500Y-42425000I262500J0D01*
G01*
X134762500Y-42425000D01*
G75*
G02*
X135025000Y-42687500I0J-262500D01*
G01*
X135025000Y-43312500D01*
G75*
G02*
X134762500Y-43575000I-262500J0D01*
G01*
G37*
G36*
G01*
X137012500Y-43575000D02*
X136487500Y-43575000D01*
G75*
G02*
X136225000Y-43312500I0J262500D01*
G01*
X136225000Y-42687500D01*
G75*
G02*
X136487500Y-42425000I262500J0D01*
G01*
X137012500Y-42425000D01*
G75*
G02*
X137275000Y-42687500I0J-262500D01*
G01*
X137275000Y-43312500D01*
G75*
G02*
X137012500Y-43575000I-262500J0D01*
G01*
G37*
G36*
G01*
X137012500Y-45325000D02*
X136487500Y-45325000D01*
G75*
G02*
X136225000Y-45062500I0J262500D01*
G01*
X136225000Y-44437500D01*
G75*
G02*
X136487500Y-44175000I262500J0D01*
G01*
X137012500Y-44175000D01*
G75*
G02*
X137275000Y-44437500I0J-262500D01*
G01*
X137275000Y-45062500D01*
G75*
G02*
X137012500Y-45325000I-262500J0D01*
G01*
G37*
G36*
G01*
X127175000Y-44262500D02*
X127175000Y-43737500D01*
G75*
G02*
X127437500Y-43475000I262500J0D01*
G01*
X128062500Y-43475000D01*
G75*
G02*
X128325000Y-43737500I0J-262500D01*
G01*
X128325000Y-44262500D01*
G75*
G02*
X128062500Y-44525000I-262500J0D01*
G01*
X127437500Y-44525000D01*
G75*
G02*
X127175000Y-44262500I0J262500D01*
G01*
G37*
G36*
G01*
X128925000Y-44262500D02*
X128925000Y-43737500D01*
G75*
G02*
X129187500Y-43475000I262500J0D01*
G01*
X129812500Y-43475000D01*
G75*
G02*
X130075000Y-43737500I0J-262500D01*
G01*
X130075000Y-44262500D01*
G75*
G02*
X129812500Y-44525000I-262500J0D01*
G01*
X129187500Y-44525000D01*
G75*
G02*
X128925000Y-44262500I0J262500D01*
G01*
G37*
G36*
G01*
X135987500Y-134675000D02*
X136512500Y-134675000D01*
G75*
G02*
X136775000Y-134937500I0J-262500D01*
G01*
X136775000Y-135562500D01*
G75*
G02*
X136512500Y-135825000I-262500J0D01*
G01*
X135987500Y-135825000D01*
G75*
G02*
X135725000Y-135562500I0J262500D01*
G01*
X135725000Y-134937500D01*
G75*
G02*
X135987500Y-134675000I262500J0D01*
G01*
G37*
G36*
G01*
X135987500Y-136425000D02*
X136512500Y-136425000D01*
G75*
G02*
X136775000Y-136687500I0J-262500D01*
G01*
X136775000Y-137312500D01*
G75*
G02*
X136512500Y-137575000I-262500J0D01*
G01*
X135987500Y-137575000D01*
G75*
G02*
X135725000Y-137312500I0J262500D01*
G01*
X135725000Y-136687500D01*
G75*
G02*
X135987500Y-136425000I262500J0D01*
G01*
G37*
G36*
G01*
X133987500Y-136425000D02*
X134512500Y-136425000D01*
G75*
G02*
X134775000Y-136687500I0J-262500D01*
G01*
X134775000Y-137312500D01*
G75*
G02*
X134512500Y-137575000I-262500J0D01*
G01*
X133987500Y-137575000D01*
G75*
G02*
X133725000Y-137312500I0J262500D01*
G01*
X133725000Y-136687500D01*
G75*
G02*
X133987500Y-136425000I262500J0D01*
G01*
G37*
G36*
G01*
X133987500Y-134675000D02*
X134512500Y-134675000D01*
G75*
G02*
X134775000Y-134937500I0J-262500D01*
G01*
X134775000Y-135562500D01*
G75*
G02*
X134512500Y-135825000I-262500J0D01*
G01*
X133987500Y-135825000D01*
G75*
G02*
X133725000Y-135562500I0J262500D01*
G01*
X133725000Y-134937500D01*
G75*
G02*
X133987500Y-134675000I262500J0D01*
G01*
G37*
G36*
G01*
X131987500Y-132300000D02*
X132512500Y-132300000D01*
G75*
G02*
X132775000Y-132562500I0J-262500D01*
G01*
X132775000Y-133187500D01*
G75*
G02*
X132512500Y-133450000I-262500J0D01*
G01*
X131987500Y-133450000D01*
G75*
G02*
X131725000Y-133187500I0J262500D01*
G01*
X131725000Y-132562500D01*
G75*
G02*
X131987500Y-132300000I262500J0D01*
G01*
G37*
G36*
G01*
X131987500Y-130550000D02*
X132512500Y-130550000D01*
G75*
G02*
X132775000Y-130812500I0J-262500D01*
G01*
X132775000Y-131437500D01*
G75*
G02*
X132512500Y-131700000I-262500J0D01*
G01*
X131987500Y-131700000D01*
G75*
G02*
X131725000Y-131437500I0J262500D01*
G01*
X131725000Y-130812500D01*
G75*
G02*
X131987500Y-130550000I262500J0D01*
G01*
G37*
G36*
G01*
X131987500Y-134675000D02*
X132512500Y-134675000D01*
G75*
G02*
X132775000Y-134937500I0J-262500D01*
G01*
X132775000Y-135562500D01*
G75*
G02*
X132512500Y-135825000I-262500J0D01*
G01*
X131987500Y-135825000D01*
G75*
G02*
X131725000Y-135562500I0J262500D01*
G01*
X131725000Y-134937500D01*
G75*
G02*
X131987500Y-134675000I262500J0D01*
G01*
G37*
G36*
G01*
X131987500Y-136425000D02*
X132512500Y-136425000D01*
G75*
G02*
X132775000Y-136687500I0J-262500D01*
G01*
X132775000Y-137312500D01*
G75*
G02*
X132512500Y-137575000I-262500J0D01*
G01*
X131987500Y-137575000D01*
G75*
G02*
X131725000Y-137312500I0J262500D01*
G01*
X131725000Y-136687500D01*
G75*
G02*
X131987500Y-136425000I262500J0D01*
G01*
G37*
G36*
G01*
X127450000Y-73987500D02*
X127450000Y-74512500D01*
G75*
G02*
X127187500Y-74775000I-262500J0D01*
G01*
X126562500Y-74775000D01*
G75*
G02*
X126300000Y-74512500I0J262500D01*
G01*
X126300000Y-73987500D01*
G75*
G02*
X126562500Y-73725000I262500J0D01*
G01*
X127187500Y-73725000D01*
G75*
G02*
X127450000Y-73987500I0J-262500D01*
G01*
G37*
G36*
G01*
X125700000Y-73987500D02*
X125700000Y-74512500D01*
G75*
G02*
X125437500Y-74775000I-262500J0D01*
G01*
X124812500Y-74775000D01*
G75*
G02*
X124550000Y-74512500I0J262500D01*
G01*
X124550000Y-73987500D01*
G75*
G02*
X124812500Y-73725000I262500J0D01*
G01*
X125437500Y-73725000D01*
G75*
G02*
X125700000Y-73987500I0J-262500D01*
G01*
G37*
G36*
G01*
X130425000Y-121512500D02*
X130425000Y-120987500D01*
G75*
G02*
X130687500Y-120725000I262500J0D01*
G01*
X131312500Y-120725000D01*
G75*
G02*
X131575000Y-120987500I0J-262500D01*
G01*
X131575000Y-121512500D01*
G75*
G02*
X131312500Y-121775000I-262500J0D01*
G01*
X130687500Y-121775000D01*
G75*
G02*
X130425000Y-121512500I0J262500D01*
G01*
G37*
G36*
G01*
X128675000Y-121512500D02*
X128675000Y-120987500D01*
G75*
G02*
X128937500Y-120725000I262500J0D01*
G01*
X129562500Y-120725000D01*
G75*
G02*
X129825000Y-120987500I0J-262500D01*
G01*
X129825000Y-121512500D01*
G75*
G02*
X129562500Y-121775000I-262500J0D01*
G01*
X128937500Y-121775000D01*
G75*
G02*
X128675000Y-121512500I0J262500D01*
G01*
G37*
G36*
G01*
X126775000Y-128012500D02*
X126775000Y-127487500D01*
G75*
G02*
X127037500Y-127225000I262500J0D01*
G01*
X127662500Y-127225000D01*
G75*
G02*
X127925000Y-127487500I0J-262500D01*
G01*
X127925000Y-128012500D01*
G75*
G02*
X127662500Y-128275000I-262500J0D01*
G01*
X127037500Y-128275000D01*
G75*
G02*
X126775000Y-128012500I0J262500D01*
G01*
G37*
G36*
G01*
X125025000Y-128012500D02*
X125025000Y-127487500D01*
G75*
G02*
X125287500Y-127225000I262500J0D01*
G01*
X125912500Y-127225000D01*
G75*
G02*
X126175000Y-127487500I0J-262500D01*
G01*
X126175000Y-128012500D01*
G75*
G02*
X125912500Y-128275000I-262500J0D01*
G01*
X125287500Y-128275000D01*
G75*
G02*
X125025000Y-128012500I0J262500D01*
G01*
G37*
G36*
G01*
X126175000Y-84762500D02*
X126175000Y-84237500D01*
G75*
G02*
X126437500Y-83975000I262500J0D01*
G01*
X127062500Y-83975000D01*
G75*
G02*
X127325000Y-84237500I0J-262500D01*
G01*
X127325000Y-84762500D01*
G75*
G02*
X127062500Y-85025000I-262500J0D01*
G01*
X126437500Y-85025000D01*
G75*
G02*
X126175000Y-84762500I0J262500D01*
G01*
G37*
G36*
G01*
X124425000Y-84762500D02*
X124425000Y-84237500D01*
G75*
G02*
X124687500Y-83975000I262500J0D01*
G01*
X125312500Y-83975000D01*
G75*
G02*
X125575000Y-84237500I0J-262500D01*
G01*
X125575000Y-84762500D01*
G75*
G02*
X125312500Y-85025000I-262500J0D01*
G01*
X124687500Y-85025000D01*
G75*
G02*
X124425000Y-84762500I0J262500D01*
G01*
G37*
G36*
G01*
X129075000Y-112362500D02*
X129075000Y-112887500D01*
G75*
G02*
X128812500Y-113150000I-262500J0D01*
G01*
X128187500Y-113150000D01*
G75*
G02*
X127925000Y-112887500I0J262500D01*
G01*
X127925000Y-112362500D01*
G75*
G02*
X128187500Y-112100000I262500J0D01*
G01*
X128812500Y-112100000D01*
G75*
G02*
X129075000Y-112362500I0J-262500D01*
G01*
G37*
G36*
G01*
X130825000Y-112362500D02*
X130825000Y-112887500D01*
G75*
G02*
X130562500Y-113150000I-262500J0D01*
G01*
X129937500Y-113150000D01*
G75*
G02*
X129675000Y-112887500I0J262500D01*
G01*
X129675000Y-112362500D01*
G75*
G02*
X129937500Y-112100000I262500J0D01*
G01*
X130562500Y-112100000D01*
G75*
G02*
X130825000Y-112362500I0J-262500D01*
G01*
G37*
D19*
X134500000Y-49500000D03*
D20*
X134500000Y-122400000D03*
G36*
G01*
X139262500Y-43575000D02*
X138737500Y-43575000D01*
G75*
G02*
X138475000Y-43312500I0J262500D01*
G01*
X138475000Y-42687500D01*
G75*
G02*
X138737500Y-42425000I262500J0D01*
G01*
X139262500Y-42425000D01*
G75*
G02*
X139525000Y-42687500I0J-262500D01*
G01*
X139525000Y-43312500D01*
G75*
G02*
X139262500Y-43575000I-262500J0D01*
G01*
G37*
G36*
G01*
X139262500Y-45325000D02*
X138737500Y-45325000D01*
G75*
G02*
X138475000Y-45062500I0J262500D01*
G01*
X138475000Y-44437500D01*
G75*
G02*
X138737500Y-44175000I262500J0D01*
G01*
X139262500Y-44175000D01*
G75*
G02*
X139525000Y-44437500I0J-262500D01*
G01*
X139525000Y-45062500D01*
G75*
G02*
X139262500Y-45325000I-262500J0D01*
G01*
G37*
D15*
G36*
X128700961Y-118740245D02*
G01*
X128703806Y-118730866D01*
X128708427Y-118722221D01*
X128714645Y-118714645D01*
X128722221Y-118708427D01*
X128730866Y-118703806D01*
X128740245Y-118700961D01*
X128750000Y-118700000D01*
X130250000Y-118700000D01*
X130259755Y-118700961D01*
X130269134Y-118703806D01*
X130277779Y-118708427D01*
X130285355Y-118714645D01*
X130291573Y-118722221D01*
X130296194Y-118730866D01*
X130299039Y-118740245D01*
X130300000Y-118750000D01*
X130300000Y-119250000D01*
X130299398Y-119256111D01*
X130299398Y-119274534D01*
X130299157Y-119279435D01*
X130294347Y-119328266D01*
X130293627Y-119333119D01*
X130284055Y-119381244D01*
X130282863Y-119386005D01*
X130268619Y-119432960D01*
X130266966Y-119437579D01*
X130248189Y-119482912D01*
X130246091Y-119487349D01*
X130222960Y-119530622D01*
X130220438Y-119534829D01*
X130193178Y-119575628D01*
X130190254Y-119579570D01*
X130159126Y-119617499D01*
X130155831Y-119621134D01*
X130121134Y-119655831D01*
X130117499Y-119659126D01*
X130079570Y-119690254D01*
X130075628Y-119693178D01*
X130034829Y-119720438D01*
X130030622Y-119722960D01*
X129987349Y-119746091D01*
X129982912Y-119748189D01*
X129937579Y-119766966D01*
X129932960Y-119768619D01*
X129886005Y-119782863D01*
X129881244Y-119784055D01*
X129833119Y-119793627D01*
X129828266Y-119794347D01*
X129779435Y-119799157D01*
X129774534Y-119799398D01*
X129756111Y-119799398D01*
X129750000Y-119800000D01*
X129250000Y-119800000D01*
X129243889Y-119799398D01*
X129225466Y-119799398D01*
X129220565Y-119799157D01*
X129171734Y-119794347D01*
X129166881Y-119793627D01*
X129118756Y-119784055D01*
X129113995Y-119782863D01*
X129067040Y-119768619D01*
X129062421Y-119766966D01*
X129017088Y-119748189D01*
X129012651Y-119746091D01*
X128969378Y-119722960D01*
X128965171Y-119720438D01*
X128924372Y-119693178D01*
X128920430Y-119690254D01*
X128882501Y-119659126D01*
X128878866Y-119655831D01*
X128844169Y-119621134D01*
X128840874Y-119617499D01*
X128809746Y-119579570D01*
X128806822Y-119575628D01*
X128779562Y-119534829D01*
X128777040Y-119530622D01*
X128753909Y-119487349D01*
X128751811Y-119482912D01*
X128733034Y-119437579D01*
X128731381Y-119432960D01*
X128717137Y-119386005D01*
X128715945Y-119381244D01*
X128706373Y-119333119D01*
X128705653Y-119328266D01*
X128700843Y-119279435D01*
X128700602Y-119274534D01*
X128700602Y-119256111D01*
X128700000Y-119250000D01*
X128700000Y-118750000D01*
X128700961Y-118740245D01*
G37*
G36*
X128700602Y-117943889D02*
G01*
X128700602Y-117925466D01*
X128700843Y-117920565D01*
X128705653Y-117871734D01*
X128706373Y-117866881D01*
X128715945Y-117818756D01*
X128717137Y-117813995D01*
X128731381Y-117767040D01*
X128733034Y-117762421D01*
X128751811Y-117717088D01*
X128753909Y-117712651D01*
X128777040Y-117669378D01*
X128779562Y-117665171D01*
X128806822Y-117624372D01*
X128809746Y-117620430D01*
X128840874Y-117582501D01*
X128844169Y-117578866D01*
X128878866Y-117544169D01*
X128882501Y-117540874D01*
X128920430Y-117509746D01*
X128924372Y-117506822D01*
X128965171Y-117479562D01*
X128969378Y-117477040D01*
X129012651Y-117453909D01*
X129017088Y-117451811D01*
X129062421Y-117433034D01*
X129067040Y-117431381D01*
X129113995Y-117417137D01*
X129118756Y-117415945D01*
X129166881Y-117406373D01*
X129171734Y-117405653D01*
X129220565Y-117400843D01*
X129225466Y-117400602D01*
X129243889Y-117400602D01*
X129250000Y-117400000D01*
X129750000Y-117400000D01*
X129756111Y-117400602D01*
X129774534Y-117400602D01*
X129779435Y-117400843D01*
X129828266Y-117405653D01*
X129833119Y-117406373D01*
X129881244Y-117415945D01*
X129886005Y-117417137D01*
X129932960Y-117431381D01*
X129937579Y-117433034D01*
X129982912Y-117451811D01*
X129987349Y-117453909D01*
X130030622Y-117477040D01*
X130034829Y-117479562D01*
X130075628Y-117506822D01*
X130079570Y-117509746D01*
X130117499Y-117540874D01*
X130121134Y-117544169D01*
X130155831Y-117578866D01*
X130159126Y-117582501D01*
X130190254Y-117620430D01*
X130193178Y-117624372D01*
X130220438Y-117665171D01*
X130222960Y-117669378D01*
X130246091Y-117712651D01*
X130248189Y-117717088D01*
X130266966Y-117762421D01*
X130268619Y-117767040D01*
X130282863Y-117813995D01*
X130284055Y-117818756D01*
X130293627Y-117866881D01*
X130294347Y-117871734D01*
X130299157Y-117920565D01*
X130299398Y-117925466D01*
X130299398Y-117943889D01*
X130300000Y-117950000D01*
X130300000Y-118450000D01*
X130299039Y-118459755D01*
X130296194Y-118469134D01*
X130291573Y-118477779D01*
X130285355Y-118485355D01*
X130277779Y-118491573D01*
X130269134Y-118496194D01*
X130259755Y-118499039D01*
X130250000Y-118500000D01*
X128750000Y-118500000D01*
X128740245Y-118499039D01*
X128730866Y-118496194D01*
X128722221Y-118491573D01*
X128714645Y-118485355D01*
X128708427Y-118477779D01*
X128703806Y-118469134D01*
X128700961Y-118459755D01*
X128700000Y-118450000D01*
X128700000Y-117950000D01*
X128700602Y-117943889D01*
G37*
D21*
X129238700Y-63232900D03*
D22*
X138202706Y-53474900D03*
D21*
X129238700Y-62132900D03*
D23*
X144000000Y-67084547D03*
D24*
X129149800Y-66783400D03*
D25*
X130802706Y-53474900D03*
D23*
X144000000Y-53583247D03*
D26*
X129149800Y-54132800D03*
D21*
X129238700Y-56632900D03*
X129238700Y-58832900D03*
X129238700Y-55532900D03*
X129238700Y-59932900D03*
X129238700Y-57732900D03*
X129238700Y-61032900D03*
G36*
G01*
X134762500Y-73862500D02*
X134237500Y-73862500D01*
G75*
G02*
X133975000Y-73600000I0J262500D01*
G01*
X133975000Y-72950000D01*
G75*
G02*
X134237500Y-72687500I262500J0D01*
G01*
X134762500Y-72687500D01*
G75*
G02*
X135025000Y-72950000I0J-262500D01*
G01*
X135025000Y-73600000D01*
G75*
G02*
X134762500Y-73862500I-262500J0D01*
G01*
G37*
G36*
G01*
X134762500Y-75587500D02*
X134237500Y-75587500D01*
G75*
G02*
X133975000Y-75325000I0J262500D01*
G01*
X133975000Y-74675000D01*
G75*
G02*
X134237500Y-74412500I262500J0D01*
G01*
X134762500Y-74412500D01*
G75*
G02*
X135025000Y-74675000I0J-262500D01*
G01*
X135025000Y-75325000D01*
G75*
G02*
X134762500Y-75587500I-262500J0D01*
G01*
G37*
D14*
X144150000Y-119750000D03*
X142250000Y-119750000D03*
X143200000Y-121750000D03*
X143250000Y-129000000D03*
X142300000Y-127000000D03*
X144200000Y-127000000D03*
G36*
G01*
X139550000Y-118387500D02*
X139550000Y-117862500D01*
G75*
G02*
X139812500Y-117600000I262500J0D01*
G01*
X140437500Y-117600000D01*
G75*
G02*
X140700000Y-117862500I0J-262500D01*
G01*
X140700000Y-118387500D01*
G75*
G02*
X140437500Y-118650000I-262500J0D01*
G01*
X139812500Y-118650000D01*
G75*
G02*
X139550000Y-118387500I0J262500D01*
G01*
G37*
G36*
G01*
X137800000Y-118387500D02*
X137800000Y-117862500D01*
G75*
G02*
X138062500Y-117600000I262500J0D01*
G01*
X138687500Y-117600000D01*
G75*
G02*
X138950000Y-117862500I0J-262500D01*
G01*
X138950000Y-118387500D01*
G75*
G02*
X138687500Y-118650000I-262500J0D01*
G01*
X138062500Y-118650000D01*
G75*
G02*
X137800000Y-118387500I0J262500D01*
G01*
G37*
G36*
G01*
X144575000Y-115737500D02*
X144575000Y-116262500D01*
G75*
G02*
X144312500Y-116525000I-262500J0D01*
G01*
X143687500Y-116525000D01*
G75*
G02*
X143425000Y-116262500I0J262500D01*
G01*
X143425000Y-115737500D01*
G75*
G02*
X143687500Y-115475000I262500J0D01*
G01*
X144312500Y-115475000D01*
G75*
G02*
X144575000Y-115737500I0J-262500D01*
G01*
G37*
G36*
G01*
X142825000Y-115737500D02*
X142825000Y-116262500D01*
G75*
G02*
X142562500Y-116525000I-262500J0D01*
G01*
X141937500Y-116525000D01*
G75*
G02*
X141675000Y-116262500I0J262500D01*
G01*
X141675000Y-115737500D01*
G75*
G02*
X141937500Y-115475000I262500J0D01*
G01*
X142562500Y-115475000D01*
G75*
G02*
X142825000Y-115737500I0J-262500D01*
G01*
G37*
G36*
G01*
X143425000Y-118012500D02*
X143425000Y-117487500D01*
G75*
G02*
X143687500Y-117225000I262500J0D01*
G01*
X144312500Y-117225000D01*
G75*
G02*
X144575000Y-117487500I0J-262500D01*
G01*
X144575000Y-118012500D01*
G75*
G02*
X144312500Y-118275000I-262500J0D01*
G01*
X143687500Y-118275000D01*
G75*
G02*
X143425000Y-118012500I0J262500D01*
G01*
G37*
G36*
G01*
X141675000Y-118012500D02*
X141675000Y-117487500D01*
G75*
G02*
X141937500Y-117225000I262500J0D01*
G01*
X142562500Y-117225000D01*
G75*
G02*
X142825000Y-117487500I0J-262500D01*
G01*
X142825000Y-118012500D01*
G75*
G02*
X142562500Y-118275000I-262500J0D01*
G01*
X141937500Y-118275000D01*
G75*
G02*
X141675000Y-118012500I0J262500D01*
G01*
G37*
G36*
G01*
X139987500Y-119425000D02*
X140512500Y-119425000D01*
G75*
G02*
X140775000Y-119687500I0J-262500D01*
G01*
X140775000Y-120312500D01*
G75*
G02*
X140512500Y-120575000I-262500J0D01*
G01*
X139987500Y-120575000D01*
G75*
G02*
X139725000Y-120312500I0J262500D01*
G01*
X139725000Y-119687500D01*
G75*
G02*
X139987500Y-119425000I262500J0D01*
G01*
G37*
G36*
G01*
X139987500Y-121175000D02*
X140512500Y-121175000D01*
G75*
G02*
X140775000Y-121437500I0J-262500D01*
G01*
X140775000Y-122062500D01*
G75*
G02*
X140512500Y-122325000I-262500J0D01*
G01*
X139987500Y-122325000D01*
G75*
G02*
X139725000Y-122062500I0J262500D01*
G01*
X139725000Y-121437500D01*
G75*
G02*
X139987500Y-121175000I262500J0D01*
G01*
G37*
G36*
G01*
X144700000Y-124737500D02*
X144700000Y-125262500D01*
G75*
G02*
X144437500Y-125525000I-262500J0D01*
G01*
X143812500Y-125525000D01*
G75*
G02*
X143550000Y-125262500I0J262500D01*
G01*
X143550000Y-124737500D01*
G75*
G02*
X143812500Y-124475000I262500J0D01*
G01*
X144437500Y-124475000D01*
G75*
G02*
X144700000Y-124737500I0J-262500D01*
G01*
G37*
G36*
G01*
X142950000Y-124737500D02*
X142950000Y-125262500D01*
G75*
G02*
X142687500Y-125525000I-262500J0D01*
G01*
X142062500Y-125525000D01*
G75*
G02*
X141800000Y-125262500I0J262500D01*
G01*
X141800000Y-124737500D01*
G75*
G02*
X142062500Y-124475000I262500J0D01*
G01*
X142687500Y-124475000D01*
G75*
G02*
X142950000Y-124737500I0J-262500D01*
G01*
G37*
G36*
G01*
X130050000Y-87762500D02*
X130050000Y-87237500D01*
G75*
G02*
X130312500Y-86975000I262500J0D01*
G01*
X130937500Y-86975000D01*
G75*
G02*
X131200000Y-87237500I0J-262500D01*
G01*
X131200000Y-87762500D01*
G75*
G02*
X130937500Y-88025000I-262500J0D01*
G01*
X130312500Y-88025000D01*
G75*
G02*
X130050000Y-87762500I0J262500D01*
G01*
G37*
G36*
G01*
X128300000Y-87762500D02*
X128300000Y-87237500D01*
G75*
G02*
X128562500Y-86975000I262500J0D01*
G01*
X129187500Y-86975000D01*
G75*
G02*
X129450000Y-87237500I0J-262500D01*
G01*
X129450000Y-87762500D01*
G75*
G02*
X129187500Y-88025000I-262500J0D01*
G01*
X128562500Y-88025000D01*
G75*
G02*
X128300000Y-87762500I0J262500D01*
G01*
G37*
G36*
G01*
X128300000Y-86012500D02*
X128300000Y-85487500D01*
G75*
G02*
X128562500Y-85225000I262500J0D01*
G01*
X129187500Y-85225000D01*
G75*
G02*
X129450000Y-85487500I0J-262500D01*
G01*
X129450000Y-86012500D01*
G75*
G02*
X129187500Y-86275000I-262500J0D01*
G01*
X128562500Y-86275000D01*
G75*
G02*
X128300000Y-86012500I0J262500D01*
G01*
G37*
G36*
G01*
X130050000Y-86012500D02*
X130050000Y-85487500D01*
G75*
G02*
X130312500Y-85225000I262500J0D01*
G01*
X130937500Y-85225000D01*
G75*
G02*
X131200000Y-85487500I0J-262500D01*
G01*
X131200000Y-86012500D01*
G75*
G02*
X130937500Y-86275000I-262500J0D01*
G01*
X130312500Y-86275000D01*
G75*
G02*
X130050000Y-86012500I0J262500D01*
G01*
G37*
D27*
X125750000Y-112000000D03*
X125750000Y-115300000D03*
M02*
